<?xml version="1.0" encoding="utf-8"?>
<!-- Generator: Adobe Illustrator 24.0.0, SVG Export Plug-In . SVG Version: 6.00 Build 0)  -->
<svg version="1.1" id="Calque_1" xmlns="http://www.w3.org/2000/svg" xmlns:xlink="http://www.w3.org/1999/xlink" x="0px" y="0px"
	 viewBox="0 0 93 50" style="enable-background:new 0 0 93 50;" xml:space="preserve">
<style type="text/css">
	.st0{fill:#00AFCB;}
	.st1{fill:#FCC031;}
	.st2{fill:#A7CC45;}
</style>
<g>
	<g>
		<path class="st0" d="M38.17,4.9L36.7,8.68h2.94L38.17,4.9z M37.1,1.99h2.12l4.23,11h-2.18l-0.86-2.26h-4.49l-0.89,2.26h-2.17
			L37.1,1.99z"/>
		<g>
			<path class="st0" d="M52.3,3.92l-1.46,1.4c-1-1.05-2.12-1.58-3.36-1.58c-1.05,0-1.94,0.36-2.65,1.08
				c-0.72,0.72-1.08,1.6-1.08,2.65c0,0.73,0.16,1.39,0.48,1.95c0.32,0.57,0.77,1.02,1.35,1.34c0.58,0.32,1.23,0.49,1.94,0.49
				c0.61,0,1.16-0.11,1.67-0.34c0.5-0.23,1.05-0.64,1.66-1.24l1.42,1.48c-0.81,0.79-1.58,1.34-2.3,1.65
				c-0.72,0.31-1.55,0.46-2.47,0.46c-1.71,0-3.11-0.54-4.2-1.63c-1.09-1.08-1.63-2.47-1.63-4.17c0-1.1,0.25-2.07,0.74-2.92
				c0.5-0.85,1.21-1.54,2.13-2.06c0.92-0.52,1.92-0.78,2.99-0.78c0.91,0,1.78,0.19,2.62,0.58C50.96,2.67,51.69,3.22,52.3,3.92"/>
		</g>
		<polygon class="st0" points="51.51,1.99 59.49,1.99 59.49,4.05 56.68,4.05 56.68,12.98 54.56,12.98 54.56,4.05 51.51,4.05 		"/>
		<rect x="60.25" y="1.99" class="st0" width="2.08" height="11"/>
		<g>
			<path class="st0" d="M68.32,3.76c-1.02,0-1.87,0.35-2.57,1.06c-0.69,0.71-1.04,1.61-1.04,2.7c0,1.22,0.44,2.18,1.31,2.89
				c0.68,0.55,1.46,0.83,2.33,0.83c0.99,0,1.84-0.36,2.54-1.08c0.7-0.72,1.05-1.6,1.05-2.65c0-1.05-0.35-1.93-1.06-2.66
				C70.18,4.12,69.33,3.76,68.32,3.76 M68.34,1.71c1.56,0,2.89,0.56,4.01,1.69c1.12,1.13,1.68,2.5,1.68,4.12
				c0,1.61-0.55,2.96-1.66,4.07c-1.1,1.11-2.44,1.67-4.02,1.67c-1.65,0-3.02-0.57-4.11-1.71c-1.09-1.14-1.64-2.5-1.64-4.07
				c0-1.05,0.26-2.02,0.76-2.9c0.51-0.88,1.21-1.58,2.1-2.1C66.36,1.97,67.31,1.71,68.34,1.71"/>
		</g>
		<polygon class="st0" points="74.48,1.99 76.49,1.99 81.57,9.22 81.57,1.99 83.66,1.99 83.66,12.98 81.64,12.98 76.58,5.77 
			76.58,12.98 74.48,12.98 		"/>
		<polygon class="st0" points="32.78,14 38.53,14 38.53,15.77 34.51,15.77 34.51,17.49 38.53,17.49 38.53,19.24 34.51,19.24 
			34.51,21.74 38.53,21.74 38.53,23.52 32.78,23.52 		"/>
		<polygon class="st0" points="39.15,14 40.83,14 44.76,20.26 44.76,14 46.5,14 46.5,23.52 44.82,23.52 40.9,17.27 40.9,23.52 
			39.15,23.52 		"/>
		<polygon class="st0" points="47.08,14 52.39,14 52.39,15.76 48.82,15.76 48.82,17.49 52.39,17.49 52.39,19.24 48.82,19.24 
			48.82,23.52 47.08,23.52 		"/>
		<path class="st0" d="M56.17,16.52l-1.23,3.27h2.46L56.17,16.52z M55.28,14h1.77l3.53,9.52h-1.82l-0.72-1.96H54.3l-0.75,1.96h-1.82
			L55.28,14z"/>
		<polygon class="st0" points="60.66,14 62.33,14 66.26,20.26 66.26,14 68.01,14 68.01,23.52 66.33,23.52 62.41,17.27 62.41,23.52 
			60.66,23.52 		"/>
		<g>
			<path class="st0" d="M77.27,15.67l-1.22,1.21c-0.83-0.91-1.77-1.37-2.81-1.37c-0.88,0-1.62,0.31-2.22,0.93
				c-0.6,0.62-0.9,1.39-0.9,2.3c0,0.64,0.13,1.2,0.4,1.69c0.27,0.49,0.64,0.88,1.13,1.16c0.49,0.28,1.03,0.42,1.62,0.42
				c0.51,0,0.97-0.1,1.39-0.3c0.42-0.2,0.88-0.55,1.38-1.07l1.19,1.28c-0.68,0.69-1.32,1.16-1.92,1.43c-0.6,0.27-1.29,0.4-2.07,0.4
				c-1.43,0-2.6-0.47-3.51-1.41c-0.91-0.94-1.36-2.14-1.36-3.61c0-0.95,0.21-1.79,0.62-2.53c0.41-0.74,1.01-1.33,1.78-1.78
				c0.77-0.45,1.6-0.67,2.49-0.67c0.76,0,1.49,0.16,2.19,0.5C76.16,14.59,76.76,15.06,77.27,15.67"/>
		</g>
		<polygon class="st0" points="77.89,14 83.64,14 83.64,15.77 79.62,15.77 79.62,17.49 83.64,17.49 83.64,19.24 79.62,19.24 
			79.62,21.74 83.64,21.74 83.64,23.52 77.89,23.52 		"/>
		<polygon class="st0" points="19.94,0 8.78,10.21 11.15,10.21 10.66,22.66 29.11,22.66 28.63,10.21 31.1,10.21 		"/>
		<g>
			<path class="st1" d="M16.96,7.8c1.22-0.16,1.65,1.12,1.65,1.49c0,0.37,0.11,1.33-1.65,1.59c-1.06,0.16-1.59-0.75-1.65-1.44
				C15.26,8.76,15.84,8.02,16.96,7.8"/>
			<path class="st1" d="M13.81,13.46c0.5-0.5,2.3-1.52,2.44-1.67c0.14-0.14,1.17-0.5,1.73,0.18c0.57,0.67,1.38,1.84,1.45,1.95
				c0.39-0.6,1.88-2.09,2.12-2.34c0.25-0.25,1.13-0.96,2.13-0.25c0.99,0.71,2.09,1.66,2.48,2.13c0.39,0.46,0.14,0.5-0.25,0.39
				c-0.39-0.11-1.06-0.28-1.38-0.35c-0.32-0.07-0.6,0.18-0.32,0.57c0.28,0.39,1.31,1.95,1.77,4.04c0.14,0.39,0.21,0.39,0.35,0.32
				c0.14-0.07,0.67-0.07,0.46,0.28c-0.21,0.35-0.5,0.64-0.64,0.81c-0.14,0.18-0.32,0.14-0.53-0.17c-0.64-1.03-1.84-1.81-4.04-0.71
				c-0.43,0.21-1.06,0.67-1.35,0.99c-0.28,0.32-1.14,0.5-0.74-0.28c0.57-0.92,1.56-1.84,1.88-4.78c0.07-0.78,0.07-1.31-0.42-0.71
				c-0.5,0.6-0.82,0.74-1.31,0.85c-0.5,0.11-0.46-0.25-0.78-0.39c-0.32-0.14-0.78-0.57-0.89,0.39c-0.1,0.96,0,2.9,0.28,3.93
				c0.14,0.71,0.39,1.1,0.11,1.28c-0.28,0.18-0.71-0.11-1.13-0.82c-0.42-0.71-1.2-1.67-3.15-0.78c-0.43,0.25-0.74,0.53-0.99,0.71
				c-0.25,0.18-0.81-0.07-0.35-0.64c0.46-0.57,1.7-2.09,2.09-2.66c0.39-0.57,0.53-0.74,0.64-1.17c0.11-0.42,0.14-1.35-0.57-0.78
				c-0.39,0.28-0.57,0.36-0.85,0.5C13.77,14.41,12.96,14.3,13.81,13.46"/>
			<path class="st1" d="M20.79,9.18c-0.14-0.85,0.39-1.74,1.42-1.98c1.03-0.25,1.91,0.32,2.09,1.28c0.18,0.96-0.67,1.63-1.49,1.81
				C22.14,10.43,21.04,10.14,20.79,9.18"/>
			<path class="st2" d="M9.59,25.05c0.4-0.39,1.31-0.75,1.94-0.98c0.63-0.23,6.6-2.82,13.88-2.99c3.12-0.03,5.28,0.79,5.97,2.23
				c0.16,0.23,0.14,0.37-0.39,0.46c-3.94,0.62-20.84,1.35-21.13,1.35C9.56,25.11,9.43,25.21,9.59,25.05"/>
		</g>
		<polygon class="st0" points="9.18,26.86 9.18,29.9 9.47,29.9 9.47,28.41 10.65,28.41 10.65,28.11 9.47,28.11 9.47,27.16 
			10.65,27.16 10.65,26.86 		"/>
		<g>
			<path class="st0" d="M12.16,27.87c-0.23,0-0.43,0.09-0.6,0.27c-0.17,0.18-0.25,0.39-0.25,0.64c0,0.16,0.04,0.31,0.11,0.45
				c0.08,0.14,0.18,0.25,0.31,0.33c0.13,0.08,0.27,0.11,0.43,0.11c0.15,0,0.3-0.04,0.43-0.11c0.13-0.08,0.23-0.18,0.31-0.33
				C12.96,29.1,13,28.95,13,28.78c0-0.25-0.08-0.47-0.25-0.64C12.58,27.96,12.39,27.87,12.16,27.87 M12.16,27.59
				c0.33,0,0.61,0.13,0.83,0.38c0.2,0.23,0.3,0.5,0.3,0.81c0,0.31-0.11,0.59-0.32,0.82c-0.21,0.23-0.48,0.35-0.81,0.35
				c-0.33,0-0.6-0.12-0.81-0.35c-0.21-0.23-0.32-0.51-0.32-0.82c0-0.31,0.1-0.58,0.3-0.81C11.54,27.72,11.82,27.59,12.16,27.59"/>
			<path class="st0" d="M13.82,27.65h0.28v0.4c0.11-0.15,0.23-0.27,0.37-0.35c0.14-0.08,0.28-0.11,0.44-0.11
				c0.16,0,0.31,0.04,0.43,0.13c0.13,0.09,0.22,0.2,0.28,0.34c0.06,0.14,0.09,0.37,0.09,0.68v1.16h-0.28v-1.07
				c0-0.26-0.01-0.43-0.03-0.52c-0.03-0.15-0.09-0.26-0.19-0.34c-0.09-0.08-0.21-0.11-0.36-0.11c-0.17,0-0.32,0.06-0.45,0.17
				c-0.13,0.12-0.22,0.26-0.26,0.43c-0.03,0.11-0.04,0.32-0.04,0.61v0.82h-0.28V27.65z"/>
			<path class="st0" d="M17.37,27.87c-0.15,0-0.3,0.04-0.43,0.12c-0.13,0.08-0.24,0.19-0.31,0.33c-0.08,0.14-0.12,0.29-0.12,0.45
				c0,0.16,0.04,0.31,0.12,0.45c0.08,0.14,0.18,0.26,0.32,0.34c0.13,0.08,0.27,0.12,0.42,0.12c0.15,0,0.3-0.04,0.43-0.12
				c0.14-0.08,0.24-0.19,0.32-0.32c0.07-0.14,0.11-0.29,0.11-0.46c0-0.26-0.08-0.48-0.25-0.65C17.82,27.96,17.62,27.87,17.37,27.87
				 M18.49,26.78v3.11h-0.27v-0.39c-0.12,0.15-0.25,0.26-0.39,0.33c-0.14,0.07-0.3,0.11-0.48,0.11c-0.31,0-0.57-0.12-0.79-0.35
				c-0.22-0.23-0.32-0.51-0.32-0.84c0-0.32,0.11-0.6,0.33-0.83c0.22-0.23,0.48-0.34,0.79-0.34c0.18,0,0.34,0.04,0.48,0.12
				c0.14,0.08,0.27,0.2,0.38,0.35v-1.28H18.49z"/>
			<path class="st0" d="M20.18,27.87c-0.15,0-0.3,0.04-0.43,0.12c-0.13,0.08-0.23,0.19-0.31,0.33c-0.08,0.14-0.12,0.29-0.12,0.45
				c0,0.16,0.04,0.31,0.12,0.45c0.08,0.14,0.18,0.26,0.31,0.34c0.13,0.08,0.27,0.12,0.43,0.12c0.15,0,0.3-0.04,0.43-0.12
				c0.14-0.08,0.24-0.19,0.32-0.32c0.07-0.14,0.11-0.29,0.11-0.46c0-0.26-0.08-0.48-0.25-0.65C20.63,27.96,20.43,27.87,20.18,27.87
				 M21.3,27.65v2.25h-0.27v-0.39c-0.12,0.15-0.25,0.26-0.39,0.33c-0.14,0.07-0.3,0.11-0.48,0.11c-0.31,0-0.57-0.12-0.79-0.35
				c-0.22-0.23-0.33-0.51-0.33-0.84c0-0.32,0.11-0.6,0.33-0.83c0.22-0.23,0.48-0.34,0.79-0.34c0.18,0,0.34,0.04,0.48,0.12
				c0.14,0.08,0.27,0.2,0.38,0.35v-0.41H21.3z"/>
		</g>
		<polygon class="st0" points="22.19,26.81 22.47,26.81 22.47,27.65 22.91,27.65 22.91,27.9 22.47,27.9 22.47,29.9 22.19,29.9 
			22.19,27.9 21.81,27.9 21.81,27.65 22.19,27.65 		"/>
		<g>
			<path class="st0" d="M23.31,27.65h0.28v2.25h-0.28V27.65z M23.44,26.72c0.06,0,0.12,0.02,0.16,0.07c0.04,0.05,0.07,0.1,0.07,0.17
				c0,0.06-0.02,0.12-0.07,0.17c-0.04,0.05-0.1,0.07-0.16,0.07c-0.06,0-0.12-0.02-0.16-0.07c-0.04-0.05-0.07-0.1-0.07-0.17
				c0-0.07,0.02-0.12,0.07-0.17C23.33,26.75,23.38,26.72,23.44,26.72"/>
			<path class="st0" d="M25.21,27.87c-0.23,0-0.43,0.09-0.6,0.27c-0.17,0.18-0.25,0.39-0.25,0.64c0,0.16,0.04,0.31,0.11,0.45
				c0.08,0.14,0.18,0.25,0.31,0.33c0.13,0.08,0.27,0.11,0.42,0.11c0.15,0,0.3-0.04,0.43-0.11c0.13-0.08,0.23-0.18,0.31-0.33
				c0.08-0.14,0.11-0.29,0.11-0.45c0-0.25-0.08-0.47-0.25-0.64C25.64,27.96,25.44,27.87,25.21,27.87 M25.21,27.59
				c0.33,0,0.61,0.13,0.83,0.38c0.2,0.23,0.3,0.5,0.3,0.81c0,0.31-0.1,0.59-0.32,0.82c-0.21,0.23-0.48,0.35-0.81,0.35
				c-0.33,0-0.6-0.12-0.81-0.35c-0.21-0.23-0.32-0.51-0.32-0.82c0-0.31,0.1-0.58,0.3-0.81C24.6,27.72,24.87,27.59,25.21,27.59"/>
			<path class="st0" d="M26.87,27.65h0.28v0.4c0.11-0.15,0.23-0.27,0.37-0.35c0.14-0.08,0.28-0.11,0.44-0.11
				c0.16,0,0.31,0.04,0.43,0.13c0.13,0.09,0.22,0.2,0.28,0.34c0.06,0.14,0.09,0.37,0.09,0.68v1.16h-0.28v-1.07
				c0-0.26-0.01-0.43-0.03-0.52c-0.03-0.15-0.09-0.26-0.19-0.34c-0.09-0.08-0.21-0.11-0.36-0.11c-0.17,0-0.32,0.06-0.45,0.17
				c-0.13,0.12-0.22,0.26-0.26,0.43c-0.03,0.11-0.04,0.32-0.04,0.61v0.82h-0.28V27.65z"/>
			<path class="st0" d="M30.42,27.65h0.28v0.33c0.09-0.13,0.17-0.23,0.27-0.29c0.09-0.06,0.19-0.1,0.29-0.1
				c0.08,0,0.16,0.03,0.25,0.08l-0.14,0.24c-0.06-0.03-0.11-0.04-0.15-0.04c-0.09,0-0.18,0.04-0.27,0.12
				c-0.09,0.08-0.15,0.2-0.2,0.37c-0.03,0.13-0.05,0.39-0.05,0.78v0.76h-0.28V27.65z"/>
			<path class="st0" d="M33.6,28.55c-0.04-0.15-0.09-0.28-0.16-0.37c-0.07-0.09-0.16-0.17-0.28-0.22c-0.12-0.06-0.24-0.08-0.37-0.08
				c-0.21,0-0.4,0.07-0.55,0.21c-0.11,0.1-0.2,0.26-0.25,0.46H33.6z M33.6,29.15l0.23,0.13c-0.08,0.16-0.17,0.28-0.27,0.38
				c-0.1,0.1-0.22,0.17-0.34,0.22c-0.13,0.05-0.27,0.08-0.43,0.08c-0.35,0-0.63-0.12-0.83-0.36c-0.2-0.24-0.3-0.51-0.3-0.81
				c0-0.29,0.08-0.54,0.25-0.76c0.21-0.28,0.5-0.43,0.86-0.43c0.37,0,0.66,0.15,0.89,0.44c0.16,0.21,0.24,0.46,0.24,0.77h-1.95
				c0,0.26,0.09,0.47,0.24,0.64c0.16,0.17,0.35,0.25,0.58,0.25c0.11,0,0.22-0.02,0.32-0.06c0.1-0.04,0.19-0.09,0.27-0.16
				C33.43,29.4,33.51,29.3,33.6,29.15"/>
			<path class="st0" d="M36.55,28.12l-0.22,0.14c-0.19-0.26-0.45-0.39-0.78-0.39c-0.26,0-0.48,0.09-0.66,0.26
				c-0.17,0.18-0.26,0.39-0.26,0.64c0,0.16,0.04,0.32,0.12,0.46c0.08,0.14,0.19,0.26,0.33,0.34c0.14,0.08,0.3,0.12,0.47,0.12
				c0.32,0,0.58-0.13,0.78-0.39l0.22,0.15c-0.1,0.16-0.24,0.29-0.42,0.38c-0.17,0.09-0.37,0.13-0.6,0.13
				c-0.34,0-0.63-0.11-0.85-0.34c-0.23-0.23-0.34-0.5-0.34-0.82c0-0.22,0.05-0.42,0.16-0.61c0.11-0.19,0.25-0.33,0.44-0.44
				c0.18-0.1,0.39-0.16,0.62-0.16c0.14,0,0.28,0.02,0.41,0.07c0.13,0.05,0.25,0.1,0.34,0.18C36.4,27.91,36.48,28,36.55,28.12"/>
			<path class="st0" d="M38.13,27.87c-0.23,0-0.43,0.09-0.6,0.27c-0.17,0.18-0.25,0.39-0.25,0.64c0,0.16,0.04,0.31,0.11,0.45
				c0.08,0.14,0.18,0.25,0.31,0.33c0.13,0.08,0.27,0.11,0.43,0.11c0.15,0,0.3-0.04,0.43-0.11c0.13-0.08,0.23-0.18,0.31-0.33
				c0.08-0.14,0.11-0.29,0.11-0.45c0-0.25-0.08-0.47-0.25-0.64C38.55,27.96,38.36,27.87,38.13,27.87 M38.13,27.59
				c0.33,0,0.61,0.13,0.83,0.38c0.2,0.23,0.3,0.5,0.3,0.81c0,0.31-0.1,0.59-0.32,0.82c-0.21,0.23-0.48,0.35-0.81,0.35
				c-0.33,0-0.6-0.12-0.81-0.35C37.1,29.37,37,29.09,37,28.78c0-0.31,0.1-0.58,0.3-0.81C37.51,27.72,37.79,27.59,38.13,27.59"/>
			<path class="st0" d="M39.79,27.65h0.28v0.4c0.11-0.15,0.24-0.27,0.37-0.35c0.14-0.08,0.28-0.11,0.44-0.11
				c0.16,0,0.3,0.04,0.43,0.13c0.13,0.09,0.22,0.2,0.28,0.34c0.06,0.14,0.09,0.37,0.09,0.68v1.16H41.4v-1.07
				c0-0.26-0.01-0.43-0.03-0.52c-0.03-0.15-0.09-0.26-0.19-0.34c-0.09-0.08-0.21-0.11-0.36-0.11c-0.17,0-0.32,0.06-0.45,0.17
				c-0.13,0.12-0.22,0.26-0.26,0.43c-0.03,0.11-0.04,0.32-0.04,0.61v0.82h-0.28V27.65z"/>
			<path class="st0" d="M42.3,27.65h0.28v0.4c0.11-0.15,0.24-0.27,0.37-0.35c0.13-0.08,0.28-0.11,0.44-0.11
				c0.16,0,0.31,0.04,0.43,0.13c0.13,0.09,0.22,0.2,0.28,0.34c0.06,0.14,0.09,0.37,0.09,0.68v1.16h-0.28v-1.07
				c0-0.26-0.01-0.43-0.03-0.52c-0.03-0.15-0.09-0.26-0.19-0.34c-0.09-0.08-0.21-0.11-0.36-0.11c-0.17,0-0.32,0.06-0.45,0.17
				c-0.13,0.12-0.22,0.26-0.26,0.43c-0.03,0.11-0.04,0.32-0.04,0.61v0.82H42.3V27.65z"/>
			<path class="st0" d="M44.77,27.65h0.28v1.05c0,0.26,0.01,0.43,0.04,0.53c0.04,0.14,0.12,0.25,0.23,0.33
				c0.11,0.08,0.25,0.12,0.4,0.12c0.16,0,0.29-0.04,0.4-0.12c0.11-0.08,0.18-0.18,0.22-0.31c0.03-0.09,0.04-0.27,0.04-0.55v-1.05
				h0.28v1.1c0,0.31-0.04,0.54-0.11,0.7c-0.07,0.16-0.17,0.28-0.31,0.37c-0.14,0.09-0.32,0.13-0.53,0.13
				c-0.21,0-0.39-0.04-0.53-0.13c-0.14-0.09-0.25-0.21-0.32-0.37c-0.07-0.16-0.11-0.4-0.11-0.72V27.65z"/>
			<path class="st0" d="M49.13,28.55c-0.04-0.15-0.09-0.28-0.16-0.37c-0.07-0.09-0.16-0.17-0.28-0.22
				c-0.12-0.06-0.24-0.08-0.37-0.08c-0.21,0-0.4,0.07-0.55,0.21c-0.11,0.1-0.19,0.26-0.25,0.46H49.13z M49.13,29.15l0.23,0.13
				c-0.08,0.16-0.17,0.28-0.27,0.38c-0.1,0.1-0.21,0.17-0.34,0.22c-0.13,0.05-0.27,0.08-0.43,0.08c-0.35,0-0.63-0.12-0.83-0.36
				c-0.2-0.24-0.3-0.51-0.3-0.81c0-0.29,0.08-0.54,0.25-0.76c0.21-0.28,0.5-0.43,0.86-0.43c0.37,0,0.66,0.15,0.89,0.44
				c0.16,0.21,0.24,0.46,0.24,0.77h-1.95c0.01,0.26,0.09,0.47,0.24,0.64c0.15,0.17,0.35,0.25,0.58,0.25c0.11,0,0.22-0.02,0.32-0.06
				c0.1-0.04,0.19-0.09,0.27-0.16C48.96,29.4,49.04,29.3,49.13,29.15"/>
			<path class="st0" d="M52.17,27.87c-0.16,0-0.3,0.04-0.43,0.12c-0.13,0.08-0.24,0.19-0.31,0.33c-0.08,0.14-0.12,0.29-0.12,0.45
				c0,0.16,0.04,0.31,0.12,0.45c0.08,0.14,0.18,0.26,0.32,0.34c0.13,0.08,0.27,0.12,0.42,0.12s0.3-0.04,0.43-0.12
				c0.14-0.08,0.24-0.19,0.31-0.32c0.07-0.14,0.11-0.29,0.11-0.46c0-0.26-0.08-0.48-0.25-0.65C52.61,27.96,52.41,27.87,52.17,27.87
				 M53.28,26.78v3.11h-0.27v-0.39c-0.12,0.15-0.25,0.26-0.39,0.33c-0.15,0.07-0.3,0.11-0.48,0.11c-0.31,0-0.57-0.12-0.79-0.35
				c-0.22-0.23-0.33-0.51-0.33-0.84c0-0.32,0.11-0.6,0.33-0.83c0.22-0.23,0.48-0.34,0.79-0.34c0.18,0,0.34,0.04,0.48,0.12
				c0.14,0.08,0.27,0.2,0.38,0.35v-1.28H53.28z"/>
			<path class="st0" d="M54.31,27.92l-0.15-0.09c0.05-0.1,0.08-0.19,0.1-0.25c0.02-0.06,0.03-0.14,0.04-0.23h-0.18v-0.57h0.36v0.36
				c0,0.18-0.01,0.32-0.03,0.42C54.43,27.66,54.38,27.78,54.31,27.92"/>
			<path class="st0" d="M55.35,27.65h0.28v1.05c0,0.26,0.01,0.43,0.04,0.53c0.04,0.14,0.12,0.25,0.23,0.33
				c0.11,0.08,0.25,0.12,0.4,0.12c0.16,0,0.29-0.04,0.4-0.12c0.11-0.08,0.18-0.18,0.22-0.31c0.03-0.09,0.04-0.27,0.04-0.55v-1.05
				h0.29v1.1c0,0.31-0.04,0.54-0.11,0.7c-0.07,0.16-0.17,0.28-0.31,0.37c-0.14,0.09-0.32,0.13-0.53,0.13
				c-0.21,0-0.39-0.04-0.53-0.13c-0.14-0.09-0.25-0.21-0.32-0.37c-0.07-0.16-0.1-0.4-0.1-0.72V27.65z"/>
		</g>
		<polygon class="st0" points="58.13,26.81 58.41,26.81 58.41,27.65 58.85,27.65 58.85,27.9 58.41,27.9 58.41,29.9 58.13,29.9 
			58.13,27.9 57.75,27.9 57.75,27.65 58.13,27.65 		"/>
		<g>
			<path class="st0" d="M59.24,27.65h0.28v2.25h-0.28V27.65z M59.38,26.72c0.06,0,0.12,0.02,0.16,0.07s0.07,0.1,0.07,0.17
				c0,0.06-0.02,0.12-0.07,0.17s-0.1,0.07-0.16,0.07c-0.06,0-0.12-0.02-0.16-0.07c-0.04-0.05-0.07-0.1-0.07-0.17
				c0-0.07,0.02-0.12,0.07-0.17C59.27,26.75,59.32,26.72,59.38,26.72"/>
		</g>
		<rect x="60.08" y="26.78" class="st0" width="0.28" height="3.11"/>
		<g>
			<path class="st0" d="M60.92,27.65h0.28v2.25h-0.28V27.65z M61.05,26.72c0.06,0,0.12,0.02,0.16,0.07c0.05,0.05,0.07,0.1,0.07,0.17
				c0,0.06-0.02,0.12-0.07,0.17c-0.05,0.05-0.1,0.07-0.16,0.07c-0.06,0-0.12-0.02-0.16-0.07c-0.04-0.05-0.07-0.1-0.07-0.17
				c0-0.07,0.02-0.12,0.07-0.17C60.94,26.75,60.99,26.72,61.05,26.72"/>
		</g>
		<polygon class="st0" points="62.04,26.81 62.32,26.81 62.32,27.65 62.76,27.65 62.76,27.9 62.32,27.9 62.32,29.9 62.04,29.9 
			62.04,27.9 61.66,27.9 61.66,27.65 62.04,27.65 		"/>
		<g>
			<path class="st0" d="M64.35,26.6h0.43l-0.59,0.64h-0.27L64.35,26.6z M65.02,28.55c-0.04-0.15-0.09-0.28-0.16-0.37
				c-0.07-0.09-0.16-0.17-0.28-0.22c-0.12-0.06-0.24-0.08-0.37-0.08c-0.21,0-0.4,0.07-0.55,0.21c-0.11,0.1-0.19,0.26-0.25,0.46
				H65.02z M65.02,29.15l0.23,0.13c-0.08,0.16-0.17,0.28-0.27,0.38c-0.1,0.1-0.21,0.17-0.34,0.22c-0.13,0.05-0.27,0.08-0.43,0.08
				c-0.35,0-0.63-0.12-0.83-0.36c-0.2-0.24-0.3-0.51-0.3-0.81c0-0.29,0.08-0.54,0.25-0.76c0.21-0.28,0.5-0.43,0.86-0.43
				c0.37,0,0.66,0.15,0.88,0.44c0.16,0.21,0.24,0.46,0.24,0.77h-1.95c0,0.26,0.09,0.47,0.24,0.64c0.15,0.17,0.35,0.25,0.58,0.25
				c0.11,0,0.22-0.02,0.32-0.06c0.1-0.04,0.19-0.09,0.27-0.16C64.86,29.4,64.93,29.3,65.02,29.15"/>
			<path class="st0" d="M68.13,27.87c-0.24,0-0.44,0.09-0.61,0.26c-0.16,0.18-0.25,0.39-0.25,0.65c0,0.17,0.04,0.32,0.11,0.46
				c0.07,0.14,0.18,0.24,0.32,0.32c0.14,0.08,0.28,0.12,0.43,0.12c0.15,0,0.29-0.04,0.42-0.12c0.13-0.08,0.24-0.19,0.31-0.34
				c0.08-0.14,0.12-0.3,0.12-0.45c0-0.16-0.04-0.31-0.12-0.45c-0.08-0.14-0.18-0.25-0.31-0.33C68.43,27.91,68.29,27.87,68.13,27.87
				 M67.02,27.65h0.28v0.41c0.11-0.16,0.24-0.27,0.38-0.35c0.14-0.08,0.3-0.12,0.48-0.12c0.31,0,0.57,0.11,0.79,0.34
				c0.22,0.23,0.33,0.51,0.33,0.83c0,0.33-0.11,0.61-0.33,0.84c-0.22,0.23-0.48,0.35-0.78,0.35c-0.17,0-0.33-0.04-0.48-0.11
				c-0.14-0.07-0.27-0.19-0.39-0.33v1.21h-0.28V27.65z"/>
			<path class="st0" d="M69.78,27.65h0.28v1.05c0,0.26,0.01,0.43,0.04,0.53c0.04,0.14,0.12,0.25,0.23,0.33
				c0.11,0.08,0.25,0.12,0.4,0.12c0.16,0,0.29-0.04,0.4-0.12c0.11-0.08,0.18-0.18,0.22-0.31c0.03-0.09,0.04-0.27,0.04-0.55v-1.05
				h0.28v1.1c0,0.31-0.03,0.54-0.1,0.7c-0.07,0.16-0.17,0.28-0.32,0.37c-0.14,0.09-0.32,0.13-0.53,0.13c-0.21,0-0.39-0.04-0.53-0.13
				c-0.14-0.09-0.25-0.21-0.32-0.37c-0.07-0.16-0.1-0.4-0.1-0.72V27.65z"/>
			<path class="st0" d="M73.45,29.67c0.16,0,0.3-0.04,0.43-0.12c0.13-0.08,0.23-0.19,0.31-0.33c0.08-0.14,0.12-0.29,0.12-0.45
				c0-0.16-0.04-0.31-0.12-0.46c-0.08-0.14-0.18-0.26-0.31-0.34c-0.13-0.08-0.27-0.12-0.42-0.12c-0.15,0-0.3,0.04-0.43,0.12
				c-0.14,0.08-0.24,0.19-0.32,0.33c-0.07,0.14-0.11,0.29-0.11,0.46c0,0.26,0.08,0.48,0.25,0.65C73,29.59,73.21,29.67,73.45,29.67
				 M72.33,29.9v-3.11h0.28v1.25c0.12-0.15,0.25-0.26,0.39-0.33c0.14-0.07,0.3-0.11,0.48-0.11c0.31,0,0.57,0.12,0.78,0.35
				c0.22,0.23,0.33,0.51,0.33,0.84c0,0.32-0.11,0.6-0.33,0.83c-0.22,0.23-0.48,0.34-0.79,0.34c-0.18,0-0.34-0.04-0.48-0.12
				c-0.14-0.08-0.27-0.2-0.38-0.35v0.41H72.33z"/>
		</g>
		<rect x="75.07" y="26.78" class="st0" width="0.28" height="3.11"/>
		<g>
			<path class="st0" d="M75.91,27.65h0.28v2.25h-0.28V27.65z M76.05,26.72c0.06,0,0.12,0.02,0.16,0.07c0.04,0.05,0.07,0.1,0.07,0.17
				c0,0.06-0.02,0.12-0.07,0.17c-0.05,0.05-0.1,0.07-0.16,0.07c-0.06,0-0.12-0.02-0.16-0.07c-0.04-0.05-0.07-0.1-0.07-0.17
				c0-0.07,0.02-0.12,0.07-0.17C75.93,26.75,75.99,26.72,76.05,26.72"/>
			<path class="st0" d="M77.83,27.87c-0.16,0-0.3,0.04-0.43,0.12c-0.13,0.08-0.24,0.19-0.31,0.33c-0.08,0.14-0.12,0.29-0.12,0.45
				c0,0.16,0.04,0.31,0.12,0.45c0.08,0.14,0.18,0.26,0.32,0.34c0.13,0.08,0.27,0.12,0.42,0.12c0.15,0,0.3-0.04,0.43-0.12
				c0.14-0.08,0.24-0.19,0.32-0.32c0.07-0.14,0.11-0.29,0.11-0.46c0-0.26-0.08-0.48-0.25-0.65C78.27,27.96,78.07,27.87,77.83,27.87
				 M78.94,27.65v3.07h-0.27v-1.21c-0.12,0.15-0.25,0.26-0.39,0.33c-0.15,0.07-0.3,0.11-0.48,0.11c-0.31,0-0.57-0.12-0.79-0.35
				c-0.22-0.23-0.33-0.51-0.33-0.84c0-0.32,0.11-0.6,0.33-0.83c0.22-0.23,0.48-0.34,0.79-0.34c0.18,0,0.34,0.04,0.48,0.12
				c0.14,0.08,0.27,0.2,0.38,0.35v-0.41H78.94z"/>
			<path class="st0" d="M79.55,27.65h0.28v1.05c0,0.26,0.01,0.43,0.04,0.53c0.04,0.14,0.12,0.25,0.23,0.33
				c0.11,0.08,0.25,0.12,0.4,0.12c0.16,0,0.29-0.04,0.4-0.12c0.11-0.08,0.18-0.18,0.23-0.31c0.03-0.09,0.04-0.27,0.04-0.55v-1.05
				h0.28v1.1c0,0.31-0.04,0.54-0.1,0.7c-0.07,0.16-0.17,0.28-0.31,0.37c-0.14,0.09-0.32,0.13-0.53,0.13c-0.21,0-0.39-0.04-0.53-0.13
				c-0.14-0.09-0.25-0.21-0.32-0.37c-0.07-0.16-0.1-0.4-0.1-0.72V27.65z"/>
			<path class="st0" d="M83.91,28.55c-0.04-0.15-0.09-0.28-0.16-0.37c-0.07-0.09-0.16-0.17-0.28-0.22
				c-0.12-0.06-0.24-0.08-0.37-0.08c-0.21,0-0.4,0.07-0.55,0.21c-0.11,0.1-0.2,0.26-0.25,0.46H83.91z M83.91,29.15l0.24,0.13
				c-0.08,0.16-0.17,0.28-0.27,0.38c-0.1,0.1-0.21,0.17-0.34,0.22c-0.13,0.05-0.27,0.08-0.43,0.08c-0.35,0-0.63-0.12-0.83-0.36
				c-0.2-0.24-0.3-0.51-0.3-0.81c0-0.29,0.08-0.54,0.25-0.76c0.21-0.28,0.5-0.43,0.86-0.43c0.37,0,0.66,0.15,0.88,0.44
				c0.16,0.21,0.24,0.46,0.24,0.77h-1.95c0.01,0.26,0.09,0.47,0.24,0.64c0.16,0.17,0.35,0.25,0.58,0.25c0.11,0,0.22-0.02,0.32-0.06
				c0.1-0.04,0.19-0.09,0.27-0.16C83.75,29.4,83.83,29.3,83.91,29.15"/>
		</g>
	</g>
	<g>
		<path class="st1" d="M13.28,36.37c-0.07-0.08-0.17-0.14-0.3-0.18c-0.13-0.04-0.29-0.06-0.49-0.06c-0.08,0-0.16,0.01-0.22,0.03
			c-0.06,0.02-0.11,0.04-0.16,0.08s-0.07,0.07-0.09,0.11c-0.02,0.04-0.03,0.08-0.03,0.12c0,0.04,0.01,0.09,0.03,0.13
			c0.02,0.04,0.05,0.08,0.09,0.11c0.04,0.03,0.09,0.06,0.15,0.08c0.06,0.02,0.13,0.03,0.21,0.03c0.04,0,0.08,0,0.12,0.01
			c0.04,0,0.07,0.01,0.1,0.03c0.03,0.02,0.05,0.04,0.07,0.08c0.02,0.04,0.02,0.08,0.02,0.15c0,0.05-0.01,0.1-0.02,0.16
			c-0.01,0.06-0.03,0.12-0.04,0.18c-0.24,0.16-0.5,0.28-0.77,0.37c-0.27,0.09-0.57,0.13-0.9,0.13c-0.17,0-0.33-0.03-0.47-0.08
			c-0.14-0.05-0.26-0.13-0.35-0.23c-0.1-0.1-0.17-0.24-0.22-0.39c-0.05-0.16-0.08-0.34-0.08-0.55c0-0.34,0.04-0.66,0.11-0.95
			c0.07-0.3,0.17-0.57,0.29-0.81c0.12-0.25,0.26-0.46,0.42-0.65c0.16-0.19,0.33-0.35,0.5-0.48c0.18-0.13,0.36-0.23,0.54-0.3
			c0.18-0.07,0.36-0.1,0.53-0.1c0.14,0,0.25,0.05,0.34,0.15c0.09,0.1,0.14,0.26,0.14,0.46c0,0.04-0.01,0.08-0.02,0.12
			c-0.01,0.04-0.03,0.08-0.04,0.12c-0.01,0.04-0.03,0.07-0.04,0.11c-0.01,0.04-0.02,0.08-0.02,0.11c0,0.05,0.01,0.1,0.02,0.14
			c0.02,0.05,0.04,0.09,0.06,0.13c0.03,0.04,0.06,0.07,0.1,0.09c0.04,0.02,0.08,0.03,0.12,0.03c0.06,0,0.11-0.02,0.18-0.06
			c0.06-0.04,0.13-0.11,0.19-0.21c0.05-0.09,0.08-0.17,0.1-0.26c0.02-0.09,0.03-0.17,0.03-0.26c0-0.22-0.03-0.41-0.09-0.57
			s-0.14-0.29-0.24-0.4c-0.1-0.11-0.23-0.18-0.37-0.23c-0.14-0.05-0.29-0.07-0.46-0.07c-0.27,0-0.53,0.04-0.8,0.13
			c-0.27,0.09-0.52,0.22-0.76,0.38c-0.24,0.16-0.47,0.36-0.68,0.59c-0.21,0.23-0.39,0.49-0.55,0.77s-0.28,0.59-0.36,0.93
			c-0.09,0.33-0.13,0.68-0.13,1.05c0,0.28,0.04,0.54,0.13,0.79c0.09,0.25,0.21,0.47,0.37,0.66c0.16,0.19,0.35,0.34,0.57,0.45
			c0.22,0.11,0.47,0.17,0.75,0.17c0.24,0,0.45-0.02,0.63-0.05c0.18-0.04,0.34-0.08,0.48-0.15c0.14-0.06,0.27-0.13,0.38-0.21
			c0.11-0.08,0.21-0.17,0.31-0.26c-0.05,0.2-0.11,0.39-0.17,0.59c-0.07,0.2-0.15,0.37-0.23,0.53c-0.08,0.16-0.17,0.29-0.27,0.39
			c-0.09,0.1-0.19,0.15-0.29,0.15c-0.09,0-0.17-0.01-0.24-0.03c-0.07-0.02-0.15-0.05-0.21-0.08c-0.07-0.03-0.13-0.05-0.2-0.08
			c-0.06-0.02-0.13-0.03-0.2-0.03c-0.06,0-0.11,0.02-0.15,0.05c-0.04,0.03-0.08,0.08-0.1,0.12c-0.03,0.05-0.05,0.1-0.06,0.15
			c-0.01,0.05-0.02,0.09-0.02,0.12c0,0.06,0.02,0.11,0.05,0.16c0.03,0.05,0.08,0.09,0.14,0.12c0.06,0.03,0.12,0.06,0.19,0.09
			c0.07,0.02,0.14,0.04,0.21,0.06c0.07,0.01,0.14,0.02,0.21,0.03c0.07,0.01,0.12,0.01,0.17,0.01c0.26,0,0.48-0.05,0.68-0.15
			c0.2-0.1,0.37-0.23,0.52-0.4s0.27-0.36,0.38-0.58c0.1-0.22,0.18-0.45,0.25-0.7c0.06-0.25,0.11-0.5,0.13-0.76s0.04-0.51,0.04-0.74
			c0-0.15-0.01-0.28-0.04-0.4S13.35,36.45,13.28,36.37z"/>
		<path class="st1" d="M26.92,34.76c0.1,0,0.19-0.02,0.27-0.05c0.08-0.03,0.14-0.07,0.19-0.12c0.05-0.05,0.09-0.11,0.11-0.18
			c0.02-0.07,0.03-0.13,0.03-0.2c0-0.08-0.01-0.14-0.04-0.2c-0.03-0.06-0.07-0.1-0.11-0.13c-0.05-0.03-0.1-0.06-0.17-0.08
			c-0.06-0.02-0.13-0.02-0.2-0.02c-0.12,0-0.21,0.02-0.29,0.05c-0.08,0.04-0.14,0.08-0.19,0.13c-0.05,0.05-0.08,0.11-0.1,0.17
			c-0.02,0.06-0.03,0.11-0.03,0.16c0,0.14,0.04,0.26,0.13,0.34C26.6,34.71,26.73,34.76,26.92,34.76z"/>
		<path class="st1" d="M30.13,36.47c-0.1,0.04-0.19,0.06-0.29,0.06c-0.03,0-0.06-0.01-0.09-0.02c-0.03-0.01-0.06-0.03-0.08-0.06
			c-0.02-0.03-0.04-0.07-0.06-0.12c-0.01-0.05-0.02-0.11-0.02-0.19c0-0.04,0.01-0.1,0.02-0.16c0.01-0.06,0.02-0.13,0.03-0.2
			c0.01-0.07,0.02-0.13,0.03-0.2c0.01-0.06,0.02-0.11,0.02-0.15c0-0.05-0.01-0.09-0.02-0.12c-0.02-0.04-0.04-0.07-0.07-0.09
			c-0.03-0.02-0.06-0.04-0.1-0.06c-0.04-0.01-0.08-0.02-0.11-0.02c-0.11,0-0.21,0.03-0.3,0.09c-0.09,0.06-0.16,0.14-0.23,0.22
			s-0.13,0.18-0.18,0.29c-0.05,0.1-0.1,0.19-0.14,0.28H28.5c0-0.1-0.01-0.21-0.01-0.32c0-0.11,0-0.2,0-0.28c0-0.06,0-0.11,0-0.15
			c0-0.04-0.01-0.07-0.03-0.08c-0.01-0.02-0.04-0.03-0.07-0.04c-0.03-0.01-0.07-0.01-0.13-0.01c-0.05,0-0.09,0-0.12,0.01
			c-0.03,0.01-0.06,0.02-0.08,0.03c-0.02,0.02-0.04,0.04-0.06,0.06c-0.02,0.03-0.03,0.06-0.05,0.11c-0.03,0.07-0.05,0.15-0.08,0.26
			c-0.03,0.1-0.05,0.22-0.08,0.35c-0.03,0.13-0.05,0.26-0.08,0.4c-0.02,0.14-0.04,0.28-0.06,0.41c-0.01,0.05-0.01,0.1-0.02,0.16
			c-0.04,0.03-0.08,0.07-0.12,0.1c-0.09,0.08-0.18,0.15-0.27,0.23c-0.09,0.07-0.18,0.14-0.27,0.19c-0.09,0.05-0.17,0.08-0.25,0.08
			c-0.06,0-0.11-0.03-0.13-0.08c-0.02-0.05-0.03-0.13-0.03-0.22c0-0.09,0.01-0.2,0.03-0.32c0.02-0.12,0.05-0.24,0.08-0.36
			c0.03-0.12,0.06-0.25,0.1-0.37c0.03-0.12,0.07-0.24,0.1-0.35c0.03-0.11,0.06-0.2,0.08-0.29s0.03-0.15,0.03-0.2
			c0-0.05-0.02-0.1-0.05-0.13c-0.03-0.03-0.09-0.05-0.18-0.05c-0.05,0-0.1,0.01-0.16,0.02c-0.06,0.01-0.12,0.03-0.17,0.05
			c-0.05,0.02-0.1,0.05-0.15,0.09c-0.04,0.04-0.07,0.08-0.09,0.14c-0.04,0.15-0.08,0.32-0.13,0.51c-0.05,0.18-0.09,0.37-0.14,0.55
			c-0.03,0.11-0.04,0.21-0.06,0.31c-0.11,0.1-0.22,0.18-0.33,0.26c-0.05,0.04-0.1,0.07-0.15,0.1c-0.05,0.03-0.1,0.06-0.16,0.09
			c-0.05,0.03-0.1,0.05-0.15,0.06c-0.05,0.02-0.09,0.02-0.13,0.02c-0.04,0-0.08-0.01-0.1-0.04c-0.03-0.02-0.05-0.06-0.07-0.1
			s-0.03-0.09-0.04-0.14c-0.01-0.05-0.01-0.11-0.01-0.17c0-0.05,0-0.1,0.01-0.15c0.01-0.05,0.01-0.1,0.02-0.15
			c0.01-0.05,0.02-0.09,0.03-0.13c0.01-0.04,0.02-0.08,0.03-0.11c0.11-0.26,0.22-0.51,0.33-0.75c0.11-0.24,0.22-0.48,0.31-0.73
			c0.1-0.25,0.18-0.5,0.25-0.75c0.07-0.26,0.12-0.53,0.15-0.82c0.01-0.08,0.01-0.15,0.01-0.22c0-0.12-0.01-0.23-0.03-0.34
			c-0.02-0.11-0.05-0.21-0.09-0.29c-0.04-0.08-0.1-0.15-0.17-0.2c-0.07-0.05-0.15-0.08-0.25-0.08c-0.13,0-0.26,0.04-0.38,0.12
			c-0.12,0.08-0.24,0.19-0.35,0.34c-0.11,0.14-0.21,0.31-0.3,0.51c-0.09,0.2-0.17,0.41-0.24,0.65s-0.12,0.48-0.16,0.73
			c-0.04,0.26-0.06,0.52-0.07,0.78c-0.16,0.01-0.3,0.05-0.44,0.11c-0.14,0.06-0.27,0.13-0.38,0.22c-0.12,0.09-0.22,0.19-0.31,0.3
			c-0.09,0.11-0.17,0.23-0.24,0.36c-0.06,0.13-0.11,0.26-0.15,0.39s-0.05,0.27-0.05,0.4c0,0.03,0,0.05,0.01,0.08
			c-0.02,0.01-0.03,0.03-0.05,0.04c-0.05,0.04-0.1,0.07-0.14,0.1c-0.05,0.03-0.09,0.05-0.13,0.07c-0.04,0.02-0.08,0.03-0.11,0.03
			c-0.07,0-0.12-0.04-0.15-0.12c-0.03-0.08-0.05-0.19-0.05-0.31c0-0.08,0-0.16,0.01-0.25c0.01-0.09,0.02-0.18,0.04-0.27
			c0.01-0.09,0.03-0.18,0.05-0.27c0.02-0.09,0.03-0.17,0.05-0.24c0.01-0.07,0.03-0.14,0.04-0.19c0.01-0.05,0.01-0.09,0.01-0.11
			c0-0.15-0.03-0.27-0.09-0.36c-0.06-0.09-0.14-0.13-0.25-0.13c-0.1,0-0.2,0.02-0.28,0.06c-0.08,0.04-0.16,0.12-0.23,0.23
			c-0.01,0.02-0.04,0.06-0.06,0.11c-0.03,0.05-0.06,0.11-0.1,0.18c-0.04,0.07-0.07,0.14-0.11,0.21c-0.04,0.07-0.08,0.14-0.11,0.21
			c-0.03,0.07-0.07,0.12-0.09,0.17s-0.05,0.09-0.06,0.11h-0.06c0-0.01,0-0.04,0.01-0.08c0.01-0.04,0.01-0.09,0.02-0.15
			c0.01-0.06,0.02-0.12,0.03-0.19c0.01-0.07,0.02-0.13,0.03-0.19c0.01-0.06,0.02-0.12,0.02-0.17c0.01-0.05,0.01-0.09,0.01-0.12
			c0-0.11-0.02-0.2-0.06-0.27c-0.04-0.07-0.12-0.1-0.23-0.1c-0.11,0-0.2,0.03-0.26,0.1c-0.06,0.06-0.11,0.14-0.13,0.24
			c-0.03,0.12-0.06,0.27-0.09,0.44c-0.03,0.17-0.06,0.35-0.08,0.53c-0.02,0.12-0.03,0.24-0.04,0.36c-0.07,0.08-0.13,0.17-0.2,0.24
			c-0.04,0.05-0.09,0.09-0.14,0.14c-0.05,0.04-0.1,0.08-0.15,0.12c-0.05,0.04-0.1,0.06-0.14,0.08c-0.05,0.02-0.09,0.03-0.14,0.03
			c-0.06,0-0.1-0.03-0.11-0.08c-0.02-0.05-0.03-0.13-0.03-0.23c0-0.11,0.01-0.23,0.03-0.36c0.02-0.13,0.04-0.25,0.07-0.38
			c0.02-0.13,0.05-0.25,0.07-0.37c0.02-0.12,0.03-0.23,0.03-0.33c0-0.06-0.01-0.11-0.02-0.15c-0.01-0.04-0.03-0.07-0.05-0.09
			c-0.02-0.02-0.04-0.03-0.07-0.04c-0.03-0.01-0.06-0.01-0.09-0.01c-0.02,0-0.05,0-0.07,0c-0.02,0-0.05,0-0.07,0
			c-0.03,0-0.05,0-0.08,0c-0.03,0-0.05-0.01-0.08-0.02c-0.02-0.01-0.05-0.03-0.06-0.05c-0.02-0.02-0.03-0.05-0.05-0.07
			c-0.02-0.02-0.04-0.04-0.07-0.06c-0.03-0.02-0.06-0.03-0.11-0.03c-0.14,0-0.28,0.03-0.42,0.09c-0.14,0.06-0.27,0.14-0.39,0.25
			c-0.12,0.1-0.24,0.22-0.34,0.36c-0.1,0.14-0.19,0.28-0.27,0.44c-0.01,0.02-0.02,0.04-0.02,0.06c-0.07,0.04-0.15,0.09-0.24,0.12
			c-0.1,0.04-0.19,0.06-0.29,0.06c-0.03,0-0.06-0.01-0.09-0.02c-0.03-0.01-0.06-0.03-0.08-0.06c-0.02-0.03-0.04-0.07-0.06-0.12
			c-0.01-0.05-0.02-0.11-0.02-0.19c0-0.04,0.01-0.1,0.02-0.16c0.01-0.06,0.02-0.13,0.03-0.2c0.01-0.07,0.02-0.13,0.03-0.2
			c0.01-0.06,0.02-0.11,0.02-0.15c0-0.05-0.01-0.09-0.02-0.12c-0.02-0.04-0.04-0.07-0.07-0.09c-0.03-0.02-0.06-0.04-0.1-0.06
			c-0.04-0.01-0.08-0.02-0.11-0.02c-0.11,0-0.21,0.03-0.3,0.09c-0.09,0.06-0.16,0.14-0.23,0.22s-0.13,0.18-0.18,0.29
			c-0.05,0.1-0.1,0.19-0.14,0.28h-0.03c0-0.1-0.01-0.21-0.01-0.32c0-0.11,0-0.2,0-0.28c0-0.06,0-0.11,0-0.15
			c0-0.04-0.01-0.07-0.03-0.08c-0.01-0.02-0.04-0.03-0.07-0.04c-0.03-0.01-0.07-0.01-0.13-0.01c-0.05,0-0.09,0-0.12,0.01
			c-0.03,0.01-0.06,0.02-0.08,0.03c-0.02,0.02-0.04,0.04-0.06,0.06c-0.02,0.03-0.03,0.06-0.05,0.11c-0.03,0.07-0.05,0.15-0.08,0.26
			c-0.03,0.1-0.05,0.22-0.08,0.35c-0.03,0.13-0.05,0.26-0.08,0.4c-0.02,0.14-0.04,0.28-0.06,0.41c-0.02,0.13-0.03,0.26-0.04,0.38
			c-0.01,0.12-0.02,0.23-0.02,0.32c0,0.08,0,0.16,0.01,0.24c0.01,0.08,0.03,0.15,0.06,0.21c0.03,0.06,0.07,0.11,0.12,0.15
			c0.05,0.04,0.12,0.05,0.2,0.05c0.04,0,0.07-0.01,0.1-0.02c0.03-0.01,0.06-0.04,0.09-0.07c0.03-0.03,0.05-0.08,0.08-0.13
			c0.03-0.05,0.05-0.12,0.08-0.2l0.55-1.54h0.05c0.02,0.13,0.04,0.26,0.06,0.38c0.03,0.13,0.07,0.24,0.12,0.34
			c0.06,0.1,0.13,0.18,0.23,0.25c0.09,0.06,0.22,0.09,0.37,0.09c0.09,0,0.17-0.01,0.25-0.04c0.05-0.02,0.1-0.04,0.16-0.06
			c0,0.04-0.01,0.08-0.01,0.12c0,0.14,0.02,0.26,0.06,0.37c0.04,0.11,0.1,0.2,0.17,0.27c0.07,0.08,0.15,0.13,0.25,0.17
			c0.09,0.04,0.19,0.06,0.29,0.06c0.09,0,0.19-0.02,0.28-0.05c0.09-0.03,0.18-0.07,0.27-0.12c0.09-0.05,0.16-0.1,0.24-0.16
			c0.07-0.06,0.13-0.12,0.18-0.18c0.07,0.17,0.14,0.29,0.23,0.38c0.09,0.09,0.2,0.13,0.34,0.13c0.11,0,0.23-0.03,0.34-0.08
			c0.11-0.06,0.22-0.12,0.32-0.2c0.06-0.05,0.12-0.1,0.17-0.15c0,0.01,0,0.01,0,0.02c0.01,0.08,0.03,0.15,0.06,0.21
			c0.03,0.06,0.07,0.11,0.12,0.15c0.05,0.04,0.12,0.05,0.2,0.05c0.07,0,0.13-0.02,0.18-0.05s0.1-0.09,0.14-0.17l0.81-1.61h0.05
			c-0.02,0.16-0.05,0.32-0.06,0.46c-0.02,0.14-0.02,0.28-0.02,0.4c0,0.31,0.04,0.55,0.12,0.72c0.08,0.16,0.17,0.25,0.29,0.25
			c0.11,0,0.22-0.02,0.32-0.05c0.1-0.03,0.2-0.07,0.3-0.12s0.19-0.11,0.27-0.17c0.02-0.02,0.05-0.03,0.07-0.05
			c0.01,0.03,0.03,0.05,0.04,0.08c0.06,0.1,0.15,0.17,0.24,0.23c0.1,0.06,0.21,0.09,0.35,0.09c0.09,0,0.19-0.01,0.28-0.04
			c0.09-0.03,0.19-0.07,0.28-0.12c0.09-0.05,0.18-0.11,0.27-0.17c0.09-0.07,0.17-0.14,0.24-0.21c0.05,0.12,0.11,0.22,0.17,0.29
			c0.07,0.07,0.13,0.13,0.2,0.17c0.07,0.04,0.13,0.06,0.19,0.08c0.06,0.01,0.1,0.02,0.13,0.02c0.05,0,0.11-0.01,0.17-0.03
			s0.12-0.04,0.19-0.07c0.06-0.03,0.13-0.06,0.19-0.1c0.07-0.04,0.13-0.07,0.19-0.11c0.08-0.05,0.16-0.1,0.24-0.16
			c0,0.03,0.01,0.06,0.02,0.09c0.02,0.08,0.05,0.14,0.1,0.2c0.05,0.05,0.1,0.1,0.18,0.12c0.07,0.03,0.16,0.04,0.27,0.04
			c0.12,0,0.25-0.02,0.38-0.06c0.13-0.04,0.26-0.1,0.39-0.16c0.13-0.06,0.25-0.14,0.36-0.21c0.05-0.03,0.09-0.06,0.13-0.09
			c0,0.04,0,0.09,0.01,0.13c0.01,0.08,0.03,0.15,0.06,0.21c0.03,0.06,0.07,0.11,0.12,0.15c0.05,0.04,0.12,0.05,0.2,0.05
			c0.04,0,0.07-0.01,0.1-0.02c0.03-0.01,0.06-0.04,0.09-0.07c0.03-0.03,0.05-0.08,0.08-0.13c0.03-0.05,0.05-0.12,0.08-0.2l0.55-1.54
			h0.05c0.02,0.13,0.04,0.26,0.06,0.38c0.03,0.13,0.07,0.24,0.12,0.34c0.06,0.1,0.13,0.18,0.23,0.25c0.09,0.06,0.22,0.09,0.37,0.09
			c0.09,0,0.17-0.01,0.25-0.04c0.08-0.03,0.16-0.06,0.24-0.1c0.08-0.04,0.15-0.08,0.22-0.12c0.07-0.04,0.13-0.08,0.18-0.12
			l0.05-0.72c-0.09,0.08-0.19,0.14-0.28,0.2C30.31,36.39,30.22,36.43,30.13,36.47z M18.03,36.65c-0.01,0.07-0.03,0.15-0.05,0.25
			c-0.03,0.1-0.06,0.19-0.11,0.29c-0.05,0.09-0.1,0.17-0.16,0.24c-0.06,0.07-0.13,0.1-0.21,0.1c-0.05,0-0.09-0.01-0.12-0.04
			c-0.03-0.02-0.06-0.05-0.07-0.09c-0.02-0.04-0.03-0.08-0.04-0.13c-0.01-0.05-0.01-0.1-0.01-0.15c0-0.09,0.01-0.19,0.04-0.29
			c0.02-0.1,0.06-0.21,0.1-0.31c0.04-0.1,0.09-0.2,0.15-0.29c0.06-0.09,0.13-0.17,0.2-0.25c0.07-0.07,0.15-0.13,0.23-0.17
			s0.16-0.06,0.25-0.06L18.03,36.65z M23.76,37.14c-0.02,0.04-0.05,0.08-0.08,0.12c-0.03,0.04-0.06,0.07-0.09,0.1
			c-0.03,0.03-0.07,0.05-0.1,0.07c-0.04,0.02-0.07,0.03-0.11,0.03c-0.07,0-0.13-0.01-0.18-0.03c-0.05-0.02-0.08-0.05-0.1-0.08
			c-0.02-0.03-0.04-0.07-0.05-0.11c-0.01-0.04-0.01-0.08-0.01-0.12c0-0.1,0.02-0.22,0.06-0.35c0.04-0.13,0.09-0.25,0.16-0.38
			c0.07-0.13,0.16-0.24,0.27-0.35c0.11-0.11,0.23-0.2,0.36-0.26c0,0,0,0.02,0.01,0.06s0,0.1,0,0.17c0,0.07,0,0.14,0,0.23
			c0,0.08,0,0.16,0.01,0.24c0,0.08,0.01,0.15,0.01,0.21c0,0.06,0.01,0.11,0.02,0.14C23.87,36.94,23.82,37.05,23.76,37.14z
			 M24.61,35.79v-0.03c0-0.03,0-0.08,0-0.13s0-0.12,0-0.2c0-0.08,0.01-0.16,0.01-0.26c0.01-0.09,0.01-0.19,0.02-0.29
			c0-0.05,0.01-0.13,0.02-0.25c0.01-0.12,0.03-0.25,0.05-0.4c0.02-0.15,0.05-0.3,0.08-0.45c0.03-0.16,0.07-0.3,0.11-0.43
			c0.04-0.13,0.09-0.24,0.14-0.32c0.05-0.08,0.11-0.12,0.18-0.12c0.04,0,0.07,0.02,0.08,0.06c0.02,0.04,0.03,0.12,0.03,0.23
			c0,0.08-0.01,0.2-0.02,0.34c-0.01,0.11-0.03,0.22-0.05,0.35c-0.03,0.12-0.06,0.25-0.09,0.37c-0.04,0.13-0.07,0.25-0.12,0.38
			c-0.04,0.12-0.08,0.24-0.13,0.36C24.84,35.26,24.73,35.52,24.61,35.79z"/>
		<path class="st1" d="M37.37,37.1c-0.05,0.04-0.1,0.08-0.14,0.12c-0.05,0.04-0.1,0.07-0.14,0.1S37,37.38,36.96,37.4
			c-0.04,0.02-0.08,0.03-0.11,0.03c-0.07,0-0.12-0.04-0.15-0.12c-0.03-0.08-0.05-0.19-0.05-0.31c0-0.08,0-0.16,0.01-0.25
			c0.01-0.09,0.02-0.18,0.04-0.27c0.01-0.09,0.03-0.18,0.05-0.27c0.02-0.09,0.03-0.17,0.05-0.24c0.01-0.07,0.03-0.14,0.04-0.19
			c0.01-0.05,0.01-0.09,0.01-0.11c0-0.15-0.03-0.27-0.09-0.36c-0.06-0.09-0.14-0.13-0.25-0.13c-0.1,0-0.2,0.02-0.28,0.06
			c-0.08,0.04-0.16,0.12-0.23,0.23c-0.01,0.02-0.04,0.06-0.06,0.11c-0.03,0.05-0.06,0.11-0.1,0.18c-0.04,0.07-0.07,0.14-0.11,0.21
			c-0.04,0.07-0.08,0.14-0.11,0.21c-0.03,0.07-0.07,0.12-0.09,0.17c-0.03,0.05-0.05,0.09-0.06,0.11h-0.06c0-0.01,0-0.04,0.01-0.08
			c0.01-0.04,0.01-0.09,0.02-0.15c0.01-0.06,0.02-0.12,0.03-0.19c0.01-0.07,0.02-0.13,0.03-0.19c0.01-0.06,0.02-0.12,0.02-0.17
			c0.01-0.05,0.01-0.09,0.01-0.12c0-0.11-0.02-0.2-0.06-0.27c-0.04-0.07-0.12-0.1-0.23-0.1c-0.11,0-0.2,0.03-0.26,0.1
			c-0.06,0.06-0.11,0.14-0.13,0.24c-0.03,0.12-0.06,0.27-0.09,0.44c-0.03,0.17-0.06,0.35-0.08,0.53c-0.01,0.09-0.02,0.17-0.03,0.26
			l-0.01-0.01c-0.08,0.08-0.18,0.16-0.29,0.25c-0.12,0.09-0.24,0.17-0.37,0.24c-0.13,0.07-0.26,0.14-0.4,0.19
			c-0.14,0.05-0.27,0.07-0.39,0.07c-0.04,0-0.08,0-0.11-0.01c-0.03-0.01-0.07-0.02-0.1-0.04c-0.03-0.02-0.06-0.05-0.09-0.09
			c-0.03-0.04-0.06-0.08-0.09-0.14c0.18-0.05,0.35-0.12,0.5-0.21c0.15-0.09,0.29-0.19,0.4-0.3c0.11-0.11,0.2-0.23,0.26-0.36
			c0.06-0.13,0.09-0.26,0.09-0.38c0-0.12-0.02-0.22-0.06-0.32c-0.04-0.09-0.1-0.18-0.17-0.24s-0.16-0.12-0.26-0.16
			c-0.1-0.04-0.21-0.06-0.32-0.06c-0.14,0-0.27,0.03-0.39,0.08c-0.12,0.05-0.22,0.12-0.31,0.2c-0.09,0.09-0.18,0.18-0.25,0.3
			c-0.07,0.11-0.13,0.23-0.17,0.35c-0.05,0.12-0.08,0.25-0.1,0.38c-0.02,0.13-0.03,0.25-0.03,0.37c0,0.17,0.02,0.33,0.07,0.49
			c0.05,0.16,0.12,0.29,0.22,0.41c0.1,0.12,0.22,0.21,0.36,0.28c0.15,0.07,0.31,0.11,0.51,0.11c0.12,0,0.25-0.01,0.37-0.04
			c0.12-0.03,0.24-0.06,0.35-0.11s0.22-0.1,0.32-0.16c0.1-0.06,0.2-0.12,0.29-0.18c0.04-0.03,0.09-0.07,0.13-0.1
			c0,0.06,0,0.13,0.01,0.19c0.01,0.08,0.03,0.15,0.06,0.21c0.03,0.06,0.07,0.11,0.12,0.15c0.05,0.04,0.12,0.05,0.2,0.05
			c0.07,0,0.13-0.02,0.18-0.05c0.05-0.03,0.1-0.09,0.14-0.17l0.81-1.61h0.05c-0.02,0.16-0.05,0.32-0.06,0.46
			c-0.02,0.14-0.02,0.28-0.02,0.4c0,0.31,0.04,0.55,0.12,0.72c0.08,0.16,0.17,0.25,0.29,0.25c0.11,0,0.22-0.02,0.32-0.05
			c0.1-0.03,0.2-0.07,0.3-0.12s0.19-0.11,0.27-0.17c0.09-0.06,0.17-0.13,0.26-0.19l0.15-0.12l-0.05-0.69
			C37.6,36.9,37.48,37,37.37,37.1z M32.72,36.5c0-0.06,0.01-0.13,0.03-0.2s0.03-0.14,0.06-0.2c0.03-0.07,0.06-0.13,0.1-0.18
			c0.04-0.05,0.09-0.1,0.16-0.13c0.06-0.03,0.14-0.05,0.23-0.05c0.05,0,0.09,0.03,0.13,0.09c0.03,0.06,0.05,0.14,0.05,0.23
			c0,0.07-0.03,0.13-0.08,0.2c-0.05,0.07-0.11,0.13-0.19,0.19c-0.08,0.06-0.16,0.11-0.24,0.15c-0.09,0.04-0.17,0.06-0.24,0.06
			C32.72,36.62,32.72,36.57,32.72,36.5z"/>
		<path class="st1" d="M43.6,34.76c0.1,0,0.19-0.02,0.27-0.05c0.08-0.03,0.14-0.07,0.19-0.12c0.05-0.05,0.09-0.11,0.11-0.18
			c0.02-0.07,0.03-0.13,0.03-0.2c0-0.08-0.01-0.14-0.04-0.2c-0.03-0.06-0.07-0.1-0.11-0.13c-0.05-0.03-0.1-0.06-0.17-0.08
			c-0.06-0.02-0.13-0.02-0.2-0.02c-0.12,0-0.21,0.02-0.29,0.05c-0.08,0.04-0.14,0.08-0.19,0.13c-0.05,0.05-0.08,0.11-0.1,0.17
			c-0.02,0.06-0.03,0.11-0.03,0.16c0,0.14,0.04,0.26,0.13,0.34C43.29,34.71,43.42,34.76,43.6,34.76z"/>
		<path class="st1" d="M56.08,36.96c-0.12,0.09-0.24,0.17-0.37,0.24c-0.13,0.07-0.26,0.14-0.4,0.19c-0.14,0.05-0.27,0.07-0.39,0.07
			c-0.04,0-0.08,0-0.11-0.01c-0.03-0.01-0.07-0.02-0.1-0.04c-0.03-0.02-0.06-0.05-0.09-0.09c-0.03-0.04-0.06-0.08-0.09-0.14
			c0.18-0.05,0.35-0.12,0.5-0.21c0.15-0.09,0.29-0.19,0.4-0.3c0.11-0.11,0.2-0.23,0.26-0.36c0.06-0.13,0.09-0.26,0.09-0.38
			c0-0.12-0.02-0.22-0.06-0.32c-0.04-0.09-0.1-0.18-0.17-0.24c-0.07-0.07-0.16-0.12-0.26-0.16c-0.1-0.04-0.21-0.06-0.32-0.06
			c-0.14,0-0.27,0.03-0.39,0.08c-0.12,0.05-0.22,0.12-0.31,0.2c-0.09,0.09-0.18,0.18-0.25,0.3c-0.07,0.11-0.13,0.23-0.17,0.35
			c-0.05,0.12-0.08,0.25-0.1,0.38c-0.02,0.13-0.03,0.25-0.03,0.37c0,0.07,0.01,0.13,0.01,0.19c-0.04,0.05-0.08,0.1-0.11,0.14
			c-0.11,0.13-0.21,0.24-0.3,0.33c-0.09,0.09-0.17,0.16-0.24,0.21c-0.07,0.05-0.14,0.09-0.2,0.13c0.06-0.32,0.1-0.63,0.15-0.91
			c0.02-0.12,0.04-0.24,0.05-0.37c0.02-0.12,0.03-0.24,0.05-0.35c0.01-0.11,0.03-0.21,0.03-0.3c0.01-0.09,0.01-0.16,0.01-0.22
			c0-0.06-0.01-0.11-0.02-0.15c-0.01-0.04-0.03-0.07-0.05-0.09c-0.02-0.02-0.04-0.03-0.07-0.04c-0.03-0.01-0.06-0.01-0.09-0.01
			c-0.02,0-0.05,0-0.07,0c-0.02,0-0.05,0-0.07,0c-0.03,0-0.05,0-0.08,0c-0.03,0-0.05-0.01-0.08-0.02c-0.02-0.01-0.05-0.03-0.06-0.05
			c-0.02-0.02-0.03-0.05-0.05-0.07c-0.02-0.02-0.04-0.04-0.07-0.06c-0.03-0.02-0.06-0.03-0.11-0.03c-0.14,0-0.28,0.03-0.42,0.09
			s-0.27,0.14-0.39,0.25c-0.12,0.1-0.24,0.22-0.34,0.36c-0.1,0.14-0.19,0.28-0.27,0.44c-0.08,0.16-0.14,0.31-0.18,0.48
			c-0.03,0.11-0.04,0.21-0.05,0.31c-0.03,0.04-0.07,0.07-0.1,0.1c-0.05,0.04-0.1,0.08-0.15,0.12c-0.05,0.04-0.1,0.06-0.14,0.08
			s-0.09,0.03-0.14,0.03c-0.06,0-0.1-0.03-0.11-0.08s-0.03-0.13-0.03-0.23c0-0.11,0.01-0.23,0.03-0.36
			c0.02-0.13,0.04-0.25,0.07-0.38c0.02-0.13,0.05-0.25,0.07-0.37c0.02-0.12,0.03-0.23,0.03-0.33c0-0.06-0.01-0.11-0.02-0.15
			c-0.01-0.04-0.03-0.07-0.05-0.09c-0.02-0.02-0.04-0.03-0.07-0.04c-0.03-0.01-0.06-0.01-0.09-0.01c-0.02,0-0.05,0-0.07,0
			c-0.02,0-0.05,0-0.07,0c-0.03,0-0.05,0-0.08,0c-0.03,0-0.05-0.01-0.08-0.02c-0.02-0.01-0.05-0.03-0.06-0.05
			c-0.02-0.02-0.03-0.05-0.05-0.07c-0.02-0.02-0.04-0.04-0.07-0.06c-0.03-0.02-0.06-0.03-0.11-0.03c-0.14,0-0.28,0.03-0.42,0.09
			s-0.27,0.14-0.39,0.25c-0.12,0.1-0.24,0.22-0.34,0.36c-0.1,0.14-0.19,0.28-0.27,0.44c-0.08,0.16-0.14,0.31-0.18,0.48
			c-0.02,0.07-0.03,0.14-0.04,0.2c-0.04,0.03-0.09,0.06-0.13,0.09c-0.06,0.04-0.11,0.07-0.17,0.11c-0.06,0.04-0.12,0.07-0.17,0.1
			c-0.06,0.03-0.11,0.05-0.16,0.07c-0.05,0.02-0.1,0.02-0.13,0.02c-0.02,0-0.03-0.01-0.05-0.04c-0.02-0.02-0.04-0.06-0.05-0.1
			c-0.02-0.04-0.03-0.09-0.04-0.14s-0.02-0.1-0.02-0.16V36.9c0.01-0.04,0.01-0.08,0.02-0.13c0.01-0.04,0.02-0.08,0.03-0.12
			c0.01-0.04,0.02-0.07,0.03-0.11c0.01-0.03,0.02-0.06,0.03-0.08c0.09-0.19,0.2-0.38,0.3-0.57c0.11-0.19,0.22-0.39,0.32-0.59
			c0.11-0.2,0.21-0.4,0.31-0.61c0.1-0.2,0.19-0.41,0.26-0.61c0.08-0.2,0.13-0.4,0.18-0.61c0.04-0.2,0.07-0.4,0.07-0.59
			c0-0.09-0.01-0.17-0.02-0.25c-0.01-0.08-0.04-0.16-0.07-0.22c-0.03-0.07-0.08-0.12-0.14-0.16c-0.06-0.04-0.13-0.06-0.22-0.06
			c-0.13,0-0.26,0.04-0.38,0.12c-0.13,0.08-0.25,0.19-0.36,0.32c-0.12,0.14-0.23,0.3-0.33,0.48c-0.1,0.18-0.2,0.38-0.29,0.59
			c-0.09,0.21-0.17,0.43-0.24,0.66c-0.07,0.23-0.13,0.46-0.18,0.69c-0.05,0.23-0.09,0.45-0.12,0.67c-0.03,0.22-0.04,0.41-0.04,0.6
			c0,0.2,0.02,0.39,0.04,0.57c-0.08,0.06-0.17,0.12-0.25,0.18c-0.06,0.04-0.11,0.07-0.17,0.11c-0.06,0.04-0.12,0.07-0.17,0.1
			c-0.06,0.03-0.11,0.05-0.16,0.07c-0.05,0.02-0.1,0.02-0.13,0.02c-0.02,0-0.03-0.01-0.05-0.04c-0.02-0.02-0.04-0.06-0.05-0.1
			c-0.02-0.04-0.03-0.09-0.04-0.14c-0.01-0.05-0.02-0.1-0.02-0.16V36.9c0.01-0.04,0.01-0.08,0.02-0.13
			c0.01-0.04,0.02-0.08,0.03-0.12c0.01-0.04,0.02-0.07,0.03-0.11c0.01-0.03,0.02-0.06,0.03-0.08c0.09-0.19,0.2-0.38,0.3-0.57
			c0.11-0.19,0.22-0.39,0.32-0.59c0.11-0.2,0.21-0.4,0.31-0.61c0.1-0.2,0.19-0.41,0.26-0.61c0.08-0.2,0.13-0.4,0.18-0.61
			c0.04-0.2,0.07-0.4,0.07-0.59c0-0.09-0.01-0.17-0.02-0.25c-0.01-0.08-0.04-0.16-0.07-0.22c-0.03-0.07-0.08-0.12-0.14-0.16
			c-0.06-0.04-0.13-0.06-0.22-0.06c-0.13,0-0.26,0.04-0.38,0.12c-0.13,0.08-0.25,0.19-0.36,0.32c-0.12,0.14-0.23,0.3-0.33,0.48
			c-0.1,0.18-0.2,0.38-0.29,0.59c-0.09,0.21-0.17,0.43-0.24,0.66c-0.07,0.23-0.13,0.46-0.18,0.69c-0.05,0.23-0.09,0.45-0.12,0.67
			c-0.03,0.22-0.04,0.41-0.04,0.6c0,0.24,0.02,0.46,0.06,0.68c-0.01,0.01-0.03,0.02-0.04,0.03c-0.09,0.08-0.18,0.15-0.27,0.23
			c-0.09,0.07-0.18,0.14-0.27,0.19c-0.09,0.05-0.17,0.08-0.25,0.08c-0.06,0-0.11-0.03-0.13-0.08c-0.02-0.05-0.03-0.13-0.03-0.22
			c0-0.09,0.01-0.2,0.03-0.32c0.02-0.12,0.05-0.24,0.08-0.36c0.03-0.12,0.06-0.25,0.1-0.37s0.07-0.24,0.1-0.35
			c0.03-0.11,0.06-0.2,0.08-0.29s0.03-0.15,0.03-0.2c0-0.05-0.02-0.1-0.05-0.13c-0.03-0.03-0.09-0.05-0.18-0.05
			c-0.05,0-0.1,0.01-0.16,0.02c-0.06,0.01-0.12,0.03-0.17,0.05c-0.05,0.02-0.1,0.05-0.15,0.09c-0.04,0.04-0.07,0.08-0.09,0.14
			c-0.04,0.15-0.08,0.32-0.13,0.51c-0.05,0.18-0.09,0.37-0.14,0.55c-0.04,0.16-0.07,0.32-0.1,0.47c-0.01,0.01-0.01,0.01-0.02,0.02
			c-0.05,0.03-0.09,0.06-0.13,0.08c-0.04,0.02-0.08,0.04-0.13,0.06c-0.04,0.01-0.08,0.02-0.11,0.02c-0.14,0-0.26-0.02-0.36-0.05
			c-0.1-0.03-0.18-0.08-0.25-0.14c-0.06-0.06-0.11-0.12-0.14-0.2c-0.03-0.07-0.05-0.15-0.05-0.23c0-0.05,0.01-0.1,0.02-0.15
			c0.01-0.05,0.03-0.1,0.06-0.15c0.09-0.16,0.18-0.33,0.27-0.51c0.1-0.18,0.19-0.36,0.28-0.54c0.09-0.18,0.18-0.36,0.27-0.54
			s0.16-0.34,0.23-0.5c0.06-0.15,0.12-0.29,0.16-0.42c0.04-0.12,0.06-0.22,0.06-0.3c0-0.11-0.02-0.19-0.06-0.25
			c-0.04-0.06-0.1-0.1-0.17-0.1c-0.06,0-0.13,0.01-0.19,0.03c-0.06,0.02-0.11,0.05-0.16,0.08c-0.05,0.03-0.09,0.07-0.13,0.12
			c-0.04,0.05-0.06,0.09-0.07,0.14l-2.01,3.86l-0.14-3.67c0-0.07-0.01-0.14-0.02-0.19c-0.01-0.06-0.03-0.11-0.06-0.15
			c-0.03-0.04-0.07-0.07-0.11-0.09c-0.05-0.02-0.11-0.03-0.19-0.03c-0.04,0-0.08,0-0.13,0.01c-0.05,0.01-0.1,0.02-0.14,0.06
			c-0.05,0.03-0.08,0.08-0.12,0.15c-0.03,0.07-0.05,0.16-0.05,0.29c0,0.08,0,0.19,0.01,0.32c0.01,0.13,0.01,0.27,0.02,0.42
			c0.01,0.15,0.02,0.31,0.03,0.48c0.01,0.17,0.02,0.33,0.03,0.49c0.01,0.16,0.02,0.32,0.03,0.46c0.01,0.15,0.02,0.28,0.03,0.39
			c0.01,0.11,0.02,0.2,0.02,0.27c0.01,0.07,0.01,0.1,0.01,0.11c0.01,0.13,0.02,0.26,0.02,0.39c0,0.13,0.01,0.25,0.02,0.37
			c0.01,0.12,0.02,0.23,0.05,0.33c0.02,0.1,0.06,0.19,0.1,0.26c0.05,0.07,0.11,0.13,0.19,0.17c0.08,0.04,0.18,0.06,0.3,0.06
			c0.09,0,0.18-0.02,0.27-0.07c0.09-0.05,0.19-0.13,0.29-0.24c0.1-0.11,0.2-0.27,0.31-0.46c0.11-0.19,0.22-0.43,0.34-0.71
			c-0.01,0.07-0.02,0.14-0.02,0.2c0,0.12,0.02,0.23,0.06,0.33c0.04,0.1,0.1,0.18,0.17,0.25c0.08,0.07,0.17,0.12,0.28,0.16
			c0.11,0.04,0.23,0.06,0.37,0.06c0.15,0,0.31-0.04,0.48-0.12c0.04-0.02,0.07-0.04,0.11-0.06c0,0.07,0.01,0.14,0.03,0.2
			c0.02,0.08,0.05,0.14,0.1,0.2c0.05,0.05,0.1,0.1,0.18,0.12c0.07,0.03,0.16,0.04,0.27,0.04c0.12,0,0.25-0.02,0.38-0.06
			c0.13-0.04,0.26-0.1,0.39-0.16c0.13-0.06,0.25-0.14,0.36-0.21c0.09-0.06,0.16-0.12,0.22-0.17c0.01,0.02,0.02,0.05,0.03,0.07
			c0.07,0.16,0.15,0.3,0.25,0.39c0.1,0.1,0.2,0.15,0.31,0.15c0.07,0,0.15-0.01,0.23-0.03c0.08-0.02,0.16-0.05,0.25-0.08
			c0.08-0.03,0.17-0.07,0.25-0.11c0.08-0.04,0.16-0.08,0.24-0.13c0.1-0.06,0.21-0.12,0.31-0.19c0,0,0,0,0,0
			c0.07,0.16,0.15,0.3,0.25,0.39c0.1,0.1,0.2,0.15,0.31,0.15c0.07,0,0.15-0.01,0.23-0.03c0.08-0.02,0.16-0.05,0.25-0.08
			c0.08-0.03,0.17-0.07,0.25-0.11s0.16-0.08,0.24-0.13c0.03-0.02,0.07-0.04,0.1-0.06c0.04,0.07,0.08,0.13,0.13,0.18
			c0.07,0.08,0.15,0.13,0.25,0.17c0.09,0.04,0.19,0.06,0.29,0.06c0.09,0,0.19-0.02,0.28-0.05c0.09-0.03,0.18-0.07,0.27-0.12
			c0.09-0.05,0.16-0.1,0.24-0.16c0.07-0.06,0.13-0.12,0.18-0.18c0.07,0.17,0.14,0.29,0.23,0.38c0.09,0.09,0.2,0.13,0.34,0.13
			c0.11,0,0.23-0.03,0.34-0.08c0.11-0.06,0.22-0.12,0.32-0.2c0.03-0.03,0.06-0.06,0.1-0.08c0.03,0.05,0.06,0.09,0.1,0.13
			c0.07,0.08,0.15,0.13,0.25,0.17c0.09,0.04,0.19,0.06,0.29,0.06c0.11,0,0.23-0.03,0.35-0.09c0.12-0.06,0.24-0.14,0.35-0.24
			l-0.08,0.29c-0.15,0.12-0.29,0.25-0.44,0.38c-0.15,0.13-0.28,0.27-0.42,0.41c-0.13,0.14-0.26,0.28-0.37,0.42
			c-0.11,0.14-0.21,0.27-0.29,0.4c-0.08,0.13-0.15,0.25-0.19,0.37c-0.05,0.12-0.07,0.22-0.07,0.31c0,0.13,0.02,0.24,0.07,0.32
			c0.05,0.08,0.1,0.14,0.17,0.19c0.07,0.04,0.14,0.07,0.23,0.09c0.08,0.01,0.16,0.02,0.23,0.02c0.18,0,0.34-0.03,0.48-0.09
			c0.15-0.06,0.28-0.15,0.4-0.25c0.12-0.11,0.22-0.24,0.32-0.39c0.09-0.15,0.18-0.32,0.25-0.5c0.07-0.18,0.14-0.38,0.19-0.59
			c0.05-0.21,0.1-0.42,0.14-0.64c0.2-0.12,0.39-0.25,0.56-0.38c0.07-0.06,0.15-0.11,0.23-0.18c0.08-0.06,0.15-0.13,0.22-0.19
			c0.05-0.05,0.09-0.09,0.14-0.14c0.02,0.04,0.05,0.08,0.07,0.11c0.1,0.12,0.22,0.21,0.36,0.28c0.15,0.07,0.31,0.11,0.51,0.11
			c0.12,0,0.25-0.01,0.37-0.04c0.12-0.03,0.24-0.06,0.35-0.11c0.11-0.05,0.22-0.1,0.32-0.16c0.1-0.06,0.2-0.12,0.29-0.18
			c0.2-0.14,0.4-0.31,0.58-0.5l-0.4-0.41C56.29,36.79,56.19,36.87,56.08,36.96z M45.03,35.04c0.03-0.21,0.07-0.41,0.12-0.61
			c0.05-0.2,0.11-0.38,0.17-0.56c0.06-0.17,0.13-0.33,0.2-0.46c0.07-0.13,0.14-0.24,0.21-0.31c0.07-0.08,0.13-0.12,0.19-0.12
			c0.02,0,0.03,0.02,0.03,0.06c0,0.04,0,0.09,0,0.15c-0.02,0.19-0.06,0.39-0.13,0.61s-0.15,0.43-0.24,0.65
			c-0.09,0.22-0.19,0.43-0.29,0.64c-0.1,0.21-0.2,0.39-0.29,0.56C44.99,35.45,45,35.25,45.03,35.04z M46.87,35.04
			c0.03-0.21,0.07-0.41,0.12-0.61c0.05-0.2,0.11-0.38,0.17-0.56c0.06-0.17,0.13-0.33,0.2-0.46c0.07-0.13,0.14-0.24,0.21-0.31
			c0.07-0.08,0.13-0.12,0.19-0.12c0.02,0,0.03,0.02,0.03,0.06c0,0.04,0,0.09,0,0.15c-0.02,0.19-0.06,0.39-0.13,0.61
			c-0.07,0.22-0.15,0.43-0.24,0.65c-0.09,0.22-0.19,0.43-0.29,0.64c-0.1,0.21-0.2,0.39-0.29,0.56
			C46.82,35.45,46.84,35.25,46.87,35.04z M49.34,36.65c-0.01,0.07-0.03,0.15-0.05,0.25c-0.03,0.1-0.06,0.19-0.11,0.29
			c-0.05,0.09-0.1,0.17-0.16,0.24c-0.06,0.07-0.13,0.1-0.21,0.1c-0.05,0-0.09-0.01-0.12-0.04c-0.03-0.02-0.06-0.05-0.07-0.09
			c-0.02-0.04-0.03-0.08-0.04-0.13c-0.01-0.05-0.01-0.1-0.01-0.15c0-0.09,0.01-0.19,0.04-0.29c0.02-0.1,0.06-0.21,0.1-0.31
			c0.04-0.1,0.09-0.2,0.15-0.29c0.06-0.09,0.12-0.17,0.2-0.25s0.15-0.13,0.23-0.17c0.08-0.04,0.16-0.06,0.25-0.06L49.34,36.65z
			 M51.92,39.19c-0.03,0.11-0.06,0.21-0.11,0.32c-0.04,0.11-0.09,0.22-0.14,0.32c-0.05,0.1-0.11,0.2-0.18,0.28
			c-0.06,0.08-0.14,0.15-0.21,0.2c-0.08,0.05-0.16,0.08-0.25,0.08c-0.08,0-0.12-0.04-0.12-0.11c0-0.05,0.02-0.11,0.05-0.18
			c0.03-0.07,0.07-0.15,0.13-0.23c0.05-0.08,0.12-0.17,0.19-0.26c0.07-0.09,0.15-0.18,0.23-0.26c0.08-0.09,0.16-0.17,0.24-0.24
			c0.08-0.07,0.17-0.14,0.25-0.19C51.97,38.99,51.95,39.08,51.92,39.19z M52.26,36.65c-0.01,0.07-0.03,0.15-0.05,0.25
			c-0.03,0.1-0.06,0.19-0.11,0.29c-0.05,0.09-0.1,0.17-0.16,0.24c-0.06,0.07-0.13,0.1-0.21,0.1c-0.05,0-0.09-0.01-0.12-0.04
			c-0.03-0.02-0.06-0.05-0.07-0.09c-0.02-0.04-0.03-0.08-0.04-0.13c-0.01-0.05-0.01-0.1-0.01-0.15c0-0.09,0.01-0.19,0.04-0.29
			c0.02-0.1,0.06-0.21,0.1-0.31c0.04-0.1,0.09-0.2,0.15-0.29c0.06-0.09,0.12-0.17,0.2-0.25s0.15-0.13,0.23-0.17
			c0.08-0.04,0.16-0.06,0.25-0.06L52.26,36.65z M54.47,36.5c0-0.06,0.01-0.13,0.03-0.2c0.01-0.07,0.03-0.14,0.06-0.2
			c0.03-0.07,0.06-0.13,0.1-0.18c0.04-0.05,0.09-0.1,0.16-0.13c0.06-0.03,0.14-0.05,0.23-0.05c0.05,0,0.09,0.03,0.12,0.09
			c0.03,0.06,0.05,0.14,0.05,0.23c0,0.07-0.03,0.13-0.08,0.2c-0.05,0.07-0.11,0.13-0.19,0.19s-0.16,0.11-0.24,0.15
			c-0.09,0.04-0.17,0.06-0.24,0.06C54.46,36.62,54.46,36.57,54.47,36.5z"/>
		<path class="st1" d="M61.1,37.08c-0.05,0.04-0.1,0.07-0.15,0.1c-0.05,0.03-0.1,0.06-0.16,0.09c-0.05,0.03-0.1,0.05-0.15,0.06
			c-0.05,0.02-0.09,0.02-0.13,0.02c-0.04,0-0.08-0.01-0.1-0.04c-0.03-0.02-0.05-0.06-0.07-0.1s-0.03-0.09-0.04-0.14
			c-0.01-0.05-0.01-0.11-0.01-0.17c0-0.05,0-0.1,0.01-0.15c0.01-0.05,0.01-0.1,0.02-0.15c0.01-0.05,0.02-0.09,0.03-0.13
			c0.01-0.04,0.02-0.08,0.03-0.11c0.11-0.26,0.22-0.51,0.33-0.75c0.11-0.24,0.22-0.48,0.31-0.73c0.1-0.25,0.18-0.5,0.25-0.75
			c0.07-0.26,0.12-0.53,0.15-0.82c0.01-0.08,0.01-0.15,0.01-0.22c0-0.12-0.01-0.23-0.03-0.34c-0.02-0.11-0.05-0.21-0.09-0.29
			c-0.04-0.08-0.1-0.15-0.17-0.2c-0.07-0.05-0.15-0.08-0.25-0.08c-0.13,0-0.26,0.04-0.38,0.12c-0.12,0.08-0.24,0.19-0.35,0.34
			c-0.11,0.14-0.21,0.31-0.3,0.51c-0.09,0.2-0.17,0.41-0.24,0.65s-0.12,0.48-0.16,0.73c-0.04,0.26-0.06,0.52-0.07,0.78
			c-0.16,0.01-0.3,0.05-0.44,0.11c-0.14,0.06-0.27,0.13-0.38,0.22c-0.12,0.09-0.22,0.19-0.31,0.3c-0.09,0.11-0.17,0.23-0.24,0.36
			c-0.06,0.13-0.11,0.26-0.15,0.39c-0.03,0.13-0.05,0.27-0.05,0.4c0,0.13,0.02,0.26,0.05,0.38c0.03,0.12,0.08,0.23,0.15,0.33
			c0.06,0.1,0.15,0.17,0.24,0.23c0.1,0.06,0.21,0.09,0.35,0.09c0.09,0,0.19-0.01,0.28-0.04c0.09-0.03,0.19-0.07,0.28-0.12
			c0.09-0.05,0.18-0.11,0.27-0.17c0.09-0.07,0.17-0.14,0.24-0.21c0.05,0.12,0.11,0.22,0.17,0.29s0.13,0.13,0.2,0.17
			c0.07,0.04,0.13,0.06,0.19,0.08c0.06,0.01,0.1,0.02,0.13,0.02c0.05,0,0.11-0.01,0.17-0.03c0.06-0.02,0.12-0.04,0.19-0.07
			c0.06-0.03,0.13-0.06,0.19-0.1c0.07-0.04,0.13-0.07,0.19-0.11c0.14-0.09,0.29-0.19,0.43-0.3l-0.09-0.71
			C61.33,36.9,61.21,37,61.1,37.08z M59.31,37.14c-0.02,0.04-0.05,0.08-0.08,0.12c-0.03,0.04-0.06,0.07-0.09,0.1
			c-0.03,0.03-0.07,0.05-0.1,0.07c-0.04,0.02-0.07,0.03-0.11,0.03c-0.07,0-0.13-0.01-0.18-0.03c-0.05-0.02-0.08-0.05-0.1-0.08
			c-0.02-0.03-0.04-0.07-0.05-0.11c-0.01-0.04-0.01-0.08-0.01-0.12c0-0.1,0.02-0.22,0.06-0.35c0.04-0.13,0.09-0.25,0.16-0.38
			s0.16-0.24,0.27-0.35c0.11-0.11,0.23-0.2,0.36-0.26c0,0,0,0.02,0.01,0.06c0,0.04,0,0.1,0,0.17c0,0.07,0,0.14,0,0.23
			c0,0.08,0,0.16,0.01,0.24c0,0.08,0.01,0.15,0.01,0.21c0,0.06,0.01,0.11,0.02,0.14C59.42,36.94,59.37,37.05,59.31,37.14z
			 M60.16,35.79v-0.03c0-0.03,0-0.08,0-0.13s0-0.12,0-0.2c0-0.08,0.01-0.16,0.01-0.26c0.01-0.09,0.01-0.19,0.02-0.29
			c0-0.05,0.01-0.13,0.02-0.25c0.01-0.12,0.03-0.25,0.05-0.4c0.02-0.15,0.05-0.3,0.08-0.45c0.03-0.16,0.07-0.3,0.11-0.43
			c0.04-0.13,0.09-0.24,0.14-0.32c0.05-0.08,0.11-0.12,0.18-0.12c0.04,0,0.07,0.02,0.08,0.06c0.02,0.04,0.03,0.12,0.03,0.23
			c0,0.08-0.01,0.2-0.02,0.34c-0.01,0.11-0.03,0.22-0.05,0.35c-0.03,0.12-0.06,0.25-0.09,0.37c-0.04,0.13-0.07,0.25-0.12,0.38
			c-0.04,0.12-0.08,0.24-0.13,0.36C60.39,35.26,60.28,35.52,60.16,35.79z"/>
		<path class="st1" d="M62.43,32.47c-0.04-0.03-0.08-0.05-0.13-0.06c-0.05-0.01-0.1-0.02-0.15-0.02c-0.06,0-0.12,0.01-0.19,0.03
			c-0.06,0.02-0.12,0.04-0.17,0.08c-0.05,0.03-0.09,0.08-0.12,0.12c-0.03,0.05-0.05,0.1-0.05,0.17c-0.02,0.21-0.03,0.4-0.05,0.58
			c-0.01,0.08-0.01,0.15-0.02,0.23c-0.01,0.08-0.01,0.15-0.02,0.23c0,0.07-0.01,0.14-0.01,0.19c0,0.06,0,0.11,0,0.14
			c0,0.1,0.02,0.18,0.07,0.23c0.05,0.05,0.11,0.08,0.17,0.08c0.07,0,0.13-0.02,0.2-0.07c0.06-0.05,0.11-0.12,0.15-0.22
			c0.03-0.07,0.06-0.16,0.09-0.27c0.03-0.11,0.07-0.22,0.1-0.34c0.04-0.12,0.07-0.24,0.11-0.35c0.03-0.12,0.07-0.23,0.09-0.33
			c0.01-0.03,0.01-0.06,0.02-0.08c0-0.03,0.01-0.05,0.01-0.08c0-0.06-0.01-0.11-0.03-0.15C62.5,32.53,62.47,32.49,62.43,32.47z"/>
		<path class="st1" d="M83.97,36.73c-0.1,0.07-0.2,0.14-0.29,0.19c-0.1,0.05-0.19,0.1-0.29,0.14c-0.09,0.04-0.18,0.08-0.27,0.12
			c-0.09,0.04-0.17,0.08-0.24,0.13c0-0.13,0-0.25-0.01-0.34c-0.01-0.1-0.02-0.18-0.04-0.26c-0.02-0.07-0.03-0.14-0.05-0.2
			c-0.02-0.06-0.03-0.11-0.05-0.16c-0.02-0.05-0.03-0.1-0.04-0.15c-0.01-0.05-0.01-0.11-0.01-0.17c0.01-0.02,0.03-0.06,0.07-0.1
			c0.04-0.05,0.09-0.1,0.13-0.15c0.05-0.06,0.09-0.11,0.13-0.17c0.04-0.06,0.06-0.11,0.06-0.16c0-0.02,0-0.05-0.01-0.09
			c0-0.03-0.02-0.07-0.04-0.1c-0.02-0.03-0.06-0.06-0.12-0.08s-0.13-0.03-0.23-0.03c-0.06,0-0.11,0.01-0.16,0.03
			c-0.05,0.02-0.09,0.04-0.13,0.07c-0.04,0.03-0.08,0.06-0.11,0.09s-0.06,0.07-0.09,0.11c-0.13,0.16-0.24,0.3-0.32,0.41
			s-0.15,0.2-0.21,0.28c-0.06,0.08-0.11,0.14-0.15,0.2c-0.04,0.06-0.09,0.11-0.14,0.17c-0.05,0.05-0.11,0.11-0.19,0.18
			c-0.04,0.04-0.09,0.08-0.15,0.13v-0.18c-0.06,0.07-0.13,0.13-0.21,0.2c-0.08,0.06-0.16,0.13-0.24,0.19
			c-0.08,0.06-0.17,0.11-0.25,0.16c-0.09,0.05-0.17,0.09-0.24,0.13c-0.08,0.04-0.15,0.06-0.21,0.08c-0.06,0.02-0.12,0.03-0.16,0.03
			c-0.07,0-0.13-0.01-0.19-0.03c-0.06-0.02-0.1-0.06-0.14-0.11c-0.04-0.05-0.07-0.11-0.09-0.19c-0.02-0.08-0.03-0.17-0.03-0.28
			c0-0.04,0-0.09,0-0.14c0-0.05,0-0.1,0-0.16c0-0.06,0-0.11,0.01-0.17c0-0.06,0-0.11,0.01-0.17c0.01-0.12,0.01-0.25,0.02-0.38
			c0.05-0.06,0.11-0.14,0.17-0.21c0.06-0.08,0.12-0.16,0.18-0.24h1.19c0.05,0,0.09-0.02,0.14-0.07c0.04-0.05,0.06-0.1,0.06-0.18
			c0-0.06-0.01-0.11-0.03-0.15c-0.02-0.04-0.05-0.06-0.09-0.06c-0.03,0-0.08,0-0.13-0.01c-0.05,0-0.11,0-0.17-0.01
			c-0.06,0-0.13,0-0.19-0.01c-0.07,0-0.13-0.01-0.18-0.01c-0.06,0-0.11,0-0.15,0c-0.04,0-0.07,0-0.09,0
			c0.07-0.12,0.14-0.24,0.21-0.35c0.07-0.12,0.12-0.24,0.17-0.35c0.05-0.12,0.09-0.23,0.12-0.34c0.03-0.11,0.04-0.22,0.04-0.32
			c0-0.12-0.01-0.23-0.04-0.34c-0.03-0.11-0.07-0.21-0.12-0.29c-0.05-0.08-0.11-0.15-0.19-0.2c-0.07-0.05-0.15-0.07-0.24-0.07
			c-0.14,0-0.27,0.06-0.4,0.18c-0.13,0.12-0.24,0.29-0.35,0.49c-0.11,0.2-0.2,0.43-0.29,0.69c-0.09,0.26-0.16,0.53-0.21,0.81
			c-0.02,0-0.06,0.01-0.11,0c-0.05,0-0.12,0-0.19,0c-0.07,0-0.14,0-0.22,0c-0.08,0-0.14,0.01-0.21,0.02
			c-0.06,0.01-0.11,0.03-0.15,0.05c-0.04,0.02-0.06,0.05-0.06,0.09c0,0.02,0,0.04,0,0.07c0,0.03,0.01,0.05,0.02,0.07
			c0.01,0.02,0.03,0.04,0.06,0.06c0.03,0.02,0.06,0.03,0.11,0.04c0.11,0.01,0.2,0.02,0.25,0.03c0.06,0.01,0.11,0.02,0.15,0.02
			c0.04,0.01,0.07,0.01,0.11,0.02c0.03,0.01,0.08,0.01,0.14,0.02c-0.02,0.14-0.03,0.28-0.04,0.42c-0.01,0.14-0.02,0.27-0.02,0.4
			c0,0.28,0.02,0.54,0.05,0.77c-0.1,0.1-0.19,0.19-0.28,0.27c-0.05,0.04-0.1,0.08-0.14,0.12c-0.05,0.04-0.1,0.07-0.14,0.1
			s-0.09,0.05-0.13,0.07c-0.04,0.02-0.08,0.03-0.11,0.03c-0.07,0-0.12-0.04-0.15-0.12c-0.03-0.08-0.05-0.19-0.05-0.31
			c0-0.08,0-0.16,0.01-0.25c0.01-0.09,0.02-0.18,0.04-0.27c0.01-0.09,0.03-0.18,0.05-0.27c0.02-0.09,0.03-0.17,0.05-0.24
			c0.01-0.07,0.03-0.14,0.04-0.19c0.01-0.05,0.01-0.09,0.01-0.11c0-0.15-0.03-0.27-0.09-0.36c-0.06-0.09-0.14-0.13-0.25-0.13
			c-0.1,0-0.2,0.02-0.28,0.06c-0.08,0.04-0.16,0.12-0.23,0.23c-0.01,0.02-0.04,0.06-0.06,0.11c-0.03,0.05-0.06,0.11-0.1,0.18
			c-0.03,0.07-0.07,0.14-0.11,0.21c-0.04,0.07-0.08,0.14-0.11,0.21c-0.04,0.07-0.07,0.12-0.09,0.17c-0.03,0.05-0.05,0.09-0.06,0.11
			h-0.06c0-0.01,0-0.04,0.01-0.08c0.01-0.04,0.01-0.09,0.02-0.15c0.01-0.06,0.02-0.12,0.03-0.19c0.01-0.07,0.02-0.13,0.03-0.19
			c0.01-0.06,0.02-0.12,0.02-0.17c0.01-0.05,0.01-0.09,0.01-0.12c0-0.11-0.02-0.2-0.06-0.27s-0.12-0.1-0.23-0.1
			c-0.11,0-0.2,0.03-0.26,0.1s-0.11,0.14-0.13,0.24c-0.03,0.12-0.06,0.27-0.09,0.44c-0.03,0.17-0.06,0.35-0.08,0.53
			c-0.02,0.12-0.03,0.24-0.04,0.36c-0.07,0.08-0.13,0.17-0.2,0.24c-0.04,0.05-0.09,0.09-0.14,0.14c-0.05,0.04-0.1,0.08-0.15,0.12
			c-0.05,0.04-0.1,0.06-0.14,0.08c-0.05,0.02-0.09,0.03-0.14,0.03c-0.06,0-0.1-0.03-0.11-0.08c-0.02-0.05-0.03-0.13-0.03-0.23
			c0-0.11,0.01-0.23,0.03-0.36c0.02-0.13,0.04-0.25,0.07-0.38c0.02-0.13,0.05-0.25,0.07-0.37c0.02-0.12,0.03-0.23,0.03-0.33
			c0-0.06-0.01-0.11-0.02-0.15c-0.01-0.04-0.03-0.07-0.05-0.09c-0.02-0.02-0.04-0.03-0.07-0.04c-0.03-0.01-0.06-0.01-0.09-0.01
			c-0.02,0-0.05,0-0.07,0c-0.02,0-0.05,0-0.07,0c-0.03,0-0.05,0-0.08,0c-0.03,0-0.05-0.01-0.08-0.02c-0.02-0.01-0.05-0.03-0.06-0.05
			c-0.02-0.02-0.03-0.05-0.05-0.07c-0.02-0.02-0.04-0.04-0.07-0.06c-0.03-0.02-0.06-0.03-0.11-0.03c-0.14,0-0.28,0.03-0.42,0.09
			s-0.27,0.14-0.39,0.25c-0.12,0.1-0.24,0.22-0.34,0.36c-0.01,0.01-0.01,0.02-0.02,0.03l0-0.05c-0.09,0.09-0.2,0.17-0.33,0.24
			c-0.11,0.06-0.24,0.11-0.4,0.16c-0.16,0.05-0.34,0.07-0.54,0.07c-0.02,0-0.04,0-0.05-0.01c-0.01-0.01-0.03-0.01-0.04-0.02
			c-0.01-0.01-0.03-0.01-0.04-0.02c-0.02-0.01-0.04-0.01-0.06-0.01c-0.02,0-0.04,0-0.06,0.01c-0.02,0.01-0.05,0.02-0.09,0.04
			l0.01-0.05c0.13-0.16,0.25-0.34,0.38-0.52c0.12-0.19,0.24-0.38,0.35-0.57c0.11-0.19,0.21-0.39,0.31-0.58
			c0.09-0.19,0.17-0.38,0.24-0.56c0.07-0.18,0.12-0.35,0.16-0.5c0.04-0.16,0.06-0.3,0.06-0.42c0-0.13-0.02-0.25-0.06-0.34
			c-0.04-0.09-0.1-0.17-0.16-0.22c-0.06-0.06-0.13-0.1-0.21-0.12c-0.08-0.02-0.15-0.04-0.22-0.04c-0.18,0-0.34,0.05-0.49,0.16
			c-0.15,0.11-0.28,0.25-0.4,0.44c-0.12,0.18-0.23,0.4-0.33,0.65s-0.18,0.51-0.26,0.79c-0.08,0.28-0.14,0.56-0.19,0.86
			c-0.05,0.29-0.1,0.58-0.14,0.86c-0.04,0.28-0.07,0.54-0.1,0.79c-0.01,0.05-0.01,0.1-0.01,0.15c-0.01,0.01-0.02,0.02-0.03,0.03
			c-0.05,0.04-0.1,0.08-0.14,0.12c-0.05,0.04-0.1,0.07-0.14,0.1s-0.09,0.05-0.13,0.07c-0.04,0.02-0.08,0.03-0.11,0.03
			c-0.07,0-0.12-0.04-0.15-0.12c-0.03-0.08-0.05-0.19-0.05-0.31c0-0.08,0-0.16,0.01-0.25c0.01-0.09,0.02-0.18,0.04-0.27
			s0.03-0.18,0.05-0.27c0.02-0.09,0.03-0.17,0.05-0.24c0.01-0.07,0.03-0.14,0.04-0.19c0.01-0.05,0.01-0.09,0.01-0.11
			c0-0.15-0.03-0.27-0.09-0.36c-0.06-0.09-0.14-0.13-0.25-0.13c-0.1,0-0.2,0.02-0.28,0.06c-0.08,0.04-0.16,0.12-0.23,0.23
			c-0.01,0.02-0.04,0.06-0.06,0.11c-0.03,0.05-0.06,0.11-0.1,0.18c-0.03,0.07-0.07,0.14-0.11,0.21c-0.04,0.07-0.08,0.14-0.11,0.21
			c-0.04,0.07-0.07,0.12-0.09,0.17c-0.03,0.05-0.05,0.09-0.06,0.11h-0.06c0-0.01,0-0.04,0.01-0.08s0.01-0.09,0.02-0.15
			c0.01-0.06,0.02-0.12,0.03-0.19c0.01-0.07,0.02-0.13,0.03-0.19c0.01-0.06,0.02-0.12,0.02-0.17c0.01-0.05,0.01-0.09,0.01-0.12
			c0-0.11-0.02-0.2-0.06-0.27s-0.12-0.1-0.23-0.1c-0.11,0-0.2,0.03-0.26,0.1c-0.06,0.06-0.11,0.14-0.13,0.24
			c-0.03,0.12-0.06,0.27-0.09,0.44c-0.03,0.17-0.06,0.35-0.08,0.53c-0.01,0.09-0.02,0.17-0.03,0.26l-0.02-0.07
			c-0.05,0.09-0.13,0.18-0.23,0.26c-0.1,0.09-0.21,0.17-0.34,0.25c-0.13,0.08-0.27,0.15-0.42,0.22c-0.15,0.07-0.31,0.13-0.47,0.18
			c-0.16,0.05-0.32,0.09-0.48,0.12c-0.16,0.03-0.31,0.04-0.46,0.04c-0.12,0-0.23-0.01-0.34-0.04c-0.1-0.03-0.2-0.07-0.27-0.13
			c-0.08-0.06-0.14-0.15-0.18-0.25c-0.04-0.1-0.07-0.23-0.07-0.39c0-0.16,0.04-0.3,0.12-0.43c0.08-0.12,0.18-0.23,0.3-0.31
			c0.13-0.08,0.27-0.15,0.43-0.19c0.16-0.04,0.32-0.06,0.48-0.06c0.07,0,0.15,0,0.23,0.01c0.08,0.01,0.15,0.01,0.2,0.01
			c0.13,0,0.21-0.03,0.25-0.08s0.06-0.14,0.06-0.25c0-0.04,0-0.08-0.01-0.13c0-0.04-0.01-0.09-0.01-0.13
			c-0.02-0.07-0.05-0.12-0.1-0.17c-0.05-0.05-0.11-0.08-0.19-0.12c-0.08-0.03-0.16-0.06-0.25-0.08c-0.09-0.02-0.18-0.05-0.27-0.08
			c-0.09-0.03-0.18-0.06-0.27-0.09c-0.09-0.03-0.16-0.08-0.23-0.13c-0.07-0.05-0.12-0.12-0.16-0.19c-0.04-0.08-0.06-0.17-0.06-0.28
			c0-0.14,0.03-0.25,0.08-0.34c0.06-0.09,0.13-0.17,0.23-0.22c0.1-0.06,0.21-0.1,0.33-0.12c0.13-0.02,0.26-0.04,0.4-0.04
			c0.15,0,0.3,0.01,0.45,0.04c0.15,0.02,0.3,0.05,0.43,0.09c0.13,0.04,0.26,0.08,0.36,0.12c0.11,0.05,0.19,0.09,0.24,0.14
			c-0.05,0.16-0.09,0.29-0.11,0.4c-0.02,0.11-0.03,0.19-0.03,0.26c0,0.08,0.02,0.11,0.06,0.11c0.05,0,0.12-0.02,0.19-0.05
			c0.08-0.03,0.15-0.08,0.22-0.14c0.07-0.06,0.13-0.12,0.18-0.19c0.05-0.07,0.08-0.15,0.08-0.22c0-0.21-0.05-0.39-0.16-0.55
			c-0.11-0.16-0.25-0.29-0.43-0.39c-0.18-0.1-0.38-0.18-0.61-0.24c-0.23-0.05-0.47-0.08-0.71-0.08c-0.17,0-0.33,0.01-0.5,0.04
			c-0.16,0.03-0.32,0.06-0.47,0.11c-0.15,0.05-0.29,0.11-0.42,0.19c-0.13,0.08-0.24,0.17-0.33,0.27c-0.09,0.1-0.17,0.22-0.22,0.34
			c-0.05,0.13-0.08,0.27-0.08,0.42c0,0.16,0.03,0.32,0.08,0.47c0.06,0.15,0.14,0.28,0.25,0.39c0.11,0.11,0.25,0.2,0.42,0.26
			c0.17,0.06,0.37,0.1,0.59,0.1c-0.34,0.01-0.64,0.06-0.88,0.15c-0.25,0.09-0.45,0.21-0.61,0.36c-0.16,0.15-0.27,0.32-0.35,0.51
			c-0.08,0.19-0.11,0.39-0.11,0.6c0,0.24,0.05,0.46,0.14,0.63c0.09,0.18,0.22,0.33,0.38,0.44s0.35,0.2,0.56,0.26
			c0.21,0.06,0.44,0.08,0.69,0.08c0.22,0,0.45-0.02,0.68-0.07c0.23-0.05,0.47-0.11,0.69-0.2c0.23-0.09,0.45-0.2,0.65-0.33
			c0.11-0.07,0.22-0.15,0.32-0.24c0,0.05,0,0.09,0.01,0.14c0.01,0.08,0.03,0.15,0.06,0.21c0.03,0.06,0.07,0.11,0.12,0.15
			c0.05,0.04,0.12,0.05,0.2,0.05c0.07,0,0.13-0.02,0.18-0.05c0.05-0.03,0.1-0.09,0.14-0.17l0.81-1.61h0.05
			c-0.02,0.16-0.05,0.32-0.06,0.46c-0.02,0.14-0.02,0.28-0.02,0.4c0,0.31,0.04,0.55,0.12,0.72c0.08,0.16,0.17,0.25,0.29,0.25
			c0.11,0,0.22-0.02,0.32-0.05c0.1-0.03,0.2-0.07,0.3-0.12c0.09-0.05,0.18-0.1,0.26-0.16c-0.01,0.1-0.01,0.19-0.02,0.26
			c-0.01,0.12-0.01,0.18-0.01,0.19c0,0.13,0,0.26,0.01,0.39c0.01,0.13,0.03,0.27,0.05,0.4c0.02,0.13,0.05,0.25,0.09,0.37
			c0.04,0.12,0.09,0.22,0.15,0.31c0.06,0.09,0.13,0.16,0.22,0.21c0.08,0.05,0.18,0.08,0.3,0.08s0.21-0.02,0.3-0.07
			c0.09-0.05,0.17-0.11,0.24-0.19c0.07-0.08,0.13-0.17,0.18-0.27c0.05-0.1,0.1-0.2,0.13-0.31c0.04-0.11,0.07-0.21,0.09-0.32
			c0.02-0.11,0.04-0.2,0.05-0.29c0.01-0.09,0.02-0.16,0.03-0.22c0.01-0.06,0.01-0.1,0.01-0.12c0-0.16-0.02-0.32-0.06-0.47
			c-0.04-0.16-0.09-0.3-0.14-0.42c-0.06-0.15-0.13-0.29-0.2-0.42c0.14-0.01,0.29-0.02,0.44-0.04c0.13-0.02,0.26-0.05,0.41-0.09
			c0.03-0.01,0.05-0.02,0.07-0.03c0,0.01-0.01,0.03-0.01,0.04c-0.04,0.16-0.06,0.32-0.06,0.48c0,0.14,0.02,0.26,0.06,0.37
			c0.04,0.11,0.1,0.2,0.17,0.27c0.07,0.08,0.15,0.13,0.25,0.17c0.09,0.04,0.19,0.06,0.29,0.06c0.09,0,0.19-0.02,0.28-0.05
			c0.09-0.03,0.18-0.07,0.27-0.12c0.09-0.05,0.16-0.1,0.24-0.16c0.07-0.06,0.13-0.12,0.18-0.18c0.07,0.17,0.14,0.29,0.23,0.38
			c0.09,0.09,0.2,0.13,0.34,0.13c0.11,0,0.23-0.03,0.34-0.08c0.11-0.06,0.22-0.12,0.32-0.2c0.06-0.05,0.12-0.1,0.17-0.15
			c0,0.01,0,0.01,0,0.02c0.01,0.08,0.03,0.15,0.06,0.21c0.03,0.06,0.07,0.11,0.12,0.15c0.05,0.04,0.12,0.05,0.2,0.05
			c0.07,0,0.13-0.02,0.18-0.05c0.05-0.03,0.1-0.09,0.14-0.17l0.81-1.61h0.05c-0.02,0.16-0.05,0.32-0.06,0.46
			c-0.02,0.14-0.02,0.28-0.02,0.4c0,0.31,0.04,0.55,0.12,0.72c0.08,0.16,0.17,0.25,0.29,0.25s0.22-0.02,0.32-0.05
			c0.1-0.03,0.2-0.07,0.3-0.12c0.09-0.05,0.19-0.11,0.27-0.17c0.09-0.06,0.17-0.13,0.26-0.19l0.15-0.12l-0.01-0.13
			c0.03,0.08,0.05,0.16,0.09,0.23c0.08,0.18,0.18,0.31,0.3,0.41c0.12,0.09,0.26,0.14,0.41,0.14c0.08,0,0.16-0.01,0.25-0.04
			c0.09-0.03,0.2-0.07,0.32-0.13c0.12-0.06,0.26-0.13,0.41-0.22c0.1-0.05,0.21-0.12,0.32-0.18c0,0,0.01,0,0.01,0
			c0.03,0,0.05,0,0.08,0c0.03,0,0.06-0.01,0.08-0.01c0.01,0.11,0.04,0.21,0.09,0.28c0.05,0.08,0.11,0.14,0.19,0.19
			c0.08,0.05,0.17,0.08,0.28,0.11c0.11,0.02,0.22,0.03,0.34,0.03c0.17,0,0.35-0.02,0.54-0.06S82.82,38,83,37.93
			c0.18-0.07,0.36-0.14,0.53-0.23c0.17-0.09,0.32-0.18,0.44-0.28L83.97,36.73z M79.42,34.27c0.04-0.18,0.09-0.34,0.14-0.49
			c0.05-0.15,0.1-0.27,0.16-0.36c0.05-0.09,0.11-0.14,0.16-0.14c0.04,0,0.07,0.01,0.09,0.02c0.02,0.02,0.04,0.04,0.05,0.06
			s0.02,0.05,0.02,0.08c0,0.03,0,0.05,0,0.08c0,0.07-0.02,0.15-0.05,0.25c-0.04,0.1-0.08,0.21-0.13,0.33
			c-0.05,0.12-0.11,0.24-0.18,0.36s-0.13,0.24-0.19,0.34c-0.03,0-0.06-0.01-0.1-0.01c-0.03,0-0.06-0.01-0.09-0.01
			C79.34,34.62,79.38,34.44,79.42,34.27z M71.2,35.23c0.01-0.13,0.04-0.29,0.07-0.46c0.03-0.17,0.09-0.38,0.15-0.6
			c0.07-0.23,0.16-0.49,0.28-0.78c0.04-0.1,0.08-0.18,0.13-0.23c0.05-0.05,0.12-0.08,0.22-0.08c0.05,0,0.1,0.03,0.13,0.08
			s0.05,0.13,0.05,0.24c0,0.08-0.03,0.19-0.1,0.34c-0.06,0.15-0.15,0.32-0.25,0.52c-0.1,0.2-0.22,0.41-0.35,0.64
			c-0.13,0.23-0.25,0.46-0.38,0.7C71.17,35.48,71.18,35.36,71.2,35.23z M71.32,38.63c-0.01,0.12-0.02,0.22-0.04,0.32
			c-0.02,0.1-0.05,0.18-0.1,0.24c-0.04,0.06-0.1,0.1-0.17,0.1c-0.02,0-0.04-0.01-0.07-0.04c-0.02-0.03-0.04-0.09-0.06-0.18
			c-0.02-0.09-0.03-0.23-0.04-0.41c-0.01-0.18-0.02-0.42-0.02-0.72c0-0.04,0-0.1,0.01-0.18c0-0.08,0.01-0.16,0.02-0.24
			c0.01-0.09,0.01-0.18,0.02-0.27c0.01-0.09,0.02-0.17,0.03-0.25c0.01-0.07,0.02-0.13,0.03-0.18c0.01-0.05,0.02-0.07,0.03-0.07
			c0.02,0,0.05,0.03,0.08,0.08c0.03,0.06,0.06,0.13,0.08,0.22c0.03,0.09,0.05,0.19,0.08,0.3c0.03,0.11,0.05,0.23,0.07,0.34
			c0.02,0.11,0.03,0.22,0.05,0.33c0.01,0.11,0.02,0.19,0.02,0.27C71.33,38.4,71.33,38.51,71.32,38.63z M73.98,36.65
			c-0.01,0.07-0.03,0.15-0.05,0.25c-0.03,0.1-0.06,0.19-0.11,0.29c-0.05,0.09-0.1,0.17-0.16,0.24c-0.06,0.07-0.13,0.1-0.21,0.1
			c-0.05,0-0.09-0.01-0.12-0.04c-0.03-0.02-0.06-0.05-0.07-0.09c-0.02-0.04-0.03-0.08-0.04-0.13c-0.01-0.05-0.01-0.1-0.01-0.15
			c0-0.09,0.01-0.19,0.04-0.29c0.02-0.1,0.06-0.21,0.1-0.31c0.04-0.1,0.09-0.2,0.15-0.29c0.06-0.09,0.12-0.17,0.2-0.25
			s0.15-0.13,0.23-0.17c0.08-0.04,0.16-0.06,0.25-0.06L73.98,36.65z M82.18,37.32c-0.01,0.06-0.03,0.11-0.06,0.15
			c-0.03,0.04-0.07,0.08-0.12,0.11c-0.05,0.03-0.12,0.04-0.2,0.04c-0.07,0-0.12-0.02-0.18-0.05c-0.05-0.03-0.1-0.06-0.14-0.1
			c-0.04-0.04-0.07-0.07-0.1-0.1c-0.03-0.03-0.06-0.05-0.08-0.05l0.79-0.79c0.01,0.03,0.02,0.07,0.04,0.12
			c0.01,0.05,0.03,0.1,0.04,0.15c0.01,0.05,0.02,0.11,0.03,0.17c0.01,0.06,0.01,0.11,0.01,0.17C82.2,37.2,82.2,37.26,82.18,37.32z"
			/>
		<path class="st0" d="M30.49,49.94c2.55-0.71,5.14-1.2,7.75-1.6c2.61-0.39,5.24-0.66,7.88-0.79c1.32-0.06,2.65-0.09,3.97-0.07
			c1.32,0.02,2.65,0.09,3.97,0.21c1.32,0.13,2.64,0.33,3.94,0.61c1.29,0.3,2.58,0.67,3.78,1.24c-1.28-0.32-2.57-0.52-3.87-0.65
			c-1.3-0.14-2.6-0.21-3.9-0.25c-1.3-0.03-2.61-0.03-3.91-0.01c-1.3,0.03-2.61,0.07-3.91,0.13c-2.61,0.13-5.22,0.31-7.83,0.53
			L30.49,49.94z"/>
		<path class="st1" d="M27.6,44.16c0-0.06,0-0.11,0.01-0.17c0-0.06,0-0.11,0.01-0.17c0.01-0.12,0.01-0.25,0.02-0.38
			c0.05-0.06,0.11-0.14,0.17-0.21c0.06-0.08,0.12-0.16,0.18-0.24h1.19c0.05,0,0.09-0.02,0.14-0.07c0.04-0.05,0.06-0.1,0.06-0.18
			c0-0.06-0.01-0.11-0.03-0.15c-0.02-0.04-0.05-0.06-0.09-0.06c-0.04,0-0.08,0-0.13-0.01c-0.05,0-0.11,0-0.17-0.01
			c-0.06,0-0.13,0-0.19-0.01c-0.07,0-0.13-0.01-0.18-0.01c-0.06,0-0.11,0-0.15,0c-0.04,0-0.07,0-0.09,0
			c0.07-0.12,0.14-0.24,0.21-0.35c0.07-0.12,0.12-0.24,0.17-0.35c0.05-0.12,0.09-0.23,0.12-0.34c0.03-0.11,0.04-0.22,0.04-0.32
			c0-0.12-0.01-0.23-0.04-0.34c-0.03-0.11-0.07-0.21-0.12-0.29c-0.05-0.08-0.11-0.15-0.19-0.2c-0.07-0.05-0.15-0.07-0.24-0.07
			c-0.14,0-0.27,0.06-0.4,0.18c-0.13,0.12-0.24,0.29-0.35,0.49c-0.11,0.2-0.2,0.43-0.29,0.69c-0.09,0.26-0.16,0.53-0.21,0.81
			c-0.02,0-0.06,0.01-0.11,0s-0.12,0-0.19,0c-0.07,0-0.14,0-0.22,0c-0.08,0-0.14,0.01-0.21,0.02c-0.06,0.01-0.11,0.03-0.15,0.05
			c-0.04,0.02-0.06,0.05-0.06,0.09c0,0.02,0,0.04,0,0.07c0,0.03,0.01,0.05,0.02,0.07c0.01,0.02,0.03,0.04,0.06,0.06
			s0.06,0.03,0.11,0.04c0.11,0.01,0.2,0.02,0.25,0.03s0.11,0.02,0.15,0.02c0.04,0.01,0.07,0.01,0.11,0.02s0.08,0.01,0.14,0.02
			c-0.02,0.14-0.03,0.28-0.04,0.42c-0.01,0.14-0.02,0.27-0.02,0.4c0,0.27,0.02,0.52,0.05,0.75l-0.1-0.1
			c-0.08,0.08-0.18,0.16-0.29,0.25c-0.12,0.09-0.24,0.17-0.37,0.24s-0.26,0.14-0.4,0.19c-0.14,0.05-0.27,0.07-0.39,0.07
			c-0.04,0-0.08,0-0.11-0.01c-0.03-0.01-0.07-0.02-0.1-0.04c-0.03-0.02-0.06-0.05-0.09-0.09c-0.03-0.04-0.06-0.08-0.09-0.14
			c0.18-0.05,0.35-0.12,0.5-0.21c0.15-0.09,0.29-0.19,0.4-0.3c0.11-0.11,0.2-0.23,0.26-0.36c0.06-0.13,0.09-0.26,0.09-0.38
			c0-0.12-0.02-0.22-0.06-0.32c-0.04-0.09-0.1-0.18-0.17-0.24c-0.07-0.07-0.16-0.12-0.26-0.16c-0.1-0.04-0.21-0.06-0.32-0.06
			c-0.14,0-0.27,0.03-0.39,0.08c-0.12,0.05-0.22,0.12-0.31,0.2c-0.09,0.09-0.18,0.18-0.25,0.3c-0.07,0.11-0.13,0.23-0.17,0.35
			c-0.05,0.12-0.08,0.25-0.1,0.38c-0.02,0.13-0.03,0.25-0.03,0.37c0,0.17,0.02,0.33,0.07,0.49c0.05,0.16,0.12,0.29,0.22,0.41
			c0.1,0.12,0.22,0.21,0.36,0.28c0.15,0.07,0.31,0.11,0.51,0.11c0.12,0,0.25-0.01,0.37-0.04c0.12-0.03,0.24-0.06,0.35-0.11
			s0.22-0.1,0.32-0.16c0.1-0.06,0.2-0.12,0.29-0.18c0.13-0.09,0.26-0.2,0.38-0.31c0.03,0.09,0.06,0.17,0.09,0.25
			c0.08,0.18,0.18,0.31,0.3,0.41c0.12,0.09,0.26,0.14,0.41,0.14c0.08,0,0.16-0.01,0.25-0.04c0.09-0.03,0.2-0.07,0.32-0.13
			c0.12-0.06,0.26-0.13,0.41-0.22c0.15-0.09,0.33-0.19,0.53-0.3v-0.79c-0.06,0.07-0.13,0.13-0.21,0.2
			c-0.08,0.06-0.16,0.13-0.24,0.19c-0.08,0.06-0.17,0.11-0.25,0.16c-0.09,0.05-0.17,0.09-0.24,0.13c-0.08,0.04-0.15,0.06-0.21,0.08
			c-0.06,0.02-0.12,0.03-0.16,0.03c-0.07,0-0.13-0.01-0.19-0.03s-0.1-0.06-0.14-0.11c-0.04-0.05-0.07-0.11-0.09-0.19
			c-0.02-0.08-0.03-0.17-0.03-0.28c0-0.04,0-0.09,0-0.14C27.59,44.27,27.6,44.22,27.6,44.16z M27.75,41.91
			c0.04-0.18,0.09-0.34,0.14-0.49c0.05-0.15,0.1-0.27,0.16-0.36c0.05-0.09,0.11-0.14,0.16-0.14c0.04,0,0.07,0.01,0.09,0.02
			c0.02,0.02,0.04,0.04,0.05,0.06c0.01,0.02,0.02,0.05,0.02,0.08c0,0.03,0,0.05,0,0.08c0,0.07-0.02,0.15-0.05,0.25
			c-0.03,0.1-0.08,0.21-0.13,0.33c-0.05,0.12-0.11,0.24-0.18,0.36c-0.07,0.12-0.13,0.24-0.19,0.34c-0.03,0-0.06-0.01-0.1-0.01
			c-0.03,0-0.06-0.01-0.09-0.01C27.67,42.26,27.71,42.09,27.75,41.91z M24.94,44.14c0-0.06,0.01-0.13,0.03-0.2
			c0.01-0.07,0.03-0.14,0.06-0.2c0.03-0.07,0.06-0.13,0.1-0.18c0.04-0.05,0.09-0.1,0.16-0.13c0.06-0.03,0.14-0.05,0.23-0.05
			c0.05,0,0.09,0.03,0.13,0.09s0.05,0.14,0.05,0.23c0,0.07-0.03,0.13-0.08,0.2c-0.05,0.07-0.11,0.13-0.19,0.19
			c-0.08,0.06-0.16,0.11-0.24,0.15c-0.09,0.04-0.17,0.06-0.24,0.06C24.93,44.26,24.94,44.21,24.94,44.14z"/>
		<path class="st1" d="M34.11,44.72c-0.05,0.04-0.1,0.07-0.15,0.1c-0.05,0.03-0.1,0.06-0.16,0.09c-0.05,0.03-0.1,0.05-0.15,0.06
			C33.61,44.99,33.57,45,33.53,45c-0.04,0-0.08-0.01-0.1-0.04c-0.03-0.02-0.05-0.06-0.07-0.1c-0.02-0.04-0.03-0.09-0.04-0.14
			c-0.01-0.05-0.01-0.11-0.01-0.17c0-0.05,0-0.1,0.01-0.15c0.01-0.05,0.01-0.1,0.02-0.15c0.01-0.05,0.02-0.09,0.03-0.13
			c0.01-0.04,0.02-0.08,0.03-0.11c0.11-0.26,0.22-0.51,0.33-0.75c0.11-0.24,0.22-0.48,0.31-0.73c0.1-0.25,0.18-0.5,0.25-0.75
			c0.07-0.26,0.12-0.53,0.15-0.82c0.01-0.08,0.01-0.15,0.01-0.22c0-0.12-0.01-0.23-0.03-0.34c-0.02-0.11-0.05-0.21-0.09-0.29
			c-0.04-0.08-0.1-0.15-0.17-0.2c-0.07-0.05-0.15-0.08-0.25-0.08c-0.13,0-0.26,0.04-0.38,0.12c-0.12,0.08-0.24,0.19-0.35,0.34
			c-0.11,0.14-0.21,0.31-0.3,0.51c-0.09,0.2-0.17,0.41-0.24,0.65s-0.12,0.48-0.16,0.73c-0.04,0.26-0.06,0.52-0.07,0.78
			c-0.16,0.01-0.3,0.05-0.44,0.11c-0.14,0.06-0.27,0.13-0.38,0.22c-0.12,0.09-0.22,0.19-0.31,0.3c-0.09,0.11-0.17,0.23-0.24,0.36
			c-0.06,0.13-0.11,0.26-0.15,0.39s-0.05,0.27-0.05,0.4c0,0.13,0.02,0.26,0.05,0.38c0.03,0.12,0.08,0.23,0.15,0.33
			c0.06,0.1,0.15,0.17,0.24,0.23c0.1,0.06,0.21,0.09,0.35,0.09c0.09,0,0.19-0.01,0.28-0.04c0.09-0.03,0.19-0.07,0.28-0.12
			c0.09-0.05,0.18-0.11,0.27-0.17c0.09-0.07,0.17-0.14,0.24-0.21c0.05,0.12,0.11,0.22,0.17,0.29c0.07,0.07,0.13,0.13,0.2,0.17
			c0.07,0.04,0.13,0.06,0.19,0.08c0.06,0.01,0.1,0.02,0.13,0.02c0.05,0,0.11-0.01,0.17-0.03c0.06-0.02,0.12-0.04,0.19-0.07
			c0.06-0.03,0.13-0.06,0.19-0.1c0.07-0.04,0.13-0.07,0.19-0.11c0.14-0.09,0.29-0.19,0.43-0.3l-0.09-0.71
			C34.34,44.55,34.22,44.64,34.11,44.72z M32.32,44.79c-0.02,0.04-0.05,0.08-0.08,0.12c-0.03,0.04-0.06,0.07-0.09,0.1
			c-0.03,0.03-0.07,0.05-0.1,0.07c-0.04,0.02-0.07,0.03-0.11,0.03c-0.07,0-0.13-0.01-0.18-0.03c-0.05-0.02-0.08-0.05-0.1-0.08
			c-0.02-0.03-0.04-0.07-0.05-0.11c-0.01-0.04-0.01-0.08-0.01-0.12c0-0.1,0.02-0.22,0.06-0.35c0.04-0.13,0.09-0.25,0.16-0.38
			c0.07-0.13,0.16-0.24,0.27-0.35c0.11-0.11,0.23-0.2,0.36-0.26c0,0,0,0.02,0.01,0.06s0,0.1,0,0.17c0,0.07,0,0.14,0,0.23
			c0,0.08,0,0.16,0.01,0.24c0,0.08,0.01,0.15,0.01,0.21c0,0.06,0.01,0.11,0.02,0.14C32.43,44.58,32.38,44.69,32.32,44.79z
			 M33.18,43.43V43.4c0-0.03,0-0.08,0-0.13s0-0.12,0-0.2c0-0.08,0.01-0.16,0.01-0.26c0.01-0.09,0.01-0.19,0.02-0.29
			c0-0.05,0.01-0.13,0.02-0.25c0.01-0.12,0.03-0.25,0.05-0.4c0.02-0.15,0.05-0.3,0.08-0.45c0.03-0.16,0.07-0.3,0.11-0.43
			c0.04-0.13,0.09-0.24,0.14-0.32c0.05-0.08,0.11-0.12,0.18-0.12c0.04,0,0.07,0.02,0.08,0.06c0.02,0.04,0.03,0.12,0.03,0.23
			c0,0.08-0.01,0.2-0.02,0.34c-0.01,0.11-0.03,0.22-0.05,0.35c-0.03,0.12-0.06,0.25-0.09,0.37c-0.04,0.13-0.07,0.25-0.12,0.38
			c-0.04,0.12-0.08,0.24-0.13,0.36C33.4,42.9,33.29,43.17,33.18,43.43z"/>
		<path class="st1" d="M35.44,40.11c-0.04-0.03-0.08-0.05-0.13-0.06c-0.05-0.01-0.1-0.02-0.15-0.02c-0.06,0-0.12,0.01-0.19,0.03
			c-0.06,0.02-0.12,0.04-0.17,0.08c-0.05,0.03-0.09,0.08-0.12,0.12c-0.03,0.05-0.05,0.1-0.05,0.17c-0.02,0.21-0.04,0.4-0.05,0.58
			c-0.01,0.08-0.01,0.15-0.02,0.23c-0.01,0.08-0.01,0.15-0.02,0.23c0,0.07-0.01,0.14-0.01,0.19c0,0.06,0,0.11,0,0.14
			c0,0.1,0.02,0.18,0.07,0.23c0.05,0.05,0.11,0.08,0.17,0.08c0.07,0,0.13-0.02,0.2-0.07c0.06-0.05,0.11-0.12,0.15-0.22
			c0.03-0.07,0.06-0.16,0.09-0.27c0.03-0.11,0.07-0.22,0.1-0.34c0.04-0.12,0.07-0.24,0.1-0.35s0.07-0.23,0.09-0.33
			c0.01-0.03,0.01-0.06,0.02-0.08c0-0.03,0.01-0.05,0.01-0.08c0-0.06-0.01-0.11-0.03-0.15C35.51,40.17,35.48,40.14,35.44,40.11z"/>
		<path class="st1" d="M67.22,44.38c-0.1,0.07-0.2,0.14-0.29,0.19c-0.1,0.05-0.19,0.1-0.29,0.14s-0.18,0.08-0.27,0.12
			c-0.09,0.04-0.17,0.08-0.24,0.13c0-0.13,0-0.25-0.01-0.34c-0.01-0.1-0.02-0.18-0.04-0.26c-0.02-0.07-0.03-0.14-0.05-0.2
			c-0.02-0.06-0.03-0.11-0.05-0.16c-0.02-0.05-0.03-0.1-0.04-0.15c-0.01-0.05-0.01-0.11-0.01-0.17c0.01-0.02,0.03-0.06,0.07-0.1
			s0.09-0.1,0.13-0.15c0.05-0.06,0.09-0.11,0.13-0.17c0.04-0.06,0.06-0.11,0.06-0.16c0-0.02,0-0.05-0.01-0.09
			c0-0.03-0.02-0.07-0.04-0.1c-0.02-0.03-0.06-0.06-0.12-0.08c-0.05-0.02-0.13-0.03-0.23-0.03c-0.06,0-0.11,0.01-0.16,0.03
			c-0.05,0.02-0.09,0.04-0.13,0.07c-0.04,0.03-0.08,0.06-0.11,0.09c-0.03,0.03-0.06,0.07-0.09,0.11c-0.13,0.16-0.24,0.3-0.32,0.41
			c-0.08,0.11-0.15,0.2-0.21,0.28c-0.06,0.08-0.11,0.14-0.15,0.2c-0.04,0.06-0.09,0.11-0.14,0.17c-0.05,0.05-0.11,0.11-0.19,0.18
			c-0.04,0.04-0.09,0.08-0.15,0.13v-0.18c-0.06,0.07-0.13,0.13-0.21,0.2c-0.08,0.06-0.16,0.13-0.24,0.19
			c-0.08,0.06-0.17,0.11-0.25,0.16c-0.09,0.05-0.17,0.09-0.24,0.13c-0.08,0.04-0.15,0.06-0.21,0.08c-0.06,0.02-0.12,0.03-0.16,0.03
			c-0.07,0-0.13-0.01-0.19-0.03c-0.06-0.02-0.1-0.06-0.14-0.11c-0.04-0.05-0.07-0.11-0.09-0.19c-0.02-0.08-0.03-0.17-0.03-0.28
			c0-0.04,0-0.09,0-0.14c0-0.05,0-0.1,0-0.16c0-0.06,0-0.11,0.01-0.17c0-0.06,0-0.11,0.01-0.17c0.01-0.12,0.01-0.25,0.02-0.38
			c0.05-0.06,0.11-0.14,0.17-0.21c0.06-0.08,0.12-0.16,0.18-0.24h1.19c0.05,0,0.09-0.02,0.14-0.07c0.04-0.05,0.06-0.1,0.06-0.18
			c0-0.06-0.01-0.11-0.03-0.15c-0.02-0.04-0.05-0.06-0.09-0.06c-0.03,0-0.08,0-0.13-0.01c-0.05,0-0.11,0-0.17-0.01
			c-0.06,0-0.13,0-0.19-0.01c-0.07,0-0.13-0.01-0.18-0.01c-0.06,0-0.11,0-0.15,0c-0.04,0-0.07,0-0.09,0
			c0.07-0.12,0.14-0.24,0.21-0.35c0.07-0.12,0.12-0.24,0.17-0.35c0.05-0.12,0.09-0.23,0.12-0.34c0.03-0.11,0.04-0.22,0.04-0.32
			c0-0.12-0.01-0.23-0.04-0.34c-0.03-0.11-0.07-0.21-0.12-0.29c-0.05-0.08-0.11-0.15-0.19-0.2c-0.07-0.05-0.15-0.07-0.24-0.07
			c-0.14,0-0.27,0.06-0.4,0.18c-0.13,0.12-0.24,0.29-0.35,0.49s-0.2,0.43-0.29,0.69c-0.09,0.26-0.16,0.53-0.21,0.81
			c-0.02,0-0.06,0.01-0.11,0c-0.05,0-0.12,0-0.19,0c-0.07,0-0.14,0-0.22,0c-0.08,0-0.14,0.01-0.21,0.02
			c-0.06,0.01-0.11,0.03-0.15,0.05c-0.04,0.02-0.06,0.05-0.06,0.09c0,0.02,0,0.04,0,0.07c0,0.03,0.01,0.05,0.02,0.07
			c0.01,0.02,0.03,0.04,0.06,0.06s0.06,0.03,0.11,0.04c0.11,0.01,0.2,0.02,0.25,0.03c0.06,0.01,0.11,0.02,0.15,0.02
			c0.04,0.01,0.07,0.01,0.11,0.02c0.03,0.01,0.08,0.01,0.14,0.02c-0.02,0.14-0.03,0.28-0.04,0.42c-0.01,0.14-0.02,0.27-0.02,0.4
			c0,0.28,0.02,0.54,0.05,0.77c-0.1,0.1-0.19,0.19-0.28,0.27c-0.05,0.04-0.1,0.08-0.14,0.12c-0.05,0.04-0.1,0.07-0.14,0.1
			c-0.05,0.03-0.09,0.05-0.13,0.07c-0.04,0.02-0.08,0.03-0.11,0.03c-0.07,0-0.12-0.04-0.15-0.12c-0.03-0.08-0.05-0.19-0.05-0.31
			c0-0.08,0-0.16,0.01-0.25c0.01-0.09,0.02-0.18,0.04-0.27s0.03-0.18,0.05-0.27s0.03-0.17,0.05-0.24c0.01-0.07,0.03-0.14,0.04-0.19
			c0.01-0.05,0.01-0.09,0.01-0.11c0-0.15-0.03-0.27-0.09-0.36c-0.06-0.09-0.14-0.13-0.25-0.13s-0.2,0.02-0.28,0.06
			c-0.08,0.04-0.16,0.12-0.23,0.23c-0.01,0.02-0.04,0.06-0.06,0.11c-0.03,0.05-0.06,0.11-0.1,0.18c-0.03,0.07-0.07,0.14-0.11,0.21
			c-0.04,0.07-0.08,0.14-0.11,0.21c-0.04,0.07-0.07,0.12-0.09,0.17c-0.03,0.05-0.05,0.09-0.06,0.11h-0.06c0-0.01,0-0.04,0.01-0.08
			c0.01-0.04,0.01-0.09,0.02-0.15c0.01-0.06,0.02-0.12,0.03-0.19c0.01-0.07,0.02-0.13,0.03-0.19c0.01-0.06,0.02-0.12,0.02-0.17
			c0.01-0.05,0.01-0.09,0.01-0.12c0-0.11-0.02-0.2-0.06-0.27c-0.04-0.07-0.12-0.1-0.23-0.1s-0.2,0.03-0.26,0.1
			c-0.06,0.06-0.11,0.14-0.13,0.24c-0.03,0.12-0.06,0.27-0.09,0.44c-0.03,0.17-0.06,0.35-0.08,0.53c-0.01,0.09-0.02,0.17-0.03,0.26
			l-0.01-0.01c-0.08,0.08-0.18,0.16-0.29,0.25c-0.12,0.09-0.24,0.17-0.37,0.24c-0.13,0.07-0.26,0.14-0.4,0.19
			c-0.14,0.05-0.27,0.07-0.39,0.07c-0.04,0-0.08,0-0.11-0.01c-0.03-0.01-0.07-0.02-0.1-0.04c-0.03-0.02-0.06-0.05-0.09-0.09
			c-0.03-0.04-0.06-0.08-0.09-0.14c0.18-0.05,0.35-0.12,0.5-0.21c0.15-0.09,0.29-0.19,0.4-0.3c0.11-0.11,0.2-0.23,0.26-0.36
			c0.06-0.13,0.09-0.26,0.09-0.38c0-0.12-0.02-0.22-0.06-0.32c-0.04-0.09-0.1-0.18-0.17-0.24s-0.16-0.12-0.26-0.16
			c-0.1-0.04-0.21-0.06-0.32-0.06c-0.14,0-0.27,0.03-0.39,0.08c-0.12,0.05-0.22,0.12-0.31,0.2c-0.09,0.09-0.18,0.18-0.25,0.3
			c-0.07,0.11-0.13,0.23-0.17,0.35c-0.05,0.12-0.08,0.25-0.1,0.38c-0.02,0.11-0.03,0.22-0.03,0.32c-0.03,0.04-0.07,0.07-0.1,0.11
			c-0.11,0.11-0.22,0.21-0.34,0.31c-0.12,0.09-0.24,0.17-0.36,0.23c-0.12,0.06-0.23,0.09-0.33,0.09c-0.1,0-0.18-0.02-0.25-0.07
			c-0.06-0.04-0.11-0.1-0.15-0.17c-0.04-0.07-0.06-0.14-0.08-0.22c-0.01-0.08-0.02-0.16-0.02-0.23c0-0.05,0-0.11,0.01-0.18
			c0-0.07,0.01-0.15,0.03-0.23c0.01-0.08,0.03-0.16,0.06-0.24c0.02-0.08,0.06-0.15,0.1-0.22c0.04-0.06,0.09-0.12,0.15-0.16
			c0.06-0.04,0.13-0.06,0.22-0.06c0.03,0,0.06,0.02,0.07,0.05c0.01,0.03,0.02,0.07,0.02,0.12c0,0.03,0,0.07,0,0.11
			c0,0.04,0,0.08,0,0.12c0,0.09,0.01,0.16,0.04,0.21c0.03,0.05,0.09,0.08,0.19,0.08c0.06,0,0.12-0.02,0.17-0.05
			c0.05-0.03,0.1-0.08,0.13-0.13c0.04-0.05,0.06-0.12,0.08-0.18c0.02-0.07,0.03-0.14,0.03-0.21c0-0.1-0.02-0.19-0.06-0.28
			c-0.04-0.09-0.1-0.16-0.17-0.23c-0.07-0.06-0.16-0.11-0.26-0.15c-0.1-0.04-0.21-0.05-0.33-0.05c-0.14,0-0.26,0.03-0.38,0.08
			c-0.12,0.05-0.22,0.12-0.31,0.2c-0.09,0.09-0.18,0.18-0.25,0.3c-0.07,0.11-0.13,0.23-0.18,0.36c-0.05,0.12-0.08,0.25-0.11,0.38
			c-0.02,0.13-0.04,0.25-0.04,0.37c0,0.05,0.01,0.1,0.01,0.14c-0.05,0.03-0.11,0.06-0.16,0.08c-0.09,0.04-0.18,0.08-0.27,0.12
			c-0.09,0.04-0.17,0.08-0.24,0.13c0-0.13,0-0.25-0.01-0.34c-0.01-0.1-0.02-0.18-0.04-0.26c-0.02-0.07-0.03-0.14-0.05-0.2
			c-0.02-0.06-0.03-0.11-0.05-0.16c-0.02-0.05-0.03-0.1-0.04-0.15c-0.01-0.05-0.01-0.11-0.01-0.17c0.01-0.02,0.03-0.06,0.07-0.1
			s0.09-0.1,0.13-0.15c0.05-0.06,0.09-0.11,0.13-0.17c0.04-0.06,0.06-0.11,0.06-0.16c0-0.02,0-0.05-0.01-0.09
			c0-0.03-0.02-0.07-0.04-0.1c-0.02-0.03-0.06-0.06-0.12-0.08s-0.13-0.03-0.23-0.03c-0.06,0-0.11,0.01-0.16,0.03
			c-0.05,0.02-0.09,0.04-0.13,0.07c-0.04,0.03-0.08,0.06-0.11,0.09c-0.03,0.03-0.06,0.07-0.09,0.11c-0.13,0.16-0.24,0.3-0.32,0.41
			c-0.08,0.11-0.15,0.2-0.21,0.28c-0.06,0.08-0.11,0.14-0.15,0.2c-0.04,0.06-0.09,0.11-0.14,0.17c-0.05,0.05-0.11,0.11-0.19,0.18
			c-0.02,0.02-0.06,0.05-0.08,0.08l-0.05-0.05c-0.08,0.08-0.18,0.16-0.29,0.25c-0.12,0.09-0.24,0.17-0.37,0.24
			c-0.13,0.07-0.26,0.14-0.4,0.19c-0.14,0.05-0.27,0.07-0.39,0.07c-0.04,0-0.08,0-0.11-0.01c-0.03-0.01-0.07-0.02-0.1-0.04
			c-0.03-0.02-0.06-0.05-0.09-0.09c-0.03-0.04-0.06-0.08-0.09-0.14c0.18-0.05,0.35-0.12,0.5-0.21s0.29-0.19,0.4-0.3
			c0.11-0.11,0.2-0.23,0.26-0.36c0.06-0.13,0.09-0.26,0.09-0.38c0-0.12-0.02-0.22-0.06-0.32c-0.04-0.09-0.1-0.18-0.17-0.24
			c-0.07-0.07-0.16-0.12-0.26-0.16c-0.1-0.04-0.21-0.06-0.32-0.06c-0.14,0-0.27,0.03-0.39,0.08s-0.22,0.12-0.31,0.2
			c-0.09,0.09-0.18,0.18-0.25,0.3c-0.07,0.11-0.13,0.23-0.17,0.35c-0.05,0.12-0.08,0.25-0.1,0.38c-0.02,0.13-0.03,0.25-0.03,0.37
			c0,0.04,0.01,0.07,0.01,0.1c-0.07,0.05-0.13,0.09-0.19,0.13c-0.06,0.04-0.11,0.07-0.17,0.11c-0.06,0.04-0.12,0.07-0.17,0.1
			c-0.06,0.03-0.11,0.05-0.16,0.07c-0.05,0.02-0.1,0.02-0.13,0.02c-0.02,0-0.03-0.01-0.05-0.04c-0.02-0.02-0.04-0.06-0.05-0.1
			c-0.02-0.04-0.03-0.09-0.04-0.14c-0.01-0.05-0.02-0.1-0.02-0.16v-0.04c0.01-0.04,0.01-0.08,0.02-0.13
			c0.01-0.04,0.02-0.08,0.03-0.12c0.01-0.04,0.02-0.07,0.03-0.11c0.01-0.03,0.02-0.06,0.03-0.08c0.09-0.19,0.2-0.38,0.3-0.57
			c0.11-0.19,0.22-0.39,0.32-0.59c0.11-0.2,0.21-0.4,0.31-0.61s0.19-0.41,0.26-0.61c0.08-0.2,0.13-0.4,0.18-0.61
			c0.04-0.2,0.07-0.4,0.07-0.59c0-0.09-0.01-0.17-0.02-0.25c-0.01-0.08-0.04-0.16-0.07-0.22c-0.03-0.07-0.08-0.12-0.14-0.16
			c-0.06-0.04-0.13-0.06-0.22-0.06c-0.13,0-0.26,0.04-0.38,0.12c-0.13,0.08-0.25,0.19-0.36,0.32c-0.12,0.14-0.23,0.3-0.33,0.48
			c-0.11,0.18-0.2,0.38-0.29,0.59c-0.09,0.21-0.17,0.43-0.24,0.66c-0.07,0.23-0.13,0.46-0.18,0.69c-0.05,0.23-0.09,0.45-0.12,0.67
			c0,0.03-0.01,0.06-0.01,0.09c-0.12-0.12-0.25-0.23-0.38-0.32c-0.15-0.1-0.31-0.18-0.48-0.24c-0.17-0.06-0.35-0.09-0.55-0.09
			c-0.23,0-0.43,0.04-0.62,0.12c-0.18,0.08-0.34,0.2-0.46,0.34c-0.13,0.15-0.22,0.32-0.29,0.51c-0.07,0.2-0.1,0.41-0.1,0.63
			c0,0.16,0.02,0.32,0.05,0.47c-0.02,0.01-0.04,0.02-0.06,0.04c-0.05,0.03-0.1,0.05-0.15,0.06C43.75,44.99,43.7,45,43.67,45
			c-0.04,0-0.08-0.01-0.1-0.04c-0.03-0.02-0.05-0.06-0.07-0.1c-0.02-0.04-0.03-0.09-0.04-0.14c-0.01-0.05-0.01-0.11-0.01-0.17
			c0-0.05,0-0.1,0.01-0.15c0.01-0.05,0.01-0.1,0.02-0.15c0.01-0.05,0.02-0.09,0.03-0.13c0.01-0.04,0.02-0.08,0.03-0.11
			c0.11-0.26,0.22-0.51,0.33-0.75c0.11-0.24,0.22-0.48,0.31-0.73c0.1-0.25,0.18-0.5,0.25-0.75c0.07-0.26,0.12-0.53,0.15-0.82
			c0.01-0.08,0.01-0.15,0.01-0.22c0-0.12-0.01-0.23-0.03-0.34c-0.02-0.11-0.05-0.21-0.09-0.29c-0.04-0.08-0.1-0.15-0.17-0.2
			c-0.07-0.05-0.15-0.08-0.25-0.08c-0.13,0-0.26,0.04-0.38,0.12c-0.12,0.08-0.24,0.19-0.35,0.34c-0.11,0.14-0.21,0.31-0.3,0.51
			c-0.09,0.2-0.17,0.41-0.24,0.65s-0.12,0.48-0.16,0.73c-0.04,0.26-0.06,0.52-0.07,0.78c-0.16,0.01-0.3,0.05-0.44,0.11
			c-0.14,0.06-0.27,0.13-0.38,0.22c-0.12,0.09-0.22,0.19-0.31,0.3c-0.09,0.11-0.17,0.23-0.24,0.36c-0.06,0.11-0.1,0.22-0.13,0.33
			c-0.21,0.4-0.41,0.7-0.59,0.89c-0.17,0.19-0.32,0.28-0.44,0.28c-0.05,0-0.11-0.01-0.16-0.12c-0.04-0.1-0.07-0.26-0.07-0.47
			c0-0.43,0.08-1.02,0.24-1.73c0.16-0.71,0.35-1.38,0.56-1.98c0.26-0.73,0.39-0.95,0.46-1l0.06-0.05l-0.06-0.05
			c-0.25-0.23-0.44-0.34-0.61-0.34c-0.13,0-0.38,0.1-1.12,0.94c-0.53,0.6-1.1,1.36-1.71,2.23c-0.28-0.03-0.47-0.05-0.58-0.05
			c-0.53,0-0.88,0.19-1.02,0.58L36,43.51h0.09c0.42,0,0.8,0.01,1.1,0.03c-0.34,0.53-0.62,1.01-0.83,1.43
			c-0.23,0.45-0.34,0.78-0.34,1c0,0.23,0.14,0.43,0.41,0.57l0.06,0.03l0.03-0.06c0.45-1.03,0.93-2.01,1.43-2.9
			c0.45,0.05,0.81,0.1,1.08,0.14c-0.06,0.39-0.1,0.71-0.1,0.97c0,0.42,0.06,0.75,0.18,0.98c0.13,0.24,0.33,0.37,0.61,0.37
			c0.31,0,0.62-0.15,0.91-0.45c0.14-0.15,0.27-0.32,0.39-0.52c0,0.01,0,0.01,0,0.02c0.03,0.12,0.08,0.23,0.15,0.33
			c0.06,0.1,0.15,0.17,0.24,0.23c0.1,0.06,0.21,0.09,0.35,0.09c0.09,0,0.19-0.01,0.28-0.04c0.09-0.03,0.19-0.07,0.28-0.12
			c0.09-0.05,0.18-0.11,0.27-0.17c0.09-0.07,0.17-0.14,0.24-0.21c0.05,0.12,0.11,0.22,0.17,0.29c0.07,0.07,0.13,0.13,0.2,0.17
			c0.07,0.04,0.13,0.06,0.19,0.08c0.06,0.01,0.1,0.02,0.13,0.02c0.05,0,0.11-0.01,0.17-0.03c0.06-0.02,0.12-0.04,0.19-0.07
			c0.06-0.03,0.13-0.06,0.19-0.1c0.07-0.04,0.13-0.07,0.19-0.11c0,0,0.01-0.01,0.01-0.01c0.06,0.07,0.14,0.14,0.22,0.19
			c0.13,0.08,0.28,0.12,0.46,0.12c0.13,0,0.24-0.02,0.35-0.06c0.11-0.04,0.21-0.1,0.31-0.18c0.09-0.07,0.18-0.16,0.25-0.26
			c0.07-0.1,0.13-0.21,0.19-0.32c0.05-0.12,0.09-0.23,0.12-0.36s0.04-0.25,0.04-0.37s-0.01-0.25-0.04-0.38
			c-0.03-0.13-0.07-0.26-0.13-0.38l0.02-0.03c0.07,0.05,0.16,0.11,0.27,0.18c0.1,0.07,0.21,0.15,0.31,0.23
			c0.06,0.04,0.11,0.09,0.16,0.14c0,0.24,0.02,0.47,0.06,0.68c0.04,0.22,0.1,0.41,0.17,0.57s0.15,0.3,0.25,0.39
			c0.1,0.1,0.2,0.15,0.31,0.15c0.07,0,0.15-0.01,0.23-0.03c0.08-0.02,0.16-0.05,0.25-0.08c0.08-0.03,0.17-0.07,0.25-0.11
			s0.16-0.08,0.24-0.13c0.09-0.05,0.18-0.11,0.27-0.17c0.03,0.04,0.05,0.09,0.08,0.13c0.1,0.12,0.22,0.21,0.36,0.28
			c0.15,0.07,0.31,0.11,0.51,0.11c0.12,0,0.25-0.01,0.37-0.04c0.12-0.03,0.24-0.06,0.35-0.11c0.11-0.05,0.22-0.1,0.32-0.16
			c0.1-0.06,0.2-0.12,0.29-0.18c0.04-0.03,0.08-0.06,0.11-0.09c0.01,0,0.01,0,0.02,0c0.01,0.11,0.04,0.21,0.09,0.28
			c0.05,0.08,0.11,0.14,0.19,0.19c0.08,0.05,0.17,0.08,0.28,0.11c0.11,0.02,0.22,0.03,0.34,0.03c0.17,0,0.35-0.02,0.54-0.06
			c0.19-0.04,0.37-0.09,0.56-0.16c0.18-0.07,0.36-0.14,0.53-0.23c0.07-0.04,0.14-0.08,0.21-0.12c0.03,0.05,0.06,0.1,0.1,0.14
			c0.1,0.12,0.22,0.21,0.36,0.28c0.14,0.07,0.31,0.11,0.5,0.11c0.11,0,0.22-0.02,0.32-0.05c0.11-0.03,0.21-0.08,0.31-0.13
			c0.1-0.05,0.19-0.12,0.28-0.19c0.09-0.07,0.17-0.14,0.25-0.22c0.06-0.06,0.12-0.13,0.18-0.2c0.05,0.15,0.12,0.28,0.21,0.4
			c0.1,0.12,0.22,0.21,0.36,0.28c0.15,0.07,0.31,0.11,0.51,0.11c0.12,0,0.25-0.01,0.37-0.04c0.12-0.03,0.24-0.06,0.35-0.11
			c0.11-0.05,0.22-0.1,0.32-0.16c0.1-0.06,0.2-0.12,0.29-0.18c0.04-0.03,0.09-0.07,0.13-0.1c0,0.06,0,0.13,0.01,0.19
			c0.01,0.08,0.03,0.15,0.06,0.21c0.03,0.06,0.07,0.11,0.12,0.15c0.05,0.04,0.12,0.05,0.2,0.05c0.07,0,0.13-0.02,0.18-0.05
			c0.05-0.03,0.1-0.09,0.14-0.17l0.81-1.61h0.05c-0.02,0.16-0.05,0.32-0.06,0.46c-0.02,0.14-0.02,0.28-0.02,0.4
			c0,0.31,0.04,0.55,0.12,0.72c0.08,0.16,0.17,0.25,0.29,0.25c0.11,0,0.22-0.02,0.32-0.05s0.2-0.07,0.3-0.12
			c0.09-0.05,0.19-0.11,0.27-0.17c0.09-0.06,0.17-0.13,0.26-0.19l0.15-0.12l-0.01-0.13c0.03,0.08,0.05,0.16,0.09,0.23
			c0.08,0.18,0.18,0.31,0.3,0.41c0.12,0.09,0.26,0.14,0.41,0.14c0.08,0,0.16-0.01,0.25-0.04c0.09-0.03,0.2-0.07,0.32-0.13
			c0.12-0.06,0.26-0.13,0.41-0.22c0.1-0.05,0.21-0.12,0.32-0.18c0,0,0.01,0,0.01,0c0.03,0,0.05,0,0.08,0c0.03,0,0.06-0.01,0.08-0.01
			c0.01,0.11,0.04,0.21,0.09,0.28c0.05,0.08,0.11,0.14,0.19,0.19c0.08,0.05,0.17,0.08,0.28,0.11c0.11,0.02,0.22,0.03,0.34,0.03
			c0.17,0,0.35-0.02,0.54-0.06c0.19-0.04,0.37-0.09,0.56-0.16c0.18-0.07,0.36-0.14,0.53-0.23c0.17-0.09,0.32-0.18,0.44-0.28
			L67.22,44.38z M62.68,41.91c0.04-0.18,0.09-0.34,0.14-0.49c0.05-0.15,0.1-0.27,0.16-0.36c0.05-0.09,0.11-0.14,0.16-0.14
			c0.04,0,0.07,0.01,0.09,0.02c0.02,0.02,0.04,0.04,0.05,0.06c0.01,0.02,0.02,0.05,0.02,0.08c0,0.03,0,0.05,0,0.08
			c0,0.07-0.02,0.15-0.05,0.25c-0.04,0.1-0.08,0.21-0.13,0.33c-0.05,0.12-0.11,0.24-0.18,0.36s-0.13,0.24-0.19,0.34
			c-0.03,0-0.06-0.01-0.1-0.01c-0.03,0-0.06-0.01-0.09-0.01C62.59,42.26,62.63,42.09,62.68,41.91z M39.53,41.82
			c-0.15,0.47-0.28,0.94-0.38,1.38c-0.08-0.02-0.19-0.04-0.32-0.08l-0.53-0.11c0.34-0.58,0.67-1.08,0.98-1.51
			c0.23-0.32,0.45-0.58,0.64-0.77C39.78,41.07,39.65,41.43,39.53,41.82z M42.46,44.79c-0.02,0.04-0.05,0.08-0.08,0.12
			c-0.03,0.04-0.06,0.07-0.09,0.1c-0.03,0.03-0.07,0.05-0.1,0.07c-0.04,0.02-0.07,0.03-0.11,0.03c-0.07,0-0.13-0.01-0.18-0.03
			c-0.05-0.02-0.08-0.05-0.1-0.08c-0.02-0.03-0.04-0.07-0.05-0.11c-0.01-0.04-0.01-0.08-0.01-0.12c0-0.1,0.02-0.22,0.06-0.35
			c0.04-0.13,0.09-0.25,0.16-0.38c0.07-0.13,0.16-0.24,0.27-0.35c0.11-0.11,0.23-0.2,0.36-0.26c0,0,0,0.02,0.01,0.06s0,0.1,0,0.17
			c0,0.07,0,0.14,0,0.23c0,0.08,0,0.16,0.01,0.24c0,0.08,0.01,0.15,0.01,0.21c0,0.06,0.01,0.11,0.02,0.14
			C42.57,44.58,42.52,44.69,42.46,44.79z M43.31,43.43V43.4c0-0.03,0-0.08,0-0.13s0-0.12,0-0.2c0-0.08,0.01-0.16,0.01-0.26
			c0.01-0.09,0.01-0.19,0.02-0.29c0-0.05,0.01-0.13,0.02-0.25c0.01-0.12,0.03-0.25,0.05-0.4c0.02-0.15,0.05-0.3,0.08-0.45
			c0.03-0.16,0.07-0.3,0.11-0.43c0.04-0.13,0.09-0.24,0.14-0.32c0.05-0.08,0.11-0.12,0.18-0.12c0.04,0,0.07,0.02,0.08,0.06
			c0.02,0.04,0.03,0.12,0.03,0.23c0,0.08-0.01,0.2-0.02,0.34c-0.01,0.11-0.03,0.22-0.05,0.35c-0.03,0.12-0.06,0.25-0.09,0.37
			c-0.04,0.13-0.07,0.25-0.12,0.38c-0.04,0.12-0.08,0.24-0.13,0.36C43.54,42.9,43.43,43.17,43.31,43.43z M45.58,44.43
			c-0.03,0.13-0.07,0.25-0.12,0.36c-0.05,0.11-0.11,0.2-0.17,0.27c-0.07,0.07-0.13,0.11-0.2,0.11c-0.08,0-0.15-0.02-0.21-0.05
			c-0.06-0.03-0.1-0.08-0.14-0.14c-0.03-0.06-0.06-0.12-0.08-0.2c-0.02-0.08-0.02-0.16-0.02-0.24c0-0.13,0.02-0.26,0.05-0.39
			c0.03-0.14,0.08-0.26,0.14-0.37c0.06-0.11,0.12-0.2,0.2-0.28c0.08-0.07,0.16-0.11,0.24-0.11c0.06,0,0.12,0.02,0.16,0.05
			c0.05,0.04,0.08,0.08,0.11,0.14c0.03,0.06,0.05,0.13,0.06,0.21c0.01,0.08,0.02,0.17,0.02,0.26C45.63,44.18,45.61,44.3,45.58,44.43
			z M47.64,42.68c0.03-0.21,0.07-0.41,0.12-0.61c0.05-0.2,0.11-0.38,0.17-0.56c0.06-0.17,0.13-0.33,0.2-0.46
			c0.07-0.13,0.14-0.24,0.21-0.31c0.07-0.08,0.13-0.12,0.19-0.12c0.02,0,0.03,0.02,0.03,0.06c0,0.04,0,0.09,0,0.15
			c-0.02,0.19-0.06,0.39-0.13,0.61s-0.15,0.43-0.24,0.65c-0.09,0.22-0.19,0.43-0.29,0.64c-0.1,0.21-0.2,0.39-0.29,0.56
			C47.59,43.09,47.61,42.89,47.64,42.68z M49.38,44.14c0-0.06,0.01-0.13,0.03-0.2c0.01-0.07,0.03-0.14,0.06-0.2
			c0.03-0.07,0.06-0.13,0.1-0.18c0.04-0.05,0.09-0.1,0.16-0.13c0.06-0.03,0.14-0.05,0.23-0.05c0.05,0,0.09,0.03,0.12,0.09
			c0.03,0.06,0.05,0.14,0.05,0.23c0,0.07-0.03,0.13-0.08,0.2c-0.05,0.07-0.11,0.13-0.19,0.19s-0.16,0.11-0.24,0.15
			c-0.09,0.04-0.17,0.06-0.24,0.06C49.37,44.26,49.38,44.21,49.38,44.14z M52.42,44.96c-0.01,0.06-0.03,0.11-0.06,0.15
			c-0.03,0.04-0.07,0.08-0.13,0.11c-0.05,0.03-0.12,0.04-0.2,0.04c-0.07,0-0.12-0.02-0.18-0.05c-0.05-0.03-0.1-0.06-0.14-0.1
			c-0.04-0.04-0.07-0.07-0.1-0.1c-0.03-0.03-0.06-0.05-0.08-0.05l0.79-0.79c0.01,0.03,0.02,0.07,0.04,0.12s0.03,0.1,0.04,0.15
			c0.01,0.05,0.02,0.11,0.03,0.17c0.01,0.06,0.01,0.11,0.01,0.17C52.43,44.84,52.43,44.9,52.42,44.96z M56.94,44.14
			c0-0.06,0.01-0.13,0.03-0.2c0.01-0.07,0.03-0.14,0.06-0.2c0.03-0.07,0.06-0.13,0.1-0.18c0.04-0.05,0.09-0.1,0.16-0.13
			c0.06-0.03,0.14-0.05,0.23-0.05c0.05,0,0.09,0.03,0.12,0.09s0.05,0.14,0.05,0.23c0,0.07-0.03,0.13-0.08,0.2
			c-0.05,0.07-0.11,0.13-0.19,0.19c-0.08,0.06-0.16,0.11-0.24,0.15c-0.09,0.04-0.17,0.06-0.24,0.06
			C56.94,44.26,56.94,44.21,56.94,44.14z M65.44,44.96c-0.01,0.06-0.03,0.11-0.06,0.15c-0.03,0.04-0.07,0.08-0.12,0.11
			c-0.05,0.03-0.12,0.04-0.2,0.04c-0.07,0-0.12-0.02-0.18-0.05c-0.05-0.03-0.1-0.06-0.14-0.1c-0.04-0.04-0.07-0.07-0.1-0.1
			c-0.03-0.03-0.06-0.05-0.08-0.05l0.79-0.79c0.01,0.03,0.02,0.07,0.04,0.12c0.01,0.05,0.03,0.1,0.04,0.15
			c0.01,0.05,0.02,0.11,0.03,0.17c0.01,0.06,0.01,0.11,0.01,0.17C65.46,44.84,65.45,44.9,65.44,44.96z"/>
	</g>
</g>
</svg>
