<svg xmlns="http://www.w3.org/2000/svg" id="Calque_1" data-name="Calque 1" viewBox="0 0 301.01 78.28"><defs><style>      .cls-1 {        fill: none;      }      .cls-2 {        fill: #4e548e;      }      .cls-3 {        fill: #878db4;      }      .cls-4 {        fill: #f9b54a;      }      .cls-5 {        fill: #4a528c;      }      .cls-6 {        fill: #f3a6a6;      }      .cls-7 {        fill: #b62384;      }      .cls-8 {        fill: #e74643;      }    </style></defs><g><g><path class="cls-1" d="M156.2,39.71c-.02-.17-.05-.32-.09-.44-.04-.12-.08-.19-.13-.19s-.11.06-.18.18c-.07.12-.14.26-.22.42-.08.16-.15.34-.21.53-.06.19-.11.34-.14.47h1.03c0-.11,0-.25-.01-.43,0-.18-.02-.35-.05-.53Z"></path><path class="cls-1" d="M226.41,33.11c.38-1.36.68-2.73.9-4.13s.33-2.85.33-4.36c0-.25-.01-.65-.04-1.19-.02-.55-.09-1.1-.21-1.66s-.3-1.05-.54-1.47c-.24-.42-.58-.63-1.02-.63-.34,0-.64.23-.89.69-.25.46-.47,1.08-.66,1.87-.19.79-.34,1.7-.47,2.75-.12,1.05-.23,2.15-.3,3.32-.08,1.17-.14,2.37-.18,3.6-.04,1.23-.07,2.43-.08,3.59s-.02,2.25-.02,3.26v2.64c.66-1.43,1.25-2.83,1.79-4.2.54-1.36,1-2.73,1.38-4.08Z"></path><path class="cls-1" d="M147.63,50.35c-.78.44-1.59.96-2.42,1.56-.83.6-1.65,1.26-2.43,1.98-.79.72-1.53,1.49-2.23,2.32-.7.83-1.32,1.68-1.85,2.57s-.95,1.81-1.25,2.75c-.3.94-.46,1.89-.46,2.84,0,.59.09,1.13.28,1.6.19.48.45.88.8,1.22.34.34.75.6,1.22.78s.98.28,1.54.28c2.2,0,3.91-1.17,5.15-3.5,1.23-2.33,1.85-5.74,1.85-10.21,0-.67-.02-1.35-.05-2.05-.03-.69-.08-1.41-.14-2.14Z"></path><path class="cls-1" d="M139.14,17.44c.43,0,.84.02,1.24.04-.18-.2-.34-.41-.54-.58-.65-.56-1.43-.99-2.32-1.29-.9-.3-1.87-.45-2.92-.45s-2.03.15-2.92.45c-.9.3-1.67.73-2.33,1.29-.66.56-1.17,1.25-1.54,2.07-.26.58-.4,1.24-.47,1.93,1.79-1.07,3.68-1.92,5.67-2.53,2-.62,4.05-.92,6.14-.92Z"></path><path class="cls-1" d="M243.83,46.12c.28-.37.5-.77.66-1.18s.23-.83.23-1.25c0-.47-.12-.82-.35-1.06-.23-.24-.51-.36-.82-.36-.42,0-.78.12-1.08.35-.3.23-.54.54-.73.91-.19.37-.32.79-.41,1.25-.09.46-.13.92-.13,1.37,0,.28.03.58.08.89s.12.61.2.89c.48-.2.92-.46,1.32-.77.4-.31.74-.66,1.02-1.03Z"></path><polygon class="cls-1" points="209.32 16.02 205.14 25.05 213.63 25.05 209.32 16.02"></polygon><path class="cls-1" d="M252.45,39.71c-.02-.17-.05-.32-.09-.44s-.08-.19-.13-.19-.11.06-.18.18c-.07.12-.14.26-.22.42-.08.16-.15.34-.21.53-.06.19-.11.34-.14.47h1.03c0-.11,0-.25-.01-.43,0-.18-.02-.35-.05-.53Z"></path><path class="cls-1" d="M187.97,27.77c.91-.31,1.67-.75,2.27-1.32.61-.57,1.06-1.26,1.37-2.06.31-.81.46-1.71.46-2.7s-.15-1.86-.46-2.64-.76-1.45-1.37-2c-.61-.55-1.36-.97-2.27-1.27-.91-.3-1.96-.45-3.17-.45h-4.25v12.89h4.25c1.2,0,2.26-.15,3.17-.46Z"></path><path class="cls-1" d="M129.34,26.6c.66.58,1.43,1.03,2.33,1.34s1.87.47,2.92.47,2.03-.16,2.92-.47c.9-.31,1.67-.76,2.32-1.34.65-.58,1.17-1.28,1.54-2.11.37-.82.56-1.75.56-2.77,0-.88-.17-1.66-.44-2.39-.74-.09-1.52-.14-2.36-.14-1.79,0-3.6.27-5.42.81-1.82.54-3.56,1.29-5.23,2.27-.39.23-.75.5-1.12.74.09.52.23,1.02.43,1.48.37.82.88,1.53,1.54,2.11Z"></path><path class="cls-1" d="M269.96,16.89c-.65-.56-1.43-.99-2.32-1.29-.9-.3-1.87-.45-2.92-.45s-2.03.15-2.92.45c-.9.3-1.67.73-2.33,1.29-.66.56-1.17,1.25-1.54,2.07-.37.81-.55,1.74-.55,2.76s.18,1.95.55,2.77.88,1.53,1.54,2.11c.66.58,1.43,1.03,2.33,1.34.9.31,1.87.47,2.92.47s2.03-.16,2.92-.47,1.67-.76,2.32-1.34c.65-.58,1.17-1.28,1.54-2.11.37-.82.56-1.75.56-2.77s-.19-1.95-.56-2.76c-.37-.81-.89-1.5-1.54-2.07Z"></path><polygon class="cls-3" points="118.41 20.57 106.73 20.57 106.73 15.37 120.49 15.37 120.49 11.83 102.7 11.83 102.7 31.72 106.73 31.72 106.73 23.89 118.41 23.89 118.41 20.57"></polygon><path class="cls-3" d="M152.21,24.57c.31.64.56,1.26.74,1.85.18.59.31,1.12.4,1.57s.14.82.16,1.1c.02.28.04.43.04.44,0,.23-.08.44-.25.63-.16.19-.37.28-.62.28-.23,0-.44-.08-.61-.23s-.27-.37-.3-.63c-.02-.06-.05-.36-.11-.89-.05-.53-.21-1.18-.47-1.95-.18-.54-.46-1.13-.77-1.73v6.71h4.03v-15.58l12.4,6.45v9.13h4.03V11.83h-4.03v6.49l-12.4-6.49h-4.03v10.09c.08.09.18.18.26.28.65.83,1.16,1.63,1.53,2.37Z"></path><path class="cls-3" d="M189.38,30.98c1.57-.5,2.87-1.2,3.89-2.1,1.03-.9,1.79-1.96,2.29-3.18s.75-2.56.75-4c0-1.52-.25-2.89-.76-4.1-.5-1.22-1.27-2.25-2.3-3.11-1.03-.85-2.33-1.51-3.9-1.97-1.57-.46-3.42-.69-5.55-.69h-7.29v19.89h7.32c2.13.01,3.98-.24,5.55-.74ZM180.55,15.34h4.25c1.2,0,2.26.15,3.17.45.91.3,1.67.72,2.27,1.27.61.55,1.06,1.21,1.37,2s.46,1.67.46,2.64-.15,1.89-.46,2.7c-.31.81-.76,1.49-1.37,2.06-.61.57-1.36,1.01-2.27,1.32-.91.31-1.96.46-3.17.46h-4.25v-12.89Z"></path><path class="cls-3" d="M203.6,28.37h11.62l1.59,3.35h4.24l-9.62-19.89h-4.28l-9.34,19.89h4.25l1.54-3.35ZM209.32,16.02l4.3,9.04h-8.49l4.19-9.04Z"></path><polygon class="cls-3" points="230.13 31.72 234.17 31.72 234.17 15.37 241.51 15.37 241.51 11.83 222.79 11.83 222.79 15.37 230.13 15.37 230.13 31.72"></polygon><rect class="cls-3" x="245.3" y="11.83" width="4.06" height="19.89"></rect><path class="cls-3" d="M272.94,14.38c-1-.9-2.2-1.59-3.6-2.08-1.4-.49-2.94-.74-4.63-.74s-3.24.25-4.64.74-2.59,1.19-3.59,2.08c-1,.9-1.77,1.97-2.32,3.21-.55,1.25-.83,2.62-.83,4.12s.28,2.9.83,4.16c.55,1.26,1.33,2.34,2.32,3.25,1,.91,2.19,1.61,3.59,2.12,1.4.5,2.94.76,4.64.76s3.23-.25,4.63-.76c1.4-.5,2.6-1.21,3.6-2.12,1-.91,1.77-1.99,2.32-3.25.55-1.26.83-2.65.83-4.16s-.28-2.88-.83-4.12c-.55-1.25-1.33-2.32-2.32-3.21ZM271.5,24.49c-.37.82-.89,1.53-1.54,2.11-.65.58-1.43,1.03-2.32,1.34s-1.87.47-2.92.47-2.03-.16-2.92-.47c-.9-.31-1.67-.76-2.33-1.34-.66-.58-1.17-1.28-1.54-2.11s-.55-1.75-.55-2.77.18-1.95.55-2.76c.37-.81.88-1.5,1.54-2.07.66-.56,1.43-.99,2.33-1.29.9-.3,1.87-.45,2.92-.45s2.03.15,2.92.45c.9.3,1.67.73,2.32,1.29s1.17,1.25,1.54,2.07c.37.81.56,1.74.56,2.76s-.19,1.95-.56,2.77Z"></path><polygon class="cls-3" points="296.98 11.83 296.98 18.32 284.58 11.83 280.55 11.83 280.55 31.72 284.58 31.72 284.58 16.14 296.98 22.6 296.98 31.72 301.01 31.72 301.01 11.83 296.98 11.83"></polygon><path class="cls-2" d="M151.86,46.47s-.07,0-.12-.01c-.05,0-.16.02-.33.07-.17.05-.44.16-.81.3-.37.15-.88.39-1.53.71-.22-1.65-.38-3.21-.48-4.68s-.15-2.82-.15-4.05c0-.84.02-1.63.07-2.36.55-1.05.95-1.97,1.22-2.76.27-.8.4-1.45.4-1.97,0-.47-.12-.85-.36-1.15-.24-.3-.54-.44-.9-.44-.64,0-1.12.5-1.44,1.51-.32,1.01-.54,2.46-.67,4.36-1.12,2.01-2.39,3.93-3.81,5.74-1.42,1.82-2.99,3.41-4.71,4.77-1.72,1.36-3.6,2.45-5.62,3.25-2.02.8-4.19,1.2-6.52,1.2-1.34,0-2.59-.18-3.76-.55s-2.17-.95-3.03-1.74c-.86-.8-1.53-1.82-2.01-3.08-.48-1.26-.73-2.76-.73-4.53,0-1.95.31-3.84.92-5.69s1.46-3.57,2.53-5.19,2.33-3.11,3.78-4.46c.04-.04.09-.08.14-.12-.24-.59-.42-1.2-.54-1.84-.37.32-.75.62-1.1.96-1.52,1.48-2.83,3.1-3.94,4.85-1.11,1.75-1.97,3.6-2.6,5.54s-.94,3.91-.94,5.91c0,1.89.27,3.56.8,5.01s1.29,2.67,2.27,3.65,2.16,1.73,3.53,2.23c1.37.51,2.9.76,4.59.76,1.86,0,3.72-.28,5.6-.85,1.88-.57,3.71-1.42,5.49-2.54s3.48-2.51,5.11-4.16c1.63-1.65,3.12-3.56,4.48-5.73.03,1.42.11,2.88.23,4.39s.29,3.04.49,4.6c-.73.37-1.54.87-2.42,1.47-.88.61-1.77,1.31-2.68,2.11-.9.8-1.79,1.66-2.64,2.61-.86.94-1.62,1.95-2.28,3.01-.66,1.06-1.19,2.16-1.59,3.3-.4,1.14-.6,2.29-.6,3.46,0,.83.14,1.59.42,2.28.28.69.67,1.29,1.17,1.79.5.5,1.09.89,1.78,1.17.69.28,1.43.42,2.25.42,1.64,0,3.02-.42,4.14-1.25,1.12-.83,2.02-1.96,2.7-3.38.68-1.42,1.17-3.06,1.46-4.94.3-1.87.44-3.84.44-5.9,0-.87-.02-1.74-.07-2.6s-.11-1.71-.19-2.55c.84-.42,1.52-.73,2.02-.92.51-.19.78-.3.81-.32.19-.06.34-.17.44-.32.11-.15.16-.32.16-.5,0-.27-.09-.48-.27-.64-.18-.16-.39-.25-.62-.25ZM145.97,64.76c-1.23,2.33-2.95,3.5-5.15,3.5-.56,0-1.08-.09-1.54-.28s-.87-.45-1.22-.78c-.34-.34-.61-.74-.8-1.22-.19-.48-.28-1.01-.28-1.6,0-.95.15-1.9.46-2.84.3-.94.72-1.86,1.25-2.75s1.15-1.75,1.85-2.57c.7-.83,1.45-1.6,2.23-2.32.79-.72,1.6-1.38,2.43-1.98.83-.6,1.64-1.12,2.42-1.56.06.73.11,1.45.14,2.14.03.69.05,1.38.05,2.05,0,4.48-.62,7.88-1.85,10.21Z"></path><path class="cls-3" d="M145.92,20.62c-.5-.25-1.03-.48-1.61-.68-.83-.29-1.77-.49-2.81-.61.27.72.44,1.51.44,2.39,0,1.03-.19,1.95-.56,2.77-.37.82-.89,1.53-1.54,2.11-.65.58-1.43,1.03-2.32,1.34-.9.31-1.87.47-2.92.47s-2.03-.16-2.92-.47-1.67-.76-2.33-1.34c-.66-.58-1.17-1.28-1.54-2.11-.21-.46-.34-.96-.43-1.48-.07-.41-.12-.84-.12-1.29,0-.29.05-.56.08-.83.08-.69.21-1.35.47-1.93.37-.81.88-1.5,1.54-2.07.66-.56,1.43-.99,2.33-1.29.9-.3,1.87-.45,2.92-.45s2.03.15,2.92.45c.9.3,1.67.73,2.32,1.29.2.18.37.38.54.58,1.49.08,2.83.29,4,.65.41.13.75.28,1.13.43-.1-.33-.22-.65-.36-.96-.55-1.25-1.33-2.32-2.32-3.21-1-.9-2.2-1.59-3.6-2.08s-2.94-.74-4.63-.74-3.24.25-4.64.74c-1.4.49-2.59,1.19-3.59,2.08-1,.9-1.77,1.97-2.32,3.21-.55,1.25-.83,2.62-.83,4.12,0,.72.07,1.42.19,2.08.12.64.31,1.25.54,1.84.03.08.05.16.09.24.55,1.26,1.33,2.34,2.32,3.25,1,.91,2.19,1.61,3.59,2.12,1.4.5,2.94.76,4.64.76s3.23-.25,4.63-.76c1.4-.5,2.6-1.21,3.6-2.12,1-.91,1.77-1.99,2.32-3.25s.83-2.65.83-4.16c0-.37-.02-.74-.05-1.1Z"></path><path class="cls-2" d="M153.51,29.09c-.02-.28-.08-.65-.16-1.1s-.22-.97-.4-1.57c-.18-.59-.43-1.21-.74-1.85-.37-.75-.89-1.54-1.53-2.37-.07-.1-.18-.18-.26-.28-.61-.73-1.35-1.41-2.27-2.04-.75-.52-1.66-.94-2.65-1.32-.37-.14-.72-.3-1.13-.43-1.17-.36-2.5-.58-4-.65-.4-.02-.81-.04-1.24-.04-2.09,0-4.14.31-6.14.92-1.99.61-3.88,1.46-5.67,2.53-.03.27-.08.54-.08.83,0,.45.05.88.12,1.29.37-.25.73-.52,1.12-.74,1.67-.97,3.41-1.73,5.23-2.27,1.82-.54,3.62-.81,5.42-.81.84,0,1.62.05,2.36.14,1.04.12,1.98.32,2.81.61.58.2,1.11.44,1.61.68.72.35,1.36.75,1.91,1.19.93.75,1.66,1.56,2.19,2.44.16.26.28.5.41.75.32.6.59,1.18.77,1.73.26.77.41,1.42.47,1.95.05.53.09.83.11.89.03.27.13.48.3.63s.37.23.61.23c.25,0,.46-.09.62-.28.16-.19.25-.4.25-.63,0-.02-.01-.16-.04-.44Z"></path><path class="cls-2" d="M266.95,44.27c-.16,0-.3.04-.44.12-.14.08-.25.19-.33.33-.27.51-.6,1.12-.99,1.8-.4.69-.85,1.34-1.35,1.95-.5.62-1.04,1.14-1.64,1.58-.59.44-1.22.66-1.9.66-.22,0-.46-.04-.73-.13-.27-.09-.51-.24-.75-.46-.23-.22-.43-.51-.58-.88s-.23-.83-.23-1.39c0-.39.02-.79.07-1.19.05-.41.1-.81.16-1.23.06-.41.12-.81.16-1.2.05-.39.07-.76.07-1.12,0-.89-.23-1.53-.7-1.92-.47-.39-1.15-.58-2.04-.58-.23,0-.48,0-.74.01-.26,0-.52.01-.78.01,0-.31-.03-.68-.08-1.1s-.14-.82-.27-1.2c-.12-.38-.3-.71-.53-.97-.23-.27-.52-.4-.88-.4-.31,0-.62.16-.94.48-.31.32-.59.7-.84,1.13-.25.44-.45.88-.6,1.33-.15.45-.22.81-.22,1.08,0,.36.08.64.23.84s.35.35.6.44c.24.09.5.15.78.16s.55.02.82.02c-.14.69-.26,1.19-.35,1.52-.09.31-.16.53-.22.67-.03.05-.08.07-.1.12-.33.73-.69,1.47-1.1,2.2-.41.73-.87,1.4-1.38,1.99s-1.08,1.07-1.71,1.44c-.62.37-1.32.55-2.08.55s-1.38-.14-1.9-.41c-.51-.27-.94-.64-1.26-1.09.61-.3,1.18-.65,1.71-1.05.53-.41.99-.85,1.37-1.33.38-.48.68-1.01.9-1.57.22-.56.33-1.16.33-1.8,0-.5-.09-.94-.26-1.33-.17-.39-.4-.72-.68-.99-.28-.27-.6-.48-.95-.63-.35-.15-.71-.22-1.06-.22-.61,0-1.17.14-1.67.42-.51.28-.94.67-1.31,1.17s-.65,1.08-.84,1.75c-.06.22-.1.46-.14.69-.07.08-.15.14-.2.25-.12.27-.29.6-.49.99s-.44.81-.7,1.24-.56.86-.89,1.29-.67.82-1.03,1.17c-.36.35-.73.63-1.1.84-.37.21-.75.32-1.12.32-.33,0-.59-.09-.8-.27-.2-.18-.35-.41-.46-.7-.1-.29-.17-.62-.21-.98-.04-.37-.06-.74-.06-1.11,0-.66.04-1.28.11-1.88.07-.6.11-1.08.11-1.44,0-.44-.05-.84-.15-1.22-.1-.37-.25-.7-.44-.98-.19-.28-.44-.5-.75-.67-.3-.16-.66-.25-1.06-.25s-.84.12-1.3.36c-.46.24-.92.64-1.37,1.18-.45.56-.89,1.16-1.31,1.8-.42.64-.82,1.28-1.19,1.93-.37.65-.73,1.28-1.05,1.9-.33.62-.62,1.19-.87,1.72l-.02-1.1v-4.09c.83-1.51,1.61-3.07,2.36-4.67.75-1.6,1.4-3.24,1.97-4.92.56-1.68,1.01-3.41,1.35-5.18.34-1.77.5-3.58.5-5.42,0-.9-.06-1.77-.19-2.59-.12-.82-.33-1.54-.61-2.15-.28-.62-.65-1.1-1.1-1.46s-1.01-.54-1.66-.54c-.76,0-1.4.36-1.91,1.08-.51.72-.92,1.74-1.25,3.05-.33,1.32-.57,2.91-.74,4.77-.16,1.86-.28,3.95-.35,6.25-.07,2.3-.11,4.79-.12,7.46,0,1.34,0,2.73,0,4.14-.02.03-.06.05-.07.08-.03.09-.14.32-.32.69-.18.37-.43.8-.75,1.29-.32.49-.71,1.01-1.16,1.57-.45.55-.97,1.06-1.57,1.53-.59.47-1.25.85-1.97,1.16-.72.3-1.5.46-2.34.46-.66,0-1.22-.13-1.7-.4-.48-.27-.87-.62-1.18-1.06s-.55-.96-.7-1.53c-.16-.58-.23-1.19-.23-1.82s.09-1.31.27-1.91c.18-.6.42-1.12.71-1.57.3-.44.64-.8,1.04-1.06s.81-.4,1.25-.4c.47,0,.85.13,1.16.4s.46.56.46.89c0,.23-.03.43-.08.57-.05.15-.12.27-.19.37-.07.1-.13.2-.19.29-.05.09-.08.2-.08.33,0,.25.08.46.25.63.16.17.38.26.64.26.17,0,.34-.07.51-.2.17-.13.32-.31.46-.54s.24-.49.33-.78.13-.62.13-.96-.08-.72-.25-1.08c-.16-.36-.39-.69-.68-.98s-.64-.53-1.06-.71c-.42-.18-.89-.27-1.4-.27-.69,0-1.33.18-1.94.53-.61.35-1.14.83-1.6,1.44-.46.61-.82,1.32-1.09,2.14-.04.12-.05.25-.09.37-.01,0-.03,0-.04.01-.15.09-.26.23-.34.4-.17.41-.43.94-.78,1.59-.35.66-.76,1.3-1.24,1.93-.48.63-.99,1.18-1.56,1.64-.56.46-1.14.69-1.73.69-.33,0-.59-.07-.8-.22-.2-.15-.36-.35-.47-.61-.11-.26-.18-.56-.22-.9-.04-.34-.06-.7-.06-1.08,0-.3.01-.61.04-.95.02-.34.05-.67.07-.99.02-.33.05-.64.07-.92.02-.29.04-.53.04-.74,0-.87-.19-1.61-.58-2.2-.39-.59-.99-.89-1.8-.89-.41,0-.84.12-1.3.36-.46.24-.92.64-1.37,1.18-.45.56-.89,1.15-1.3,1.78-.41.62-.81,1.25-1.18,1.88-.37.63-.73,1.26-1.05,1.87s-.62,1.18-.87,1.7c.05-.45.1-1.01.15-1.68s.11-1.35.18-2.02c.06-.68.11-1.31.15-1.91s.06-1.03.06-1.31c0-.37-.04-.74-.11-1.1s-.18-.69-.33-.98c-.15-.3-.35-.53-.6-.71-.25-.18-.55-.27-.91-.27-.61,0-1.22.39-1.84,1.18-.62.79-1.28,2.02-1.98,3.68-.14.3-.31.65-.51,1.05-.2.41-.44.83-.7,1.26-.27.44-.56.87-.88,1.3-.32.43-.66.81-1.01,1.15-.35.34-.71.6-1.08.81-.37.2-.74.3-1.11.3-.58,0-1.03-.19-1.36-.58s-.57-.85-.74-1.38c-.16-.53-.27-1.06-.32-1.6s-.08-.96-.09-1.25c-.02-.22-.11-.41-.27-.58-.16-.17-.35-.26-.57-.26-.23,0-.44.07-.61.22-.17.15-.27.33-.3.55-.11.81-.3,1.51-.57,2.11-.27.59-.58,1.08-.91,1.47-.34.39-.69.68-1.05.87-.37.19-.69.28-.97.28-.39,0-.72-.08-.98-.23-.27-.16-.48-.36-.63-.61-.16-.25-.27-.53-.33-.83-.06-.3-.09-.6-.09-.9,0-.95.15-1.77.46-2.47.3-.69.68-1.27,1.13-1.73.45-.46.95-.8,1.5-1.02.55-.22,1.06-.33,1.54-.33.33,0,.62.04.88.11s.48.15.67.25c.19.09.34.18.44.27.11.09.18.14.21.18.17.17.38.26.63.26.23,0,.44-.09.61-.27s.26-.39.26-.62c0-.22-.09-.43-.26-.63-.02-.02-.1-.09-.26-.22-.16-.13-.38-.28-.67-.43s-.64-.3-1.04-.43c-.41-.13-.85-.2-1.33-.2-.72,0-1.46.16-2.23.47-.77.31-1.48.78-2.12,1.4-.52.51-.95,1.15-1.33,1.87-.03.01-.07,0-.1.03-.14.08-.25.19-.33.33-.27.51-.6,1.12-.99,1.8s-.85,1.34-1.35,1.95-1.05,1.14-1.64,1.58c-.59.44-1.22.66-1.9.66-.22,0-.46-.04-.73-.13-.27-.09-.51-.24-.75-.46-.23-.22-.43-.51-.58-.88s-.23-.83-.23-1.39c0-.39.02-.79.07-1.19.05-.41.1-.81.16-1.23.06-.41.12-.81.16-1.2.05-.39.07-.76.07-1.12,0-.89-.23-1.53-.7-1.92-.47-.39-1.15-.58-2.04-.58-.23,0-.48,0-.74.01-.26,0-.52.01-.78.01,0-.31-.03-.68-.08-1.1-.05-.42-.14-.82-.27-1.2s-.3-.71-.53-.97c-.23-.27-.52-.4-.88-.4-.31,0-.62.16-.94.48-.31.32-.59.7-.84,1.13-.25.44-.45.88-.6,1.33-.15.45-.22.81-.22,1.08,0,.36.08.64.23.84.16.2.35.35.6.44.24.09.5.15.78.16.28.02.55.02.82.02-.14.69-.26,1.19-.35,1.52-.09.33-.17.56-.23.7-.06.14-.11.23-.14.28s-.05.12-.05.21c0,.25.09.46.28.62.19.16.39.25.61.25.39,0,.66-.18.82-.54.02-.02.05-.11.12-.28.06-.17.14-.39.22-.67s.18-.59.27-.96c.09-.37.17-.76.23-1.18.3-.02.57-.02.83-.02h.71c.45,0,.74.07.88.22.13.15.2.37.2.67,0,.7-.08,1.44-.23,2.21-.16.77-.23,1.55-.23,2.33,0,.73.11,1.39.33,1.98s.51,1.08.88,1.47.8.7,1.3.91c.5.21,1.03.32,1.59.32.9,0,1.74-.24,2.49-.73s1.44-1.08,2.05-1.78c.33-.38.63-.78.92-1.18.04.32.11.63.21.93.18.51.43.96.76,1.35s.73.68,1.19.89c.47.21.99.32,1.57.32.73,0,1.47-.26,2.2-.78.73-.52,1.36-1.23,1.9-2.12.28.87.73,1.6,1.35,2.18.62.58,1.38.87,2.28.87.64,0,1.25-.15,1.82-.46.58-.3,1.12-.69,1.61-1.16s.95-.98,1.36-1.54c.41-.56.76-1.1,1.06-1.61.3-.51.55-.97.75-1.37.19-.4.32-.66.39-.78.56-1.36,1.02-2.3,1.38-2.84.36-.54.61-.83.75-.88.09.08.16.3.19.66.03.36.05.73.05,1.12,0,.3-.02.66-.05,1.1-.03.44-.07.91-.12,1.42-.05.51-.09,1.02-.14,1.53s-.09.99-.14,1.44c-.05.44-.09.83-.12,1.15-.03.32-.05.53-.05.64,0,.5.14.89.41,1.16s.64.41,1.09.41c.33,0,.65-.11.96-.34s.62-.67.94-1.32c.16-.34.37-.78.64-1.3.27-.52.57-1.07.89-1.65.32-.58.66-1.16,1.03-1.74s.73-1.11,1.08-1.58c.35-.47.69-.85,1.01-1.13.32-.29.6-.43.85-.43.12,0,.27.09.42.27.16.18.23.52.23,1.02,0,.3-.01.61-.04.94s-.05.66-.09.98c-.04.33-.07.64-.09.94-.02.3-.04.56-.04.8,0,.55.04,1.09.13,1.63s.25,1.03.5,1.47c.25.44.59.8,1.03,1.08.44.27,1.01.41,1.71.41.62,0,1.22-.16,1.79-.47s1.1-.7,1.59-1.17c.49-.47.94-.99,1.35-1.56.28-.39.5-.74.72-1.1.06.4.14.79.26,1.16.25.8.62,1.49,1.1,2.07.48.58,1.07,1.04,1.75,1.36.69.32,1.47.48,2.36.48,1,0,1.92-.16,2.77-.49.85-.33,1.62-.74,2.3-1.25.69-.51,1.29-1.06,1.82-1.67.48-.55.88-1.07,1.24-1.59,0,.26,0,.51,0,.77v1.47c0,.55.13,1.01.39,1.39s.63.57,1.11.57c.27,0,.57-.11.9-.34.34-.23.67-.67.99-1.32.17-.34.39-.78.66-1.3.27-.52.56-1.07.89-1.65.33-.58.67-1.16,1.02-1.74s.7-1.11,1.05-1.58c.35-.47.69-.85,1.01-1.13.32-.29.6-.43.85-.43.17,0,.32.09.46.26.13.17.2.5.2.98,0,.19-.01.42-.04.69-.02.27-.05.57-.08.88s-.06.63-.08.95c-.02.32-.04.62-.04.9,0,.55.04,1.11.13,1.68.09.58.25,1.1.49,1.57s.58.85,1.02,1.16c.44.3,1.01.46,1.73.46.62,0,1.22-.15,1.79-.46.57-.3,1.1-.69,1.59-1.17.49-.48.94-.99,1.35-1.56.32-.44.58-.85.83-1.26.04.16.06.31.1.47.23.8.59,1.51,1.08,2.14.48.63,1.1,1.15,1.85,1.54s1.64.6,2.67.6c1.61-.03,3.05-.65,4.32-1.85,1.27-1.2,2.44-2.98,3.51-5.34,0-.02.02-.02.03-.04.02-.02.05-.11.12-.28.06-.17.14-.39.22-.67s.18-.59.27-.96c.09-.37.17-.76.23-1.18.3-.02.57-.02.83-.02h.71c.45,0,.74.07.88.22.13.15.2.37.2.67,0,.7-.08,1.44-.23,2.21-.16.77-.23,1.55-.23,2.33,0,.73.11,1.39.33,1.98.22.58.51,1.08.88,1.47.37.4.8.7,1.3.91.5.21,1.03.32,1.59.32.9,0,1.74-.24,2.49-.73.76-.48,1.44-1.08,2.05-1.78.61-.7,1.15-1.45,1.63-2.26.48-.8.89-1.52,1.25-2.16.06-.12.09-.27.09-.42,0-.22-.08-.42-.23-.6-.16-.18-.37-.27-.66-.27ZM223.24,38.75c0-1.01,0-2.1.02-3.26s.04-2.36.08-3.59c.04-1.23.1-2.43.18-3.6.08-1.17.18-2.28.3-3.32.12-1.04.28-1.96.47-2.75.19-.79.41-1.41.66-1.87.25-.46.55-.69.89-.69.44,0,.78.21,1.02.63.24.42.42.91.54,1.47s.19,1.12.21,1.66c.02.55.04.94.04,1.19,0,1.51-.11,2.97-.33,4.36s-.52,2.77-.9,4.13-.84,2.72-1.38,4.08c-.54,1.36-1.13,2.76-1.79,4.2v-2.64ZM155.23,40.67c.03-.12.08-.28.14-.47.06-.19.13-.36.21-.53.08-.16.15-.3.22-.42.07-.12.13-.18.18-.18s.09.06.13.19c.04.12.07.27.09.44s.04.35.05.53c0,.18.01.32.01.43h-1.03ZM241.49,47.92c-.08-.28-.14-.58-.2-.89s-.08-.61-.08-.89c0-.45.04-.91.13-1.37.09-.46.22-.88.41-1.25.19-.37.43-.68.73-.91.3-.23.66-.35,1.08-.35.31,0,.58.12.82.36.23.24.35.6.35,1.06,0,.42-.08.84-.23,1.25s-.37.81-.66,1.18c-.28.37-.62.72-1.02,1.03-.4.31-.84.57-1.32.77ZM251.48,40.67c.03-.12.08-.28.14-.47.06-.19.13-.36.21-.53.08-.16.15-.3.22-.42.07-.12.13-.18.18-.18s.09.06.13.19.07.27.09.44c.02.17.04.35.05.53,0,.18.01.32.01.43h-1.03Z"></path></g><g><path class="cls-1" d="M67.8,28.6c2.08,2.91,3.35,6.32,4.1,9.73,1.18-.34,2.4-.68,3.67-1.01-1.99-3.67-3.69-7.21-5.76-11.53-1.2,1.72-2.01,2.8-2.01,2.8Z"></path><path class="cls-1" d="M45.76,46.23c1.28,2.07,2.22,3.98,2.93,5.73,1.13-1.3,2.41-2.51,3.86-3.55,0,0-.58-2.78-1.14-6.55-1.55,1.55-3.41,3.03-5.65,4.37Z"></path><path class="cls-1" d="M60.04,36.24c-.54.17-1.16.33-1.84.49,1.07,2.11,1.79,3.91,2.11,5.06,1.16-.31,2.32-.64,3.49-1-.35-.82-.67-1.62-.96-2.41-1.18-.36-2.17-1.12-2.8-2.15Z"></path><path class="cls-1" d="M42.21,12.98c-.07,5.28-.51,9.73-.51,9.73,1.1.63,2.13,1.34,3.08,2.13.02.02.04.03.06.05,2.04,1.68,3.74,3.65,5.16,5.69.14-.11.27-.22.41-.33,0-1.63.1-3.16.32-4.48.75.83,1.47,1.69,2.15,2.56,1.04-.76,2.03-1.43,2.97-1.99-4.71-3.25-8.64-7.81-13.65-13.36Z"></path><path class="cls-1" d="M72.81,50.65l6.27-7.23c-.32-.52-.62-1.03-.92-1.53-1.79,1.56-3.56,2.85-5.34,3.89.07,1.76.05,3.41-.02,4.86Z"></path><path class="cls-1" d="M41.43,33.78c-1.79-.11-3.28-1.16-4.07-2.63-.48.5-1.15,1.09-1.95,1.71,2.13,1.37,4.12,3.09,5.74,5.27.86-.71,1.77-1.5,2.71-2.31-.8-.68-1.57-1.36-2.31-2.05-.04,0-.08,0-.12,0Z"></path><path class="cls-7" d="M88.4,36.05c2.6.92,5.45-.43,6.38-3.03.92-2.6-.43-5.45-3.03-6.38-2.6-.92-5.45.43-6.38,3.03-.92,2.6.43,5.45,3.03,6.38Z"></path><path class="cls-7" d="M111.09,38.03c-4.63-.33-19.05-1.05-25.07-.35-.5-.76-1.05-1.48-1.62-2.18-2.17,2.54-4.22,4.64-6.23,6.39.3.5.6,1.01.92,1.53l-6.27,7.23c-.16,3.44-.58,5.75-.58,5.75-.51-.76-1.15-1.77-1.85-2.94l-1.41,1.63c1.56.97,3.62,1.67,5.94,2.18-1.08,8.42.98,16.83.98,16.83,1.7-2.64,4.3-9.73,6.22-15.85,3.39.25,6.91.3,10.18.28,4.91,3.6,10.49,7.16,12.44,6.42-1.59-1.91-6.81-10.21-12.7-14.82-1.05-1.04-2.21-2.16-3.5-3.37,13.39-3.59,21.59-5.96,22.57-8.72Z"></path><path class="cls-7" d="M75.57,37.33c2.69-.69,5.59-1.32,8.83-1.83-4.13-5.05-9.94-8.68-13.83-10.79-.26.39-.51.75-.75,1.09,2.07,4.32,3.76,7.86,5.76,11.53Z"></path><path class="cls-5" d="M44.84,24.89c1.24.98,2,2.53,1.89,4.23-.17,2.71-2.48,4.76-5.18,4.66.74.68,1.51,1.37,2.31,2.05,1.98-1.71,4.08-3.55,6.14-5.24-1.42-2.04-3.13-4.02-5.16-5.69Z"></path><path class="cls-5" d="M37.36,31.15c-.43-.79-.66-1.71-.59-2.67.18-2.75,2.55-4.84,5.3-4.66,1.02.07,1.96.44,2.71,1.02-.96-.78-1.98-1.5-3.08-2.13,0,0,.44-4.45.51-9.73-1.19-1.32-2.43-2.68-3.77-4.11,1.28.32,2.54.7,3.76,1.12-.07-3.61-.36-7.29-1.13-9.99-4.6,6.28-7.31,13.91-7.81,16.96-7.15-1.1-14.36-3.19-24.62-3.68,8.54,8.05,15.06,11,23.18,11.58-1.41,1.6-2.68,3.13-3.81,4.57,2.45.81,5.01,1.89,7.39,3.42.8-.62,1.47-1.2,1.95-1.71Z"></path><path class="cls-5" d="M28.97,14.23c2.74-.29,4.73-2.75,4.44-5.49-.29-2.74-2.75-4.73-5.49-4.44s-4.73,2.75-4.44,5.49,2.75,4.73,5.49,4.44Z"></path><path class="cls-4" d="M72.81,50.65c.07-1.45.09-3.1.02-4.86-1.76,1.03-3.54,1.84-5.4,2.47,1.02,1.91,2.04,3.69,2.95,5.19.7,1.17,1.34,2.18,1.85,2.94,0,0,.42-2.31.58-5.75Z"></path><path class="cls-4" d="M42.21,12.98c5.01,5.55,8.94,10.1,13.65,13.36,1.21-.71,2.32-1.22,3.29-1.42-.09,1.48-.48,5.08-2.36,9.21.52.9,1,1.78,1.42,2.6.68-.15,1.3-.32,1.84-.49-.47-.76-.75-1.65-.76-2.6,0-2.76,2.23-4.99,4.99-5,2.76,0,4.99,2.23,5,4.99,0,2.76-2.23,4.99-4.99,5-.51,0-.98-.1-1.44-.24.29.78.61,1.59.96,2.41,2.58-.78,5.23-1.63,8.09-2.46-.75-3.41-2.02-6.82-4.1-9.73,0,0,.82-1.08,2.01-2.8.24-.34.49-.7.75-1.09,3.11-4.59,7.85-12.22,8.65-17.34-6.82,3.77-14.41,11.43-16.15,13.99-5.27-3.5-12.33-8.46-20.86-11.37-1.22-.42-2.48-.79-3.76-1.12,1.34,1.42,2.58,2.79,3.77,4.11Z"></path><path class="cls-4" d="M60.31,17.09c2.61.89,5.45-.51,6.33-3.12.89-2.61-.51-5.45-3.12-6.33-2.61-.89-5.45.51-6.33,3.12-.89,2.61.51,5.45,3.12,6.33Z"></path><path class="cls-8" d="M41.43,33.78s.08,0,.12,0c2.7.11,5-1.95,5.18-4.66.11-1.7-.65-3.25-1.89-4.23-.02-.02-.04-.04-.06-.05-.76-.58-1.69-.95-2.71-1.02-2.75-.18-5.13,1.91-5.3,4.66-.06.97.17,1.88.59,2.67.79,1.47,2.28,2.51,4.07,2.63Z"></path><path class="cls-8" d="M45.76,46.23c2.23-1.34,4.1-2.82,5.65-4.37-.51-3.49-1-7.82-.99-11.61-.14.11-.27.22-.41.33-2.06,1.69-4.16,3.53-6.14,5.24-.94.81-1.85,1.59-2.71,2.31-1.62-2.18-3.61-3.9-5.74-5.27-2.38-1.53-4.94-2.62-7.39-3.42-4.03-1.32-7.76-1.88-9.88-2.3,2.18,2.47,4.24,4.64,6.28,6.7,2.28.25,4.08,2.02,4.38,4.28,1.62,1.54,3.28,3.08,5.04,4.7,3.05-.82,6.38-1.59,10.15-2.18-7.63,8.92-13.79,12.55-21.81,14,.87.8,1.69,1.77,2.44,2.85.55-.27,1.1-.55,1.65-.83,4.68,1.64,9.03,3.07,13.78,4.09.37,2.27.78,4.55,1.2,6.65,1.01-4.22,3.14-10.52,7.43-15.45-.71-1.75-1.65-3.67-2.93-5.73Z"></path><path class="cls-8" d="M43.44,75.68s1.57-3.58,2.8-8.58c-1.56,1.41-3.02,2.68-4.24,3.68.49,2.09.99,3.82,1.45,4.9Z"></path><path class="cls-8" d="M55.86,26.34c-.94.55-1.94,1.22-2.97,1.99,1.5,1.93,2.81,3.92,3.9,5.8,1.89-4.12,2.27-7.73,2.36-9.21-.97.2-2.08.71-3.29,1.42Z"></path><path class="cls-6" d="M22.18,54.64c8.02-1.45,14.18-5.08,21.81-14-3.77.59-7.1,1.35-10.15,2.18-5.16,1.39-9.54,2.95-13.93,4.11-.83-2.98-4.33-10.27-9.58-16.02-1.33,7.71,2.18,19.45,2.18,19.45C1.94,57.96,0,77.18,0,77.18c3.74-2.88,12.59-10.66,16.53-16.57,1.34,2.26,12.24,17.77,16.35,17.66-.98-2.66-3.49-13.97-8.26-20.78-.76-1.08-1.57-2.05-2.44-2.85Z"></path><path class="cls-6" d="M24.41,33.84c-.18-.02-.36-.05-.55-.05-2.76,0-4.99,2.24-4.99,5s2.24,4.99,5,4.99,4.99-2.24,4.99-5c0-.22-.04-.44-.07-.65-.3-2.26-2.1-4.03-4.38-4.28Z"></path><path class="cls-3" d="M78.16,41.89c2.01-1.75,4.06-3.85,6.23-6.39,0,0,0,0,0,0,0,0,0,0,0,0-3.23.51-6.14,1.14-8.83,1.83-1.27.33-2.49.66-3.67,1.01-2.87.83-5.51,1.68-8.09,2.46-1.17.35-2.33.69-3.49,1-.32-1.15-1.04-2.96-2.11-5.06-.42-.83-.89-1.7-1.42-2.6-1.09-1.88-2.4-3.87-3.9-5.8-.68-.87-1.39-1.73-2.15-2.56-.23,1.32-.32,2.85-.32,4.48,0,3.79.48,8.13.99,11.61.56,3.78,1.14,6.55,1.14,6.55-1.45,1.04-2.73,2.25-3.86,3.55-4.29,4.93-6.42,11.23-7.43,15.45-.66,2.76-.84,4.63-.84,4.63.46-.35.99-.78,1.58-1.26,1.22-1,2.69-2.26,4.24-3.68,3.85-3.5,8.24-7.93,10.71-11.63,1.34,2.26,13.04,7.95,17.16,7.84-1.13-3.08-5.13-7.96-11.51-13.81,1.68-.3,3.28-.71,4.84-1.24,1.85-.63,3.64-1.44,5.4-2.47,1.78-1.05,3.54-2.33,5.34-3.89Z"></path><path class="cls-3" d="M62.84,38.39c.46.14.94.24,1.44.24,2.76,0,4.99-2.24,4.99-5,0-2.76-2.24-4.99-5-4.99-2.76,0-4.99,2.24-4.99,5,0,.96.29,1.84.76,2.6.63,1.03,1.62,1.79,2.8,2.15Z"></path></g></g><g><path class="cls-6" d="M154.99,60.14h2.95c1.14,0,2,.5,2.57,1.47.2.33.33.67.39,1.03.04.36.06.98.06,1.86,0,.94-.03,1.59-.1,1.96-.03.19-.08.35-.14.5-.07.14-.14.29-.24.45-.25.41-.59.75-1.03,1.02-.44.29-.97.43-1.6.43h-2.87v-8.71ZM156.27,67.61h1.53c.72,0,1.24-.25,1.56-.76.14-.19.23-.42.27-.71.04-.28.05-.81.05-1.59s-.02-1.3-.05-1.63c-.05-.33-.16-.59-.33-.8-.36-.51-.86-.75-1.51-.74h-1.53v6.22Z"></path><path class="cls-6" d="M167.44,60.14h5.39v1.24h-4.11v2.49h3.51v1.17h-3.51v2.56h4.11v1.24h-5.39v-8.71Z"></path><path class="cls-6" d="M178.99,60.14h3.06c.33,0,.65.03.96.1.31.08.62.26.94.51.27.2.48.47.65.84.17.35.26.76.26,1.24,0,.65-.22,1.23-.66,1.76-.45.56-1.11.84-1.98.86h-1.95v3.4h-1.28v-8.71ZM180.27,64.21h1.9c.47,0,.83-.16,1.07-.46.23-.29.34-.61.34-.96,0-.29-.05-.54-.14-.74-.1-.18-.23-.32-.41-.43-.26-.17-.57-.25-.92-.24h-1.85v2.83Z"></path><path class="cls-6" d="M190.84,60.14h1.28v5.62c0,.59.17,1.05.5,1.36.32.33.72.49,1.22.49s.91-.16,1.23-.49c.32-.31.48-.76.49-1.36v-5.62h1.28v5.76c-.02.92-.3,1.64-.86,2.18-.56.55-1.28.83-2.14.84-.85,0-1.55-.29-2.12-.84-.58-.54-.87-1.26-.88-2.18v-5.76Z"></path><path class="cls-6" d="M203.45,60.14h1.28v8.71h-1.28v-8.71Z"></path><path class="cls-6" d="M211.45,66.74c.67.57,1.47.86,2.4.87,1.1-.01,1.65-.42,1.67-1.21,0-.65-.36-1.04-1.1-1.17-.34-.05-.71-.1-1.12-.16-.73-.12-1.28-.4-1.65-.83-.39-.44-.59-.98-.59-1.61,0-.76.24-1.38.73-1.84.47-.46,1.15-.7,2.02-.7,1.05.02,1.96.32,2.73.9l-.71,1.09c-.63-.43-1.33-.66-2.09-.67-.39,0-.72.1-.98.3-.27.21-.42.53-.42.94,0,.25.09.48.28.68.19.21.49.35.91.43.23.04.55.09.95.14.79.11,1.37.4,1.75.88.37.47.56,1.01.56,1.62-.04,1.67-1.03,2.51-2.96,2.54-1.25,0-2.32-.4-3.22-1.19l.84-.99Z"></path><path class="cls-6" d="M232.2,61.46l-1.2.91v-1.33l1.2-.9h1.21v8.71h-1.21v-7.39Z"></path><path class="cls-6" d="M241.82,68.85s.03-.07.1-.22.17-.33.28-.56.24-.49.39-.77.29-.56.42-.84.27-.53.39-.76.22-.41.3-.54c-.12.07-.25.11-.39.12s-.31.02-.5,0c-.26,0-.49-.06-.69-.14s-.37-.2-.51-.33-.26-.28-.36-.44-.17-.32-.23-.47-.1-.3-.13-.43-.04-.24-.04-.31c0-.02,0-.07,0-.13s0-.13,0-.21,0-.16,0-.24,0-.15.01-.2c0-.03.02-.1.04-.21s.06-.25.12-.41.14-.33.25-.51.25-.35.42-.51.39-.3.64-.41.55-.19.9-.22c.36-.03.68-.01.96.07s.52.19.71.33.36.31.5.5.23.39.31.58.12.39.15.57.03.34.01.47c-.02.2-.05.37-.08.52s-.06.3-.1.44-.08.28-.13.41-.1.28-.17.44c-.02.04-.06.14-.13.29s-.16.33-.26.54-.22.45-.35.71-.25.52-.39.79c-.31.62-.65,1.31-1.03,2.08h-1.43ZM242.08,62.54c0,.16,0,.33.02.51s.06.36.14.53.2.31.37.42.4.18.7.2c.15,0,.29-.01.41-.06s.23-.11.33-.18.18-.16.25-.26.13-.19.17-.28.08-.18.1-.26.03-.14.03-.19c0-.1,0-.21,0-.33s-.01-.25-.04-.38-.06-.25-.11-.37-.13-.22-.22-.31-.22-.16-.37-.21-.34-.07-.56-.06c-.25.01-.45.07-.61.19s-.28.23-.37.37-.16.27-.19.39-.05.22-.05.26Z"></path><path class="cls-6" d="M251.59,62.57c0-.8.26-1.42.75-1.85.46-.43,1.01-.64,1.64-.64s1.21.22,1.67.65c.47.43.71,1.05.72,1.86v3.84c-.02.8-.26,1.42-.72,1.85-.46.43-1.02.65-1.67.66-.64,0-1.19-.23-1.64-.66-.49-.43-.74-1.05-.75-1.85v-3.85ZM255.18,62.65c-.02-.87-.42-1.32-1.19-1.33-.78.01-1.17.46-1.19,1.33v3.7c.01.88.41,1.33,1.19,1.33.77,0,1.17-.45,1.19-1.33v-3.7Z"></path><path class="cls-6" d="M263.84,63.81h.42c.41,0,.73-.12.96-.35.23-.23.34-.52.34-.89,0-.37-.13-.67-.35-.91-.23-.23-.52-.35-.88-.35-.26,0-.49.09-.71.26-.22.17-.37.44-.45.8h-1.21c.06-.64.32-1.19.76-1.63.44-.44.96-.66,1.56-.67.77,0,1.38.26,1.83.76.43.49.65,1.06.66,1.72,0,.33-.06.66-.18.97-.14.31-.39.59-.75.83.37.24.63.53.79.86.16.33.23.69.23,1.05,0,.82-.25,1.46-.73,1.93-.47.48-1.08.73-1.83.73-.57,0-1.08-.19-1.53-.57-.44-.38-.73-.93-.86-1.66h1.21c.11.29.26.53.46.71.2.19.47.28.8.28.36,0,.65-.13.9-.38.25-.24.37-.57.38-1.01,0-.44-.13-.79-.38-1.03-.24-.24-.55-.35-.93-.35h-.52v-1.1Z"></path></g></svg>