<?xml version="1.0" encoding="UTF-8"?><svg xmlns="http://www.w3.org/2000/svg" viewBox="0 0 86.66 70.26"><defs><style>.e{fill:#fff;}</style></defs><g id="a"><g><path class="e" d="M59.23,36.56c-.68,0-1.24,.54-1.24,1.2v1.41c0,1.16,.26,2.55,.79,4.18-.61-1.52-1.27-2.78-1.99-3.79-.72-1.01-1.77-1.83-3.16-2.46-1.39-.63-2.99-.95-4.78-.95-4.14,0-7.51,1.83-10.11,5.49-.77,1.08-1.28,2.34-1.48,3.65-.69,4.4,.38,8.01,3.19,10.82,2.26,2.26,5.04,3.4,8.32,3.4,1.68,0,3.25-.34,4.7-1.01,1.45-.68,1.93-1.09,1.93-1.09,.52-.46,1.18-1.15,1.47-1.54,.28-.39,.63-.9,.77-1.14,.14-.24,.34-.61,.46-.83,.11-.22,.32-.63,.46-.91,.14-.28,.08-.11-.13,.4l-.14,.31c-.42,1.35,.33,3.28,1.51,4.34,1.28,1.15,4.52,1.26,4.52,1.26h0c0-1.13-.72-2.14-1.79-2.51s-2.09-1.09-2.04-2.61v-16.33c0-.7-.56-1.26-1.24-1.26Zm-3.93,17.7c-2.16,2.11-4.87,2.95-8.12,2.51-1.14-.15-2.24-.58-3.17-1.24-2.77-1.98-4.15-4.58-4.15-7.82,0-2.53,.88-4.66,2.63-6.38,1.75-1.72,3.87-2.58,6.35-2.58s4.7,.88,6.48,2.64c1.78,1.76,2.67,3.88,2.67,6.36s-.9,4.76-2.69,6.51Z"/><path class="e" d="M25.78,36.78h.08c.7,0,1.27,.57,1.27,1.27v19.87c0,.7-.57,1.27-1.27,1.27h-.08c-.7,0-1.27-.57-1.27-1.27v-19.87c0-.7,.57-1.27,1.27-1.27Z"/><path class="e" d="M32.4,29.33h.16c.7,0,1.27,.57,1.27,1.27v27.32c0,.7-.57,1.26-1.26,1.26h-.16c-.7,0-1.27-.57-1.27-1.27V30.59c0-.7,.57-1.26,1.26-1.26Z"/><path class="e" d="M6.28,30.57c-1.65,1.51-2.47,3.47-2.47,5.87,0,1.79,.5,3.3,1.51,4.53,1.01,1.23,3.07,2.04,3.07,2.04,.65,.26,1.72,.62,2.39,.8l1.14,.32c1.99,.52,3.38,1.03,4.18,1.53,.88,.47,1.57,1.17,2.07,2.11,.52,.88,.79,1.79,.79,2.73,0,1.82-.65,3.31-1.95,4.47-1.3,1.16-2.91,1.73-4.84,1.73-1.13,0-2.09-.14-2.88-.41-.79-.27-1.5-.68-2.13-1.23-1.21-1.1-1.61-3.36-1.61-3.36-.12-.68-.79-1.25-1.48-1.25h-1.18c0,2.77,.83,4.93,2.48,6.45,1.65,1.52,3.95,2.29,6.87,2.29,2.7,0,4.92-.81,6.66-2.44,1.74-1.62,2.61-3.71,2.61-6.24,0-1.49-.33-2.82-1-4.01-.66-1.19-1.6-2.14-2.82-2.85-1.22-.72-3.23-1.33-3.23-1.33-.67-.2-1.76-.51-2.43-.68l-2.14-.55c-.58-.27-1.27-.68-2.07-1.2-.89-.61-1.33-1.8-1.33-3.6,0-1.65,.55-3.01,1.65-4.05,1.09-1.05,2.52-1.57,4.27-1.57,1.86,0,3.34,.5,4.45,1.51,1.11,1.01,1.6,2.93,1.6,2.93,.17,.67,.88,1.23,1.58,1.23h1.48c0-2.51-.82-4.48-2.45-5.9-1.63-1.42-3.79-2.13-6.47-2.13s-4.68,.76-6.33,2.27"/><path class="e" d="M74.98,36.3c-6.45,0-11.67,5.23-11.67,11.67s5.23,11.67,11.67,11.67,11.67-5.23,11.67-11.67-5.23-11.67-11.67-11.67Zm0,20.74c-5,0-9.07-4.07-9.07-9.07s4.07-9.07,9.07-9.07,9.07,4.07,9.07,9.07-4.07,9.07-9.07,9.07Z"/></g></g><g id="b"><path class="e" d="M30.48,49.71s-.61,8.05-2.49,9.47-4.45,1.68-5.88,2.38-1.66,1.29-1.66,1.29c0,0,.95-.64,2.61-.9s6.44-.74,6.98-3.67,.44-8.57,.44-8.57Z"/><path class="e" d="M34.26,58.58s-.15,2.65-3.12,3.46c-1.72,.47-4,1.37-4.94,2.2l-.95,.84s.34-.71,1.38-2,2.52-2.55,4.58-2.65c2.62-.13,3.06-1.85,3.06-1.85Z"/><path class="e" d="M34.33,56.14s.7,2.72,.03,4.22-3.51,4.13-3.79,6.41,.09,3.49,.09,3.49c0,0,.37-2.93,2.13-4.95s2.96-3.12,2.93-5.28-1.4-3.89-1.4-3.89Z"/><path class="e" d="M34.47,42.46s-.03,9.47,1.86,12.97,3.23,5.09,7.23,5.71,4.47,1.92,4.47,1.92c0,0-.56-.31-4.1-.84s-6.3-.25-8.21-4.53-1.26-15.24-1.26-15.24Z"/><path class="e" d="M60.76,18s-.84,2.54-6.8,5.28-11.2,5.62-11.2,5.62c0,0,2.42-1.49,8.07-2.05s8.07-.47,9.31-.81,1.8-.62,1.8-.62c0,0-.74,1.3-7.51,2.05s-13.31,2.05-16.39,5.62-3.48,7.26-3.48,7.26c0,0,.34-7.11,5.52-10.58s11.8-5.76,15.64-7.94,5.03-3.82,5.03-3.82Z"/><path class="e" d="M32.15,27.56s1.58-2.33,4.72-3.6,7.14-1.92,8.78-2.7,1.77-1.09,1.77-1.09c0,0-2.58,1.09-4.97,1.61s-5.4,.5-7.63,2.51c-2.07,1.86-2.67,3.26-2.67,3.26Z"/><path class="e" d="M36.62,6.46s-3.4,4.09-4.92,7.79-1.78,12.13-1.78,12.13c0,0,.56-3.04,6.27-5.96s8.6-3.44,12.54-6.21,5.15-4.84,5.15-4.84c0,0-.59,2.48-5.62,6.05s-10.94,4.88-14.89,9.59c-1.68,2-2.89,4.67-2.95,6.73-.1,3.97,.06,11.01,.06,11.01,0,0-.39-4.44-.92-8.81-.46-3.8-1.06-7.32-.96-10.64,.22-7.14,3.42-12.43,8.02-16.84Z"/><path class="e" d="M7.07,15.92s1.21,2.58,4.9,4.25,11.02,4.87,11.02,4.87c0,0-5.18-4.53-7.11-7.85s-.85-5.74-.85-5.74c0,0-.73,3.48,2.59,6.8s6.52,6.01,8.48,9.13c3.01,4.78,3.46,9.56,3.46,9.56,0,0-1.28-5.06-4.2-8.28s-7.21-3.99-12.8-7.13-5.49-5.62-5.49-5.62Z"/></g><g id="c"><path class="e" d="M6.74,15.27s-.47-1.52-2.11-2.41-3.62-.99-3.62-.99c0,0,1.24,.92,1.97,1.7,1.71,1.81,3.76,1.7,3.76,1.7Z"/><path class="e" d="M6.91,17s-.96-.45-2.67-.34-2.31,.71-3.15,1.06-1.09,.39-1.09,.39c0,0,2.34,.48,4.05,.2s2.86-1.3,2.86-1.3Z"/><path class="e" d="M7.05,17.26s-.47,.28-.81,.79-.29,1.46-.29,1.46c0,0,.95-.63,1.19-1.27s-.09-.98-.09-.98Z"/><path class="e" d="M8.96,16.98s-1.12-1.4-1.41-2.45-.15-3.65-.15-3.65c0,0,1.21,1.75,1.57,2.93s0,3.17,0,3.17Z"/><path class="e" d="M13.81,22.65s-1.01-.65-2.65-1.18-4.23,.24-4.23,.24c0,0,2.45,1.38,4.24,1.41s2.64-.47,2.64-.47Z"/><path class="e" d="M15.29,23.51s-1.71-.35-3.34,.18-2.29,1.63-2.29,1.63c0,0,.83-.38,2.29-.53s1.98-.77,3.33-1.28Z"/><path class="e" d="M9.32,17.4s-.09-.49,.14-.98,.55-.91,.55-.91c0,0,.05,.61-.1,1.2s-.59,.68-.59,.68Z"/><path class="e" d="M14.16,20.82s-.04-.64-.3-1.42-1.12-1.1-1.28-1.4c0,0,.06,1.34,.45,1.96s1.13,.85,1.13,.85Z"/><path class="e" d="M23.94,23.34s.23-1.37,0-2.41-.84-1.74-.84-1.74c0,0-.11,1.52,.08,2.73s.76,1.41,.76,1.41Z"/><path class="e" d="M20.27,19.96s-.64-1.05-1.22-2.67,1.14-3.97,1.14-3.97c0,0,.35,2.05,.41,3.1s-.32,3.54-.32,3.54Z"/><path class="e" d="M15.88,14.26s-.19-.73,.26-2.54,3.82-4.08,3.82-4.08c0,0-.68,2.22-1.4,3.48s-2.68,3.15-2.68,3.15Z"/><path class="e" d="M15.23,10.95s-.31-1.05-.08-2.52,2.58-3.68,2.58-3.68c0,0-.34,2.9-.92,3.89s-1.58,2.3-1.58,2.3Z"/><path class="e" d="M13.99,13.69s.16-1.58-.31-3.23-1.6-3.12-1.6-3.12c0,0-.28,1.88,0,3.38s1.39,1.72,1.91,2.96Z"/><path class="e" d="M28.83,18.55s.21-.95-.18-2.54-2.77-3.53-2.77-3.53c0,0,.32,1.37,.93,3.04s1.58,2.11,2.02,3.04Z"/><path class="e" d="M37.25,5.59s-.14-1.77,.93-3.21,2.7-2.37,2.7-2.37c0,0-.84,2.99-1.82,4.16s-1.81,1.43-1.81,1.43Z"/><path class="e" d="M34.83,9.96s1.3-1.89,2.97-2.67,2.26-.79,3.25-1.13c0,0-.64,1.55-1.9,2.19s-2.7,.57-4.33,1.61Z"/><path class="e" d="M33.46,8.7s-.4-1.72,.42-3.79,2.8-2.94,2.8-2.94c0,0-.13,1.58-.94,3.08s-2.29,3.64-2.29,3.64Z"/><path class="e" d="M33.03,9.42s-.68-.62-.91-1.78,.46-3.17,.46-3.17c0,0,.41,2.28,.46,3.25s0,1.7,0,1.7Z"/><path class="e" d="M29.23,16.46s.6-.96,.83-2.2-.54-3.43-.54-3.43c0,0-.56,2.06-.62,3.43s.33,2.2,.33,2.2Z"/><path class="e" d="M31.57,18.82s0-.97,.76-1.72,2.01-.89,2.01-.89c0,0-.95,1.49-1.8,2.07s-.97,.54-.97,.54Z"/><path class="e" d="M54.12,8.82s.06-2.01,1.68-3.35,3.54-1.72,3.54-1.72c0,0-.87,2.17-2.46,3.17s-2.75,1.9-2.75,1.9Z"/><path class="e" d="M52.4,10.09s.21-1.14,.52-2.86-.52-4.44-.52-4.44c0,0-.86,1.4-.98,3.49s.98,3.8,.98,3.8Z"/><path class="e" d="M54.12,10.06s.78-1.15,2.58-1.64,3.79-.33,3.79-.33c0,0-.53,.57-2.17,1.25s-3.15,.85-4.2,.72Z"/><path class="e" d="M49.86,15.07s1.46-1.7,3.36-1.82,3.9,.08,3.9,.08c0,0-1.79,.95-3.88,1.3s-3.39,.43-3.39,.43Z"/><path class="e" d="M52.02,10.43s-.21-1.03-.86-1.59-1.99-1.88-1.99-1.88c0,0,.12,1.3,.87,2.3s1.98,1.17,1.98,1.17Z"/><path class="e" d="M46.17,15.02s-.63-1.71-.37-3.22,1.2-2.61,1.36-2.89c0,0,.31,2.52,0,3.57s-.98,2.53-.98,2.53Z"/><path class="e" d="M33.42,12.22s1.84-1.03,3.62-.8,3.62,.92,3.62,.92c0,0-1.59,.58-3.2,.31s-3.22-.53-4.04-.43Z"/><path class="e" d="M47.06,14.47s1.11-.34,1.71-.95,.57-2.1,.57-2.1c0,0-.14,.61-.94,1.26s-1.33,1.79-1.33,1.79Z"/><path class="e" d="M36.86,19.17s-.25-1.77,.84-2.84,2.26-1.64,2.42-1.85c0,0-.56,2.07-1.58,2.88s-1.68,1.82-1.68,1.82Z"/><path class="e" d="M38.22,18.4s.56-1.08,1.55-1.22,1.57-.55,1.57-.55c0,0-1.14,1.42-1.86,1.57s-1.27,.21-1.27,.21Z"/><path class="e" d="M36.28,19.17s-.33-.62-.26-1.29,.32-1.55,.32-1.55c0,0,.27,1.11,.19,1.68s-.25,1.17-.25,1.17Z"/><path class="e" d="M46.84,29.3s2.86-.57,4.48,.12,2.3,1.49,2.3,1.49c0,0-2.26,0-3.73-.43s-3.06-1.19-3.06-1.19Z"/><path class="e" d="M55.33,27.86s.31,.67,1.52,1.59,3.6,.86,3.6,.86c0,0-.65-.79-1.79-1.33s-2.3-.52-3.32-1.12Z"/><path class="e" d="M62.36,25.01s.59-1.32,1.66-1.54,2.08-.11,2.62-.25c0,0-.93,1.18-2.14,1.51s-2.14,.28-2.14,.28Z"/><path class="e" d="M61.62,26.26s.98-.28,2,.31,2.1,1.33,2.88,1.46c0,0-1.76,.23-2.97-.19s-1.91-1.58-1.91-1.58Z"/><path class="e" d="M60.34,25.4s.14-1.3,.82-2,2.11-1.68,2.11-1.68c0,0-.59,2.08-1.47,2.75s-1.47,.93-1.47,.93Z"/><path class="e" d="M53.22,25.91s.79-1.5,2.02-1.79,2.65-.26,2.65-.26c0,0-1.78,1.61-2.96,1.77s-1.71,.28-1.71,.28Z"/><path class="e" d="M38.71,23.68s.45-.23,2.39-.12,2.74,1.77,2.74,1.77c0,0-1.27-.06-2.35-.43s-2.78-1.21-2.78-1.21Z"/><path class="e" d="M46.2,25.8s.36-.57,.28-1.27-.68-1.01-.68-1.01c0,0-.16,.93,0,1.36s.4,.91,.4,.91Z"/><path class="e" d="M45.46,21.88s.93-.67,2.47-.59,3.49,.81,3.49,.81c0,0-1.75,.59-3.44,.53s-2.51-.74-2.51-.74Z"/><path class="e" d="M47.71,19.97s1.01-1.78,2.42-2.16,3.09-1.07,3.09-1.07c0,0-1.27,1.87-2.82,2.43s-2.68,.8-2.68,.8Z"/><path class="e" d="M55.44,21.09s-.28-1.23-.26-2.22,1.55-3.27,1.55-3.27c0,0,.47,1.88-.29,3.31s-.99,2.19-.99,2.19Z"/><path class="e" d="M54.6,21.41s-.43-.34-.59-1.04,0-2.56,0-2.56c0,0,.57,1.47,.59,2.22s0,1.38,0,1.38Z"/><path class="e" d="M56.87,20.25s.76-.4,1.22-.93,.45-1.4,.45-1.4c0,0-.81,.73-1.27,1.4s-.4,.93-.4,.93Z"/><path class="e" d="M61.19,17.26s-.11-1.1,.54-2.45,1.6-2.21,2-3.04c0,0-.2,1.76-.47,2.92s-2.08,2.58-2.08,2.58Z"/><path class="e" d="M60.84,18.96s.4-.57,1.94-1.38,3.72-1.02,3.72-1.02c0,0-1.07,1.55-2.62,2.05s-3.04,.36-3.04,.36Z"/><path class="e" d="M60.17,17.61s.26-1.3,.17-2.75-.76-2.42-.76-2.42c0,0-.06,1.46-.36,2.44s.95,2.73,.95,2.73Z"/><path class="e" d="M53.49,10.93s.64-.4,1.35-.32,1.68,.26,1.68,.26c0,0-1.06,.34-1.79,.29s-1.24-.22-1.24-.22Z"/><path class="e" d="M54.62,27.79s0,.51,.24,1.02,.85,.98,.85,.98c0,0-.23-.57-.44-1s-.64-1-.64-1Z"/><path class="e" d="M55.71,27.7s.88-.12,1.64,0,1.07,.76,1.07,.76c0,0-.93,0-1.47-.21s-1.23-.55-1.23-.55Z"/><path class="e" d="M60.14,19.64s.47-.32,1.12-.3,1.02,.03,1.02,.03c0,0-.86,.32-1.25,.31s-.89-.04-.89-.04Z"/><path class="e" d="M46.59,25.59s.08-.51,.32-1.02,1.73-1.3,1.73-1.3c0,0,0,.51-.56,1.15s-.99,.7-1.49,1.16Z"/><path class="e" d="M42.8,26.74s-.93,.28-1.33,.82-.5,1.23-.5,1.23c0,0,.78-.63,1.26-1.15s.57-.91,.57-.91Z"/><path class="e" d="M62.47,25.81s.56-.4,1.3-.33,1.62-.11,1.62-.11c0,0-.65,.71-1.52,.65s-1.39-.22-1.39-.22Z"/><path class="e" d="M27.4,35.33s-.59-1.97-1.57-3.2-2.97-1.64-2.97-1.64c0,0,.79,2.39,1.57,3.13s1.88,.74,2.98,1.71Z"/></g><g id="d"><path class="e" d="M26.22,27.18s.84-1.83,.52-3.65-.75-3.39-.75-4.01c0,0-1.11,1.94-.96,3.59s1.19,2.75,1.19,4.07Z"/><path class="e" d="M33.61,26.45s.47-.57,1.33-.73,1.15-.09,1.5-.12c0,0-1.07,.76-1.53,.78s-1.3,.07-1.3,.07Z"/><path class="e" d="M35.78,33.17s-.16-1.92,.24-3.17,1.39-2.51,1.61-3.17c0,0,.26,1.78-.2,3.17s-1.51,2.29-1.66,3.17Z"/><path class="e" d="M37.58,30.97s.11-.78,.51-1.34,1.42-1.31,1.42-1.31c0,0-.19,1.18-.76,1.68s-1.17,.97-1.17,.97Z"/><path class="e" d="M39.58,32.54s.61-.88,2.18-1.22,4.25,.71,4.25,.71c0,0-1.06,.27-2.67,.52s-3.77-.01-3.77-.01Z"/><path class="e" d="M35.37,34.23s-.4-.76-.45-1.64,.23-1.78,.23-1.78c0,0,.26,1.06,.3,2.11s-.08,1.32-.08,1.32Z"/><path class="e" d="M38.13,33.61s.39-.33,1.38-.44,1.89,.13,1.89,.13c0,0-.7,.14-1.34,.31s-1.92,0-1.92,0Z"/><path class="e" d="M48.67,26.6s1.1-.92,2.27-1.29,1.63-.29,1.63-.29c0,0-1.32,1.11-2.23,1.32s-1.66,.26-1.66,.26Z"/><path class="e" d="M30.66,23.34s.23-1.76,1.48-3.09,2.9-1.97,2.9-1.97c0,0-1.01,2.42-2.19,3.31s-2.19,1.75-2.19,1.75Z"/><path class="e" d="M17.31,21.79s-.17-1.82-1.16-3.1-2.78-2.37-2.78-2.37c0,0,.65,2.03,1.3,3.09s1.55,1.47,2.64,2.38Z"/><path class="e" d="M39.19,21.78s.7-1.04,2.35-1.81,2.86-.8,2.86-.8c0,0-.54,1.37-2.29,1.7s-2.91,.91-2.91,.91Z"/></g></svg>